<svg xmlns="http://www.w3.org/2000/svg" xmlns:xlink="http://www.w3.org/1999/xlink" contentStyleType="text/css" height="574px" preserveAspectRatio="none" style="width:624px;height:574px;background:#FFFFFF;" version="1.1" viewBox="0 0 624 574" width="624px" zoomAndPan="magnify"><defs/><g><line style="stroke:#181818;stroke-width:0.5;stroke-dasharray:5.0,5.0;" x1="23" x2="23" y1="81.2969" y2="494.0234"/><line style="stroke:#181818;stroke-width:0.5;stroke-dasharray:5.0,5.0;" x1="74.9102" x2="74.9102" y1="81.2969" y2="494.0234"/><line style="stroke:#181818;stroke-width:0.5;stroke-dasharray:5.0,5.0;" x1="268.7168" x2="268.7168" y1="81.2969" y2="494.0234"/><line style="stroke:#181818;stroke-width:0.5;stroke-dasharray:5.0,5.0;" x1="515.1763" x2="515.1763" y1="81.2969" y2="494.0234"/><line style="stroke:#181818;stroke-width:0.5;stroke-dasharray:5.0,5.0;" x1="582.5249" x2="582.5249" y1="81.2969" y2="494.0234"/><text fill="#000000" font-family="sans-serif" font-size="14" lengthAdjust="spacing" textLength="31.9102" x="5" y="77.9951">User</text><ellipse cx="23.9551" cy="13.5" fill="#E2E2F0" rx="8" ry="8" style="stroke:#181818;stroke-width:0.5;"/><path d="M23.9551,21.5 L23.9551,48.5 M10.9551,29.5 L36.9551,29.5 M23.9551,48.5 L10.9551,63.5 M23.9551,48.5 L36.9551,63.5 " fill="none" style="stroke:#181818;stroke-width:0.5;"/><text fill="#000000" font-family="sans-serif" font-size="14" lengthAdjust="spacing" textLength="31.9102" x="5" y="506.0186">User</text><ellipse cx="23.9551" cy="517.8203" fill="#E2E2F0" rx="8" ry="8" style="stroke:#181818;stroke-width:0.5;"/><path d="M23.9551,525.8203 L23.9551,552.8203 M10.9551,533.8203 L36.9551,533.8203 M23.9551,552.8203 L10.9551,567.8203 M23.9551,552.8203 L36.9551,567.8203 " fill="none" style="stroke:#181818;stroke-width:0.5;"/><rect fill="#E2E2F0" height="30.2969" rx="2.5" ry="2.5" style="stroke:#181818;stroke-width:0.5;" width="45.9102" x="52.9102" y="50"/><text fill="#000000" font-family="sans-serif" font-size="14" lengthAdjust="spacing" textLength="31.9102" x="59.9102" y="69.9951">User</text><rect fill="#E2E2F0" height="30.2969" rx="2.5" ry="2.5" style="stroke:#181818;stroke-width:0.5;" width="45.9102" x="52.9102" y="493.0234"/><text fill="#000000" font-family="sans-serif" font-size="14" lengthAdjust="spacing" textLength="31.9102" x="59.9102" y="513.0186">User</text><rect fill="#E2E2F0" height="30.2969" rx="2.5" ry="2.5" style="stroke:#181818;stroke-width:0.5;" width="54.1064" x="241.7168" y="50"/><text fill="#000000" font-family="sans-serif" font-size="14" lengthAdjust="spacing" textLength="40.1064" x="248.7168" y="69.9951">Event</text><rect fill="#E2E2F0" height="30.2969" rx="2.5" ry="2.5" style="stroke:#181818;stroke-width:0.5;" width="54.1064" x="241.7168" y="493.0234"/><text fill="#000000" font-family="sans-serif" font-size="14" lengthAdjust="spacing" textLength="40.1064" x="248.7168" y="513.0186">Event</text><rect fill="#E2E2F0" height="30.2969" rx="2.5" ry="2.5" style="stroke:#181818;stroke-width:0.5;" width="56.3486" x="487.1763" y="50"/><text fill="#000000" font-family="sans-serif" font-size="14" lengthAdjust="spacing" textLength="42.3486" x="494.1763" y="69.9951">Ticket</text><rect fill="#E2E2F0" height="30.2969" rx="2.5" ry="2.5" style="stroke:#181818;stroke-width:0.5;" width="56.3486" x="487.1763" y="493.0234"/><text fill="#000000" font-family="sans-serif" font-size="14" lengthAdjust="spacing" textLength="42.3486" x="494.1763" y="513.0186">Ticket</text><rect fill="#E2E2F0" height="30.2969" rx="2.5" ry="2.5" style="stroke:#181818;stroke-width:0.5;" width="58.8643" x="553.5249" y="50"/><text fill="#000000" font-family="sans-serif" font-size="14" lengthAdjust="spacing" textLength="44.8643" x="560.5249" y="69.9951">Admin</text><rect fill="#E2E2F0" height="30.2969" rx="2.5" ry="2.5" style="stroke:#181818;stroke-width:0.5;" width="58.8643" x="553.5249" y="493.0234"/><text fill="#000000" font-family="sans-serif" font-size="14" lengthAdjust="spacing" textLength="44.8643" x="560.5249" y="513.0186">Admin</text><rect fill="#EEEEEE" height="3" style="stroke:#EEEEEE;stroke-width:1.0;" width="617.3892" x="0" y="111.8633"/><line style="stroke:#000000;stroke-width:1.0;" x1="0" x2="617.3892" y1="111.8633" y2="111.8633"/><line style="stroke:#000000;stroke-width:1.0;" x1="0" x2="617.3892" y1="114.8633" y2="114.8633"/><rect fill="#EEEEEE" height="23.1328" style="stroke:#000000;stroke-width:2.0;" width="240.7573" x="188.3159" y="101.2969"/><text fill="#000000" font-family="sans-serif" font-size="13" font-weight="bold" lengthAdjust="spacing" textLength="222.2314" x="194.3159" y="117.3638">User requests to book a ticket</text><polygon fill="#181818" points="256.77,151.5625,266.77,155.5625,256.77,159.5625,260.77,155.5625" style="stroke:#181818;stroke-width:1.0;"/><line style="stroke:#181818;stroke-width:1.0;" x1="75.8652" x2="262.77" y1="155.5625" y2="155.5625"/><text fill="#000000" font-family="sans-serif" font-size="13" lengthAdjust="spacing" textLength="121.71" x="82.8652" y="150.4966">View Event Details</text><polygon fill="#181818" points="86.8652,180.6953,76.8652,184.6953,86.8652,188.6953,82.8652,184.6953" style="stroke:#181818;stroke-width:1.0;"/><line style="stroke:#181818;stroke-width:1.0;" x1="80.8652" x2="267.77" y1="184.6953" y2="184.6953"/><text fill="#000000" font-family="sans-serif" font-size="13" lengthAdjust="spacing" textLength="168.9048" x="92.8652" y="179.6294">Display Event Information</text><polygon fill="#181818" points="503.3506,209.8281,513.3506,213.8281,503.3506,217.8281,507.3506,213.8281" style="stroke:#181818;stroke-width:1.0;"/><line style="stroke:#181818;stroke-width:1.0;" x1="75.8652" x2="509.3506" y1="213.8281" y2="213.8281"/><text fill="#000000" font-family="sans-serif" font-size="13" lengthAdjust="spacing" textLength="208.4761" x="82.8652" y="208.7622">Select Ticket Type and Quantity</text><polygon fill="#181818" points="279.77,238.9609,269.77,242.9609,279.77,246.9609,275.77,242.9609" style="stroke:#181818;stroke-width:1.0;"/><line style="stroke:#181818;stroke-width:1.0;" x1="273.77" x2="514.3506" y1="242.9609" y2="242.9609"/><text fill="#000000" font-family="sans-serif" font-size="13" lengthAdjust="spacing" textLength="180.4067" x="285.77" y="237.895">Check Availability and Price</text><polygon fill="#181818" points="503.3506,268.0938,513.3506,272.0938,503.3506,276.0938,507.3506,272.0938" style="stroke:#181818;stroke-width:1.0;"/><line style="stroke:#181818;stroke-width:1.0;" x1="268.77" x2="509.3506" y1="272.0938" y2="272.0938"/><text fill="#000000" font-family="sans-serif" font-size="13" lengthAdjust="spacing" textLength="222.5806" x="275.77" y="267.0278">Return Available Tickets and Price</text><polygon fill="#181818" points="86.8652,297.2266,76.8652,301.2266,86.8652,305.2266,82.8652,301.2266" style="stroke:#181818;stroke-width:1.0;"/><line style="stroke:#181818;stroke-width:1.0;" x1="80.8652" x2="514.3506" y1="301.2266" y2="301.2266"/><text fill="#000000" font-family="sans-serif" font-size="13" lengthAdjust="spacing" textLength="145.666" x="92.8652" y="296.1606">Display Ticket Options</text><polygon fill="#181818" points="503.3506,326.3594,513.3506,330.3594,503.3506,334.3594,507.3506,330.3594" style="stroke:#181818;stroke-width:1.0;"/><line style="stroke:#181818;stroke-width:1.0;" x1="75.8652" x2="509.3506" y1="330.3594" y2="330.3594"/><text fill="#000000" font-family="sans-serif" font-size="13" lengthAdjust="spacing" textLength="151.5122" x="82.8652" y="325.2935">Confirm Ticket Booking</text><polygon fill="#181818" points="279.77,355.4922,269.77,359.4922,279.77,363.4922,275.77,359.4922" style="stroke:#181818;stroke-width:1.0;"/><line style="stroke:#181818;stroke-width:1.0;" x1="273.77" x2="514.3506" y1="359.4922" y2="359.4922"/><text fill="#000000" font-family="sans-serif" font-size="13" lengthAdjust="spacing" textLength="96.2939" x="285.77" y="354.4263">Reserve Ticket</text><polygon fill="#181818" points="570.957,384.625,580.957,388.625,570.957,392.625,574.957,388.625" style="stroke:#181818;stroke-width:1.0;"/><line style="stroke:#181818;stroke-width:1.0;" x1="268.77" x2="576.957" y1="388.625" y2="388.625"/><text fill="#000000" font-family="sans-serif" font-size="13" lengthAdjust="spacing" textLength="194.9238" x="275.77" y="383.5591">Notify Admin for Confirmation</text><polygon fill="#181818" points="279.77,413.7578,269.77,417.7578,279.77,421.7578,275.77,417.7578" style="stroke:#181818;stroke-width:1.0;"/><line style="stroke:#181818;stroke-width:1.0;" x1="273.77" x2="581.957" y1="417.7578" y2="417.7578"/><text fill="#000000" font-family="sans-serif" font-size="13" lengthAdjust="spacing" textLength="151.5122" x="285.77" y="412.6919">Confirm Ticket Booking</text><polygon fill="#181818" points="503.3506,442.8906,513.3506,446.8906,503.3506,450.8906,507.3506,446.8906" style="stroke:#181818;stroke-width:1.0;"/><line style="stroke:#181818;stroke-width:1.0;" x1="268.77" x2="509.3506" y1="446.8906" y2="446.8906"/><text fill="#000000" font-family="sans-serif" font-size="13" lengthAdjust="spacing" textLength="176.2554" x="275.77" y="441.8247">Ticket Successfully Booked</text><polygon fill="#181818" points="86.8652,472.0234,76.8652,476.0234,86.8652,480.0234,82.8652,476.0234" style="stroke:#181818;stroke-width:1.0;"/><line style="stroke:#181818;stroke-width:1.0;" x1="80.8652" x2="514.3506" y1="476.0234" y2="476.0234"/><text fill="#000000" font-family="sans-serif" font-size="13" lengthAdjust="spacing" textLength="193.7495" x="92.8652" y="470.9575">Provide Booking Confirmation</text><!--SRC=[RL3BReCm4BpxArQvzmSgKOac77ffqmHwTypIhZ0sjHSg_hx6u2HKlSxCpcEbOkkWykX4BnsJebuQXjsCx41wgBPuCQBXI1HReYJLuiAKMoQlEpAHo8N8iXW63hy7zEo1BLoiRK42HmV8Cb71mnCKy0WVX3yG8-60B4bxKSnS5RW3-LxBQQLVJ6DT9vci4Sjz6JHdrAWObcvGJZs2D3My3w4OyIJA5BJ_GjL2FeO8UI4Tk2WyEbAuHCvs9-J1cIJJk1hxEstvjzwQ_TRFrVnTjxqr3Rak2Px34yXytYgTCFnfJ1bBYJpWhvQfcI1-5SBePBHipw-B_hU_Rbdnyw0KUjyCMazHXFLjmz7PaMfCnvkaNm00]--></g></svg>