<svg xmlns="http://www.w3.org/2000/svg" xmlns:xlink="http://www.w3.org/1999/xlink" contentStyleType="text/css" height="210px" preserveAspectRatio="none" style="width:2494px;height:210px;background:#FFFFFF;" version="1.1" viewBox="0 0 2494 210" width="2494px" zoomAndPan="magnify"><defs/><g><!--cluster System--><g id="cluster_System"><rect fill="none" height="97.64" rx="2.5" ry="2.5" style="stroke:#181818;stroke-width:1.0;" width="2481" x="7" y="106.8"/><text fill="#000000" font-family="sans-serif" font-size="14" font-weight="bold" lengthAdjust="spacing" textLength="58.3174" x="1218.3413" y="121.7951">System</text></g><g id="elem_Add Event"><ellipse cx="86.0046" cy="165.1209" fill="#F1F1F1" rx="62.7046" ry="14.9409" style="stroke:#181818;stroke-width:0.5;"/><text fill="#000000" font-family="sans-serif" font-size="14" lengthAdjust="spacing" textLength="71.9072" x="47.051" y="168.8685">Add Event</text></g><g id="elem_Edit Event"><ellipse cx="245.9966" cy="165.1153" fill="#F1F1F1" rx="62.6266" ry="14.9253" style="stroke:#181818;stroke-width:0.5;"/><text fill="#000000" font-family="sans-serif" font-size="14" lengthAdjust="spacing" textLength="71.668" x="207.1626" y="168.8629">Edit Event</text></g><g id="elem_Delete Event"><ellipse cx="412.9965" cy="165.1233" fill="#F1F1F1" rx="69.1665" ry="16.2333" style="stroke:#181818;stroke-width:0.5;"/><text fill="#000000" font-family="sans-serif" font-size="14" lengthAdjust="spacing" textLength="90.5557" x="364.7186" y="168.8709">Delete Event</text></g><g id="elem_Manage Own Events"><ellipse cx="607.9991" cy="165.1238" fill="#F1F1F1" rx="90.6691" ry="20.5338" style="stroke:#181818;stroke-width:0.5;"/><text fill="#000000" font-family="sans-serif" font-size="14" lengthAdjust="spacing" textLength="143.2539" x="536.3721" y="167.9705">Manage Own Events</text></g><g id="elem_Manage Users"><ellipse cx="805.9976" cy="165.1215" fill="#F1F1F1" rx="72.4076" ry="16.8815" style="stroke:#181818;stroke-width:0.5;"/><text fill="#000000" font-family="sans-serif" font-size="14" lengthAdjust="spacing" textLength="99.2646" x="753.3653" y="168.8691">Manage Users</text></g><g id="elem_Manage Events"><ellipse cx="989.0044" cy="165.1229" fill="#F1F1F1" rx="75.5644" ry="17.5129" style="stroke:#181818;stroke-width:0.5;"/><text fill="#000000" font-family="sans-serif" font-size="14" lengthAdjust="spacing" textLength="107.4609" x="932.274" y="168.8704">Manage Events</text></g><g id="elem_Manage Payments"><ellipse cx="1184.0049" cy="165.119" fill="#F1F1F1" rx="84.5449" ry="19.309" style="stroke:#181818;stroke-width:0.5;"/><text fill="#000000" font-family="sans-serif" font-size="14" lengthAdjust="spacing" textLength="129.2744" x="1119.2847" y="167.9944">Manage Payments</text></g><g id="elem_Review Refund Requests"><ellipse cx="1408.002" cy="165.1224" fill="#F1F1F1" rx="104.612" ry="23.3224" style="stroke:#181818;stroke-width:0.5;"/><text fill="#000000" font-family="sans-serif" font-size="14" lengthAdjust="spacing" textLength="174.1729" x="1320.9156" y="167.9691">Review Refund Requests</text></g><g id="elem_Generate Reports"><ellipse cx="1629.9991" cy="165.1218" fill="#F1F1F1" rx="82.3591" ry="18.8718" style="stroke:#181818;stroke-width:0.5;"/><text fill="#000000" font-family="sans-serif" font-size="14" lengthAdjust="spacing" textLength="124.168" x="1567.1023" y="168.2401">Generate Reports</text></g><g id="elem_Manage All Events"><ellipse cx="1832.0019" cy="165.1184" fill="#F1F1F1" rx="84.5419" ry="19.3084" style="stroke:#181818;stroke-width:0.5;"/><text fill="#000000" font-family="sans-serif" font-size="14" lengthAdjust="spacing" textLength="129.2676" x="1767.2842" y="167.9942">Manage All Events</text></g><g id="elem_Manage All Users"><ellipse cx="2032.9969" cy="165.1214" fill="#F1F1F1" rx="81.0569" ry="18.6114" style="stroke:#181818;stroke-width:0.5;"/><text fill="#000000" font-family="sans-serif" font-size="14" lengthAdjust="spacing" textLength="121.0713" x="1971.1865" y="168.3844">Manage All Users</text></g><g id="elem_Manage Roles"><ellipse cx="2220.9961" cy="165.1172" fill="#F1F1F1" rx="71.9861" ry="16.7972" style="stroke:#181818;stroke-width:0.5;"/><text fill="#000000" font-family="sans-serif" font-size="14" lengthAdjust="spacing" textLength="98.1504" x="2168.9209" y="168.8648">Manage Roles</text></g><g id="elem_Add New User"><ellipse cx="2400.0027" cy="165.1185" fill="#F1F1F1" rx="72.1927" ry="16.8385" style="stroke:#181818;stroke-width:0.5;"/><text fill="#000000" font-family="sans-serif" font-size="14" lengthAdjust="spacing" textLength="98.6973" x="2347.6541" y="168.8661">Add New User</text></g><!--entity Publisher--><g id="elem_Publisher"><ellipse cx="329.9988" cy="14" fill="#F1F1F1" rx="8" ry="8" style="stroke:#181818;stroke-width:0.5;"/><path d="M329.9988,22 L329.9988,49 M316.9988,30 L342.9988,30 M329.9988,49 L316.9988,64 M329.9988,49 L342.9988,64 " fill="none" style="stroke:#181818;stroke-width:0.5;"/><text fill="#000000" font-family="sans-serif" font-size="14" lengthAdjust="spacing" textLength="64.5176" x="297.74" y="78.4951">Publisher</text></g><!--entity Admin--><g id="elem_Admin"><ellipse cx="1630.0021" cy="14" fill="#F1F1F1" rx="8" ry="8" style="stroke:#181818;stroke-width:0.5;"/><path d="M1630.0021,22 L1630.0021,49 M1617.0021,30 L1643.0021,30 M1630.0021,49 L1617.0021,64 M1630.0021,49 L1643.0021,64 " fill="none" style="stroke:#181818;stroke-width:0.5;"/><text fill="#000000" font-family="sans-serif" font-size="14" lengthAdjust="spacing" textLength="44.8643" x="1607.57" y="78.4951">Admin</text></g><!--link Publisher to Add Event--><g id="link_Publisher_Add Event"><path d="M297.44,51.66 C263.28,59.86 208.72,75.36 166,98.8 C140.38,112.85 114.95,135.49 99.86,150.08 " fill="none" id="Publisher-Add Event" style="stroke:#181818;stroke-width:1.0;"/></g><!--link Publisher to Edit Event--><g id="link_Publisher_Edit Event"><path d="M303.65,82.12 C287.39,105.25 267.47,133.58 255.82,150.16 " fill="none" id="Publisher-Edit Event" style="stroke:#181818;stroke-width:1.0;"/></g><!--link Publisher to Delete Event--><g id="link_Publisher_Delete Event"><path d="M356.03,82.12 C371.63,104.57 390.62,131.9 402.26,148.66 " fill="none" id="Publisher-Delete Event" style="stroke:#181818;stroke-width:1.0;"/></g><!--link Publisher to Manage Own Events--><g id="link_Publisher_Manage Own Events"><path d="M362.48,52.55 C397.33,61.58 453.89,77.86 500,98.8 C528.93,111.93 559.74,131.14 581.01,145.33 " fill="none" id="Publisher-Manage Own Events" style="stroke:#181818;stroke-width:1.0;"/></g><!--link Admin to Manage Users--><g id="link_Admin_Manage Users"><path d="M1607.35,44.66 C1498.79,44.98 1031.45,49.24 896,98.8 C866.81,109.48 838.74,132.56 821.92,148.22 " fill="none" id="Admin-Manage Users" style="stroke:#181818;stroke-width:1.0;"/></g><!--link Admin to Manage Events--><g id="link_Admin_Manage Events"><path d="M1607.32,45.36 C1516.72,48.42 1180.93,62.08 1082,98.8 C1052.59,109.71 1023.84,132.27 1006.27,147.79 " fill="none" id="Admin-Manage Events" style="stroke:#181818;stroke-width:1.0;"/></g><!--link Admin to Manage Payments--><g id="link_Admin_Manage Payments"><path d="M1607.46,45.02 C1551.28,46.63 1401.3,55.02 1286,98.8 C1256.12,110.14 1225.76,131.04 1206.03,146.15 " fill="none" id="Admin-Manage Payments" style="stroke:#181818;stroke-width:1.0;"/></g><!--link Admin to Review Refund Requests--><g id="link_Admin_Review Refund Requests"><path d="M1607.08,56.98 C1569.3,77.31 1493.54,118.08 1447.14,143.05 " fill="none" id="Admin-Review Refund Requests" style="stroke:#181818;stroke-width:1.0;"/></g><!--link Admin to Generate Reports--><g id="link_Admin_Generate Reports"><path d="M1630,82.12 C1630,103.33 1630,128.92 1630,145.8 " fill="none" id="Admin-Generate Reports" style="stroke:#181818;stroke-width:1.0;"/></g><!--link Admin to Manage All Events--><g id="link_Admin_Manage All Events"><path d="M1652.9,56.44 C1673.34,67.1 1703.98,83.45 1730,98.8 C1756.08,114.18 1785.09,132.93 1805.49,146.38 " fill="none" id="Admin-Manage All Events" style="stroke:#181818;stroke-width:1.0;"/></g><!--link Admin to Manage All Users--><g id="link_Admin_Manage All Users"><path d="M1652.59,45.56 C1704.24,48.3 1834.17,58.95 1934,98.8 C1963.45,110.55 1993.3,131.8 2012.4,146.87 " fill="none" id="Admin-Manage All Users" style="stroke:#181818;stroke-width:1.0;"/></g><!--link Admin to Manage Roles--><g id="link_Admin_Manage Roles"><path d="M1652.82,45.54 C1738.76,49.13 2042.52,64.06 2132,98.8 C2160.77,109.96 2188.55,132.92 2205.21,148.42 " fill="none" id="Admin-Manage Roles" style="stroke:#181818;stroke-width:1.0;"/></g><!--link Admin to Add New User--><g id="link_Admin_Add New User"><path d="M1652.69,44.81 C1756.36,45.82 2185.29,52.76 2310,98.8 C2339.16,109.56 2367.24,132.62 2384.06,148.25 " fill="none" id="Admin-Add New User" style="stroke:#181818;stroke-width:1.0;"/></g><!--SRC=[VT1B2i8m50NGULRnXdRGHHGiZlmGSG6nkTP0ccgIjXHnxoOLKVfn5CAvB-yIKVZQqg4vQ-Mki4mCzqnMoZ1cKNXXIWqwziwZeWTZz0rJcj8gavBo5iOd4ygbyaksXeR7acw54ILetvbtmYLnyT3grqyErYLpyfcQeOFegoboj0eTSLmQ8yDnR-36cGqCh0YjEMwrNNW-q_hVziZBjNcjCPBulxlGB0u5OSyN]--></g></svg>