<svg xmlns="http://www.w3.org/2000/svg" xmlns:xlink="http://www.w3.org/1999/xlink" contentStyleType="text/css" height="202px" preserveAspectRatio="none" style="width:1749px;height:202px;background:#FFFFFF;" version="1.1" viewBox="0 0 1749 202" width="1749px" zoomAndPan="magnify"><defs/><g><!--cluster System--><g id="cluster_System"><rect fill="none" height="89.93" rx="2.5" ry="2.5" style="stroke:#181818;stroke-width:1.0;" width="1736" x="7" y="106.8"/><text fill="#000000" font-family="sans-serif" font-size="14" font-weight="bold" lengthAdjust="spacing" textLength="58.3174" x="845.8413" y="121.7951">System</text></g><g id="elem_Create Account"><ellipse cx="282.0045" cy="161.2689" fill="#F1F1F1" rx="75.7945" ry="17.5589" style="stroke:#181818;stroke-width:0.5;"/><text fill="#000000" font-family="sans-serif" font-size="14" lengthAdjust="spacing" textLength="108.0488" x="224.9801" y="165.0165">Create Account</text></g><g id="elem_Browse Events"><ellipse cx="96.9958" cy="161.2672" fill="#F1F1F1" rx="73.8858" ry="17.1772" style="stroke:#181818;stroke-width:0.5;"/><text fill="#000000" font-family="sans-serif" font-size="14" lengthAdjust="spacing" textLength="103.1338" x="42.4289" y="165.0147">Browse Events</text></g><g id="elem_View Event Details"><ellipse cx="645.0046" cy="161.2749" fill="#F1F1F1" rx="85.3246" ry="19.4649" style="stroke:#181818;stroke-width:0.5;"/><text fill="#000000" font-family="sans-serif" font-size="14" lengthAdjust="spacing" textLength="131.0723" x="579.4685" y="164.1216">View Event Details</text></g><g id="elem_Book Ticket"><ellipse cx="458.9982" cy="161.2676" fill="#F1F1F1" rx="65.9882" ry="15.5976" style="stroke:#181818;stroke-width:0.5;"/><text fill="#000000" font-family="sans-serif" font-size="14" lengthAdjust="spacing" textLength="81.6416" x="415.1774" y="165.0152">Book Ticket</text></g><g id="elem_Login"><ellipse cx="1166.0041" cy="161.2657" fill="#F1F1F1" rx="38.4641" ry="14.5557" style="stroke:#181818;stroke-width:0.5;"/><text fill="#000000" font-family="sans-serif" font-size="14" lengthAdjust="spacing" textLength="38.0146" x="1145.13" y="164.7206">Login</text></g><g id="elem_Search Events"><ellipse cx="1312.0042" cy="161.2668" fill="#F1F1F1" rx="72.7842" ry="16.9568" style="stroke:#181818;stroke-width:0.5;"/><text fill="#000000" font-family="sans-serif" font-size="14" lengthAdjust="spacing" textLength="100.2559" x="1258.8762" y="165.0144">Search Events</text></g><g id="elem_View Events"><ellipse cx="1487.0029" cy="161.2706" fill="#F1F1F1" rx="67.3029" ry="15.8606" style="stroke:#181818;stroke-width:0.5;"/><text fill="#000000" font-family="sans-serif" font-size="14" lengthAdjust="spacing" textLength="85.3809" x="1441.3125" y="165.0181">View Events</text></g><g id="elem_Book Tickets"><ellipse cx="1657.9978" cy="161.2656" fill="#F1F1F1" rx="68.5778" ry="16.1156" style="stroke:#181818;stroke-width:0.5;"/><text fill="#000000" font-family="sans-serif" font-size="14" lengthAdjust="spacing" textLength="88.9355" x="1610.53" y="165.0131">Book Tickets</text></g><g id="elem_Manage Cart"><ellipse cx="834.0005" cy="161.2681" fill="#F1F1F1" rx="68.8405" ry="16.1681" style="stroke:#181818;stroke-width:0.5;"/><text fill="#000000" font-family="sans-serif" font-size="14" lengthAdjust="spacing" textLength="89.6602" x="786.1704" y="165.0157">Manage Cart</text></g><g id="elem_Request Refund"><ellipse cx="1015.0037" cy="161.2687" fill="#F1F1F1" rx="77.2937" ry="17.8587" style="stroke:#181818;stroke-width:0.5;"/><text fill="#000000" font-family="sans-serif" font-size="14" lengthAdjust="spacing" textLength="111.8496" x="956.3333" y="164.95">Request Refund</text></g><!--entity Guest--><g id="elem_Guest"><ellipse cx="370.9991" cy="14" fill="#F1F1F1" rx="8" ry="8" style="stroke:#181818;stroke-width:0.5;"/><path d="M370.9991,22 L370.9991,49 M357.9991,30 L383.9991,30 M370.9991,49 L357.9991,64 M370.9991,49 L383.9991,64 " fill="none" style="stroke:#181818;stroke-width:0.5;"/><text fill="#000000" font-family="sans-serif" font-size="14" lengthAdjust="spacing" textLength="41.1182" x="350.44" y="78.4951">Guest</text></g><!--entity User--><g id="elem_User"><ellipse cx="1165.9951" cy="14" fill="#F1F1F1" rx="8" ry="8" style="stroke:#181818;stroke-width:0.5;"/><path d="M1165.9951,22 L1165.9951,49 M1152.9951,30 L1178.9951,30 M1165.9951,49 L1152.9951,64 M1165.9951,49 L1178.9951,64 " fill="none" style="stroke:#181818;stroke-width:0.5;"/><text fill="#000000" font-family="sans-serif" font-size="14" lengthAdjust="spacing" textLength="31.9102" x="1150.04" y="78.4951">User</text></g><!--link Guest to Create Account--><g id="link_Guest_Create Account"><path d="M350.13,71.76 C332.97,94.05 309.21,124.92 294.76,143.69 " fill="none" id="Guest-Create Account" style="stroke:#181818;stroke-width:1.0;"/></g><!--link Guest to Browse Events--><g id="link_Guest_Browse Events"><path d="M350.07,48.74 C315.43,55.96 244.5,72.73 189,98.8 C162.4,111.29 134.73,130.81 116.78,144.49 " fill="none" id="Guest-Browse Events" style="stroke:#181818;stroke-width:1.0;"/></g><!--link Guest to View Event Details--><g id="link_Guest_View Event Details"><path d="M391.84,49.58 C424.62,57.71 489.88,75.38 542,98.8 C569.35,111.09 598.52,129 618.81,142.32 " fill="none" id="Guest-View Event Details" style="stroke:#181818;stroke-width:1.0;"/></g><!--link Guest to Book Ticket--><g id="link_Guest_Book Ticket"><path d="M391.85,72.05 C409.34,95.02 433.64,126.95 447.7,145.42 " fill="none" id="Guest-Book Ticket" style="stroke:#181818;stroke-width:1.0;"/></g><!--link User to Login--><g id="link_User_Login"><path d="M1166,82.19 C1166,104.08 1166,130.41 1166,146.22 " fill="none" id="User-Login" style="stroke:#181818;stroke-width:1.0;"/></g><!--link User to Search Events--><g id="link_User_Search Events"><path d="M1182.18,57.47 C1209.21,78.87 1263.42,121.8 1292.5,144.83 " fill="none" id="User-Search Events" style="stroke:#181818;stroke-width:1.0;"/></g><!--link User to View Events--><g id="link_User_View Events"><path d="M1182.16,46.12 C1221.42,50.16 1324.29,63.55 1402,98.8 C1428.37,110.76 1454.77,131.57 1471,145.63 " fill="none" id="User-View Events" style="stroke:#181818;stroke-width:1.0;"/></g><!--link User to Book Tickets--><g id="link_User_Book Tickets"><path d="M1182.18,44.07 C1238.33,42.6 1429.16,42.32 1572,98.8 C1599.31,109.6 1626.07,130.91 1642.31,145.37 " fill="none" id="User-Book Tickets" style="stroke:#181818;stroke-width:1.0;"/></g><!--link User to Manage Cart--><g id="link_User_Manage Cart"><path d="M1149.76,45.96 C1109.33,49.68 1001.51,62.54 920,98.8 C893.51,110.59 866.96,131.24 850.51,145.32 " fill="none" id="User-Manage Cart" style="stroke:#181818;stroke-width:1.0;"/></g><!--link User to Request Refund--><g id="link_User_Request Refund"><path d="M1149.55,57.24 C1122.11,78.25 1067,120.45 1036.51,143.79 " fill="none" id="User-Request Refund" style="stroke:#181818;stroke-width:1.0;"/></g><!--link User to View Event Details--><g id="link_User_View Event Details"><path d="M1149.91,44.42 C1093.16,44.07 897.7,46.95 748,98.8 C718.68,108.95 688.6,128.11 668.57,142.35 " fill="none" id="User-View Event Details" style="stroke:#181818;stroke-width:1.0;"/></g><!--SRC=[TSz13e8m40NGVKynIrbm247ZHZUWxYVrYmtOndQG6EFTHKY4chXh_clcpx0MvsdJ8eZYuNq8y4ef3origmPKFeBWIaz5upzAKrha7YoWfTQkjP94bddN1T3w3YiXfgD1DmAj86oQ7y-SgsblT8r-PY-VPGROkihOP9wKOAylivQlJ2LnFXiUmuujLw2SlKHvWTkmMO5pQqz_EgP35AdN6m00]--></g></svg>