<svg xmlns="http://www.w3.org/2000/svg" xmlns:xlink="http://www.w3.org/1999/xlink" contentStyleType="text/css" height="893px" preserveAspectRatio="none" style="width:623px;height:893px;background:#FFFFFF;" version="1.1" viewBox="0 0 623 893" width="623px" zoomAndPan="magnify"><defs/><g><line style="stroke:#181818;stroke-width:0.5;stroke-dasharray:5.0,5.0;" x1="23" x2="23" y1="81.2969" y2="812.2188"/><line style="stroke:#181818;stroke-width:0.5;stroke-dasharray:5.0,5.0;" x1="74.9102" x2="74.9102" y1="81.2969" y2="812.2188"/><line style="stroke:#181818;stroke-width:0.5;stroke-dasharray:5.0,5.0;" x1="240.7363" x2="240.7363" y1="81.2969" y2="812.2188"/><line style="stroke:#181818;stroke-width:0.5;stroke-dasharray:5.0,5.0;" x1="423.8145" x2="423.8145" y1="81.2969" y2="812.2188"/><line style="stroke:#181818;stroke-width:0.5;stroke-dasharray:5.0,5.0;" x1="491.1631" x2="491.1631" y1="81.2969" y2="812.2188"/><line style="stroke:#181818;stroke-width:0.5;stroke-dasharray:5.0,5.0;" x1="571.0273" x2="571.0273" y1="81.2969" y2="812.2188"/><text fill="#000000" font-family="sans-serif" font-size="14" lengthAdjust="spacing" textLength="31.9102" x="5" y="77.9951">User</text><ellipse cx="23.9551" cy="13.5" fill="#E2E2F0" rx="8" ry="8" style="stroke:#181818;stroke-width:0.5;"/><path d="M23.9551,21.5 L23.9551,48.5 M10.9551,29.5 L36.9551,29.5 M23.9551,48.5 L10.9551,63.5 M23.9551,48.5 L36.9551,63.5 " fill="none" style="stroke:#181818;stroke-width:0.5;"/><text fill="#000000" font-family="sans-serif" font-size="14" lengthAdjust="spacing" textLength="31.9102" x="5" y="824.2139">User</text><ellipse cx="23.9551" cy="836.0156" fill="#E2E2F0" rx="8" ry="8" style="stroke:#181818;stroke-width:0.5;"/><path d="M23.9551,844.0156 L23.9551,871.0156 M10.9551,852.0156 L36.9551,852.0156 M23.9551,871.0156 L10.9551,886.0156 M23.9551,871.0156 L36.9551,886.0156 " fill="none" style="stroke:#181818;stroke-width:0.5;"/><rect fill="#E2E2F0" height="30.2969" rx="2.5" ry="2.5" style="stroke:#181818;stroke-width:0.5;" width="45.9102" x="52.9102" y="50"/><text fill="#000000" font-family="sans-serif" font-size="14" lengthAdjust="spacing" textLength="31.9102" x="59.9102" y="69.9951">User</text><rect fill="#E2E2F0" height="30.2969" rx="2.5" ry="2.5" style="stroke:#181818;stroke-width:0.5;" width="45.9102" x="52.9102" y="811.2188"/><text fill="#000000" font-family="sans-serif" font-size="14" lengthAdjust="spacing" textLength="31.9102" x="59.9102" y="831.2139">User</text><rect fill="#E2E2F0" height="30.2969" rx="2.5" ry="2.5" style="stroke:#181818;stroke-width:0.5;" width="54.1064" x="213.7363" y="50"/><text fill="#000000" font-family="sans-serif" font-size="14" lengthAdjust="spacing" textLength="40.1064" x="220.7363" y="69.9951">Event</text><rect fill="#E2E2F0" height="30.2969" rx="2.5" ry="2.5" style="stroke:#181818;stroke-width:0.5;" width="54.1064" x="213.7363" y="811.2188"/><text fill="#000000" font-family="sans-serif" font-size="14" lengthAdjust="spacing" textLength="40.1064" x="220.7363" y="831.2139">Event</text><rect fill="#E2E2F0" height="30.2969" rx="2.5" ry="2.5" style="stroke:#181818;stroke-width:0.5;" width="56.3486" x="395.8145" y="50"/><text fill="#000000" font-family="sans-serif" font-size="14" lengthAdjust="spacing" textLength="42.3486" x="402.8145" y="69.9951">Ticket</text><rect fill="#E2E2F0" height="30.2969" rx="2.5" ry="2.5" style="stroke:#181818;stroke-width:0.5;" width="56.3486" x="395.8145" y="811.2188"/><text fill="#000000" font-family="sans-serif" font-size="14" lengthAdjust="spacing" textLength="42.3486" x="402.8145" y="831.2139">Ticket</text><rect fill="#E2E2F0" height="30.2969" rx="2.5" ry="2.5" style="stroke:#181818;stroke-width:0.5;" width="58.8643" x="462.1631" y="50"/><text fill="#000000" font-family="sans-serif" font-size="14" lengthAdjust="spacing" textLength="44.8643" x="469.1631" y="69.9951">Admin</text><rect fill="#E2E2F0" height="30.2969" rx="2.5" ry="2.5" style="stroke:#181818;stroke-width:0.5;" width="58.8643" x="462.1631" y="811.2188"/><text fill="#000000" font-family="sans-serif" font-size="14" lengthAdjust="spacing" textLength="44.8643" x="469.1631" y="831.2139">Admin</text><rect fill="#E2E2F0" height="30.2969" rx="2.5" ry="2.5" style="stroke:#181818;stroke-width:0.5;" width="80.8008" x="531.0273" y="50"/><text fill="#000000" font-family="sans-serif" font-size="14" lengthAdjust="spacing" textLength="66.8008" x="538.0273" y="69.9951">Database</text><rect fill="#E2E2F0" height="30.2969" rx="2.5" ry="2.5" style="stroke:#181818;stroke-width:0.5;" width="80.8008" x="531.0273" y="811.2188"/><text fill="#000000" font-family="sans-serif" font-size="14" lengthAdjust="spacing" textLength="66.8008" x="538.0273" y="831.2139">Database</text><rect fill="#EEEEEE" height="3" style="stroke:#EEEEEE;stroke-width:1.0;" width="616.8281" x="0" y="111.8633"/><line style="stroke:#000000;stroke-width:1.0;" x1="0" x2="616.8281" y1="111.8633" y2="111.8633"/><line style="stroke:#000000;stroke-width:1.0;" x1="0" x2="616.8281" y1="114.8633" y2="114.8633"/><rect fill="#EEEEEE" height="23.1328" style="stroke:#000000;stroke-width:2.0;" width="232.6641" x="192.082" y="101.2969"/><text fill="#000000" font-family="sans-serif" font-size="13" font-weight="bold" lengthAdjust="spacing" textLength="214.1382" x="198.082" y="117.3638">User requests to view events</text><polygon fill="#181818" points="228.7896,151.5625,238.7896,155.5625,228.7896,159.5625,232.7896,155.5625" style="stroke:#181818;stroke-width:1.0;"/><line style="stroke:#181818;stroke-width:1.0;" x1="75.8652" x2="234.7896" y1="155.5625" y2="155.5625"/><text fill="#000000" font-family="sans-serif" font-size="13" lengthAdjust="spacing" textLength="121.6211" x="82.8652" y="150.4966">Request Event List</text><polygon fill="#181818" points="559.4277,180.6953,569.4277,184.6953,559.4277,188.6953,563.4277,184.6953" style="stroke:#181818;stroke-width:1.0;"/><line style="stroke:#181818;stroke-width:1.0;" x1="240.7896" x2="565.4277" y1="184.6953" y2="184.6953"/><text fill="#000000" font-family="sans-serif" font-size="13" lengthAdjust="spacing" textLength="119.2788" x="247.7896" y="179.6294">Fetch Events Data</text><polygon fill="#181818" points="251.7896,209.8281,241.7896,213.8281,251.7896,217.8281,247.7896,213.8281" style="stroke:#181818;stroke-width:1.0;"/><line style="stroke:#181818;stroke-width:1.0;" x1="245.7896" x2="570.4277" y1="213.8281" y2="213.8281"/><text fill="#000000" font-family="sans-serif" font-size="13" lengthAdjust="spacing" textLength="127.2705" x="257.7896" y="208.7622">Return Events Data</text><polygon fill="#181818" points="86.8652,238.9609,76.8652,242.9609,86.8652,246.9609,82.8652,242.9609" style="stroke:#181818;stroke-width:1.0;"/><line style="stroke:#181818;stroke-width:1.0;" x1="80.8652" x2="239.7896" y1="242.9609" y2="242.9609"/><text fill="#000000" font-family="sans-serif" font-size="13" lengthAdjust="spacing" textLength="96.0654" x="92.8652" y="237.895">Display Events</text><rect fill="#EEEEEE" height="3" style="stroke:#EEEEEE;stroke-width:1.0;" width="616.8281" x="0" y="271.5273"/><line style="stroke:#000000;stroke-width:1.0;" x1="0" x2="616.8281" y1="271.5273" y2="271.5273"/><line style="stroke:#000000;stroke-width:1.0;" x1="0" x2="616.8281" y1="274.5273" y2="274.5273"/><rect fill="#EEEEEE" height="23.1328" style="stroke:#000000;stroke-width:2.0;" width="167.937" x="224.4456" y="260.9609"/><text fill="#000000" font-family="sans-serif" font-size="13" font-weight="bold" lengthAdjust="spacing" textLength="149.4111" x="230.4456" y="277.0278">User selects a ticket</text><polygon fill="#181818" points="411.9888,311.2266,421.9888,315.2266,411.9888,319.2266,415.9888,315.2266" style="stroke:#181818;stroke-width:1.0;"/><line style="stroke:#181818;stroke-width:1.0;" x1="75.8652" x2="417.9888" y1="315.2266" y2="315.2266"/><text fill="#000000" font-family="sans-serif" font-size="13" lengthAdjust="spacing" textLength="208.4761" x="82.8652" y="310.1606">Select Ticket Type and Quantity</text><polygon fill="#181818" points="251.7896,340.3594,241.7896,344.3594,251.7896,348.3594,247.7896,344.3594" style="stroke:#181818;stroke-width:1.0;"/><line style="stroke:#181818;stroke-width:1.0;" x1="245.7896" x2="422.9888" y1="344.3594" y2="344.3594"/><text fill="#000000" font-family="sans-serif" font-size="13" lengthAdjust="spacing" textLength="159.1992" x="257.7896" y="339.2935">Check Ticket Availability</text><polygon fill="#181818" points="411.9888,369.4922,421.9888,373.4922,411.9888,377.4922,415.9888,373.4922" style="stroke:#181818;stroke-width:1.0;"/><line style="stroke:#181818;stroke-width:1.0;" x1="240.7896" x2="417.9888" y1="373.4922" y2="373.4922"/><text fill="#000000" font-family="sans-serif" font-size="13" lengthAdjust="spacing" textLength="157.917" x="247.7896" y="368.4263">Return Available Tickets</text><polygon fill="#181818" points="86.8652,398.625,76.8652,402.625,86.8652,406.625,82.8652,402.625" style="stroke:#181818;stroke-width:1.0;"/><line style="stroke:#181818;stroke-width:1.0;" x1="80.8652" x2="422.9888" y1="402.625" y2="402.625"/><text fill="#000000" font-family="sans-serif" font-size="13" lengthAdjust="spacing" textLength="145.666" x="92.8652" y="397.5591">Display Ticket Options</text><rect fill="#EEEEEE" height="3" style="stroke:#EEEEEE;stroke-width:1.0;" width="616.8281" x="0" y="431.1914"/><line style="stroke:#000000;stroke-width:1.0;" x1="0" x2="616.8281" y1="431.1914" y2="431.1914"/><line style="stroke:#000000;stroke-width:1.0;" x1="0" x2="616.8281" y1="434.1914" y2="434.1914"/><rect fill="#EEEEEE" height="23.1328" style="stroke:#000000;stroke-width:2.0;" width="195.6636" x="210.5823" y="420.625"/><text fill="#000000" font-family="sans-serif" font-size="13" font-weight="bold" lengthAdjust="spacing" textLength="177.1377" x="216.5823" y="436.6919">User confirms the ticket</text><polygon fill="#181818" points="411.9888,470.8906,421.9888,474.8906,411.9888,478.8906,415.9888,474.8906" style="stroke:#181818;stroke-width:1.0;"/><line style="stroke:#181818;stroke-width:1.0;" x1="75.8652" x2="417.9888" y1="474.8906" y2="474.8906"/><text fill="#000000" font-family="sans-serif" font-size="13" lengthAdjust="spacing" textLength="151.5122" x="82.8652" y="469.8247">Confirm Ticket Booking</text><polygon fill="#181818" points="251.7896,500.0234,241.7896,504.0234,251.7896,508.0234,247.7896,504.0234" style="stroke:#181818;stroke-width:1.0;"/><line style="stroke:#181818;stroke-width:1.0;" x1="245.7896" x2="422.9888" y1="504.0234" y2="504.0234"/><text fill="#000000" font-family="sans-serif" font-size="13" lengthAdjust="spacing" textLength="96.2939" x="257.7896" y="498.9575">Reserve Ticket</text><polygon fill="#181818" points="559.4277,529.1563,569.4277,533.1563,559.4277,537.1563,563.4277,533.1563" style="stroke:#181818;stroke-width:1.0;"/><line style="stroke:#181818;stroke-width:1.0;" x1="240.7896" x2="565.4277" y1="533.1563" y2="533.1563"/><text fill="#000000" font-family="sans-serif" font-size="13" lengthAdjust="spacing" textLength="136.0938" x="247.7896" y="528.0903">Update Ticket Status</text><polygon fill="#181818" points="251.7896,558.2891,241.7896,562.2891,251.7896,566.2891,247.7896,562.2891" style="stroke:#181818;stroke-width:1.0;"/><line style="stroke:#181818;stroke-width:1.0;" x1="245.7896" x2="570.4277" y1="562.2891" y2="562.2891"/><text fill="#000000" font-family="sans-serif" font-size="13" lengthAdjust="spacing" textLength="144.3457" x="257.7896" y="557.2231">Ticket Status Updated</text><rect fill="#EEEEEE" height="3" style="stroke:#EEEEEE;stroke-width:1.0;" width="616.8281" x="0" y="590.8555"/><line style="stroke:#000000;stroke-width:1.0;" x1="0" x2="616.8281" y1="590.8555" y2="590.8555"/><line style="stroke:#000000;stroke-width:1.0;" x1="0" x2="616.8281" y1="593.8555" y2="593.8555"/><rect fill="#EEEEEE" height="23.1328" style="stroke:#000000;stroke-width:2.0;" width="318.6494" x="149.0894" y="580.2891"/><text fill="#000000" font-family="sans-serif" font-size="13" font-weight="bold" lengthAdjust="spacing" textLength="300.1235" x="155.0894" y="596.356">Admin reviews and confirms the booking</text><polygon fill="#181818" points="479.5952,630.5547,489.5952,634.5547,479.5952,638.5547,483.5952,634.5547" style="stroke:#181818;stroke-width:1.0;"/><line style="stroke:#181818;stroke-width:1.0;" x1="240.7896" x2="485.5952" y1="634.5547" y2="634.5547"/><text fill="#000000" font-family="sans-serif" font-size="13" lengthAdjust="spacing" textLength="194.9238" x="247.7896" y="629.4888">Notify Admin for Confirmation</text><polygon fill="#181818" points="251.7896,659.6875,241.7896,663.6875,251.7896,667.6875,247.7896,663.6875" style="stroke:#181818;stroke-width:1.0;"/><line style="stroke:#181818;stroke-width:1.0;" x1="245.7896" x2="490.5952" y1="663.6875" y2="663.6875"/><text fill="#000000" font-family="sans-serif" font-size="13" lengthAdjust="spacing" textLength="108.0562" x="257.7896" y="658.6216">Confirm Booking</text><polygon fill="#181818" points="559.4277,688.8203,569.4277,692.8203,559.4277,696.8203,563.4277,692.8203" style="stroke:#181818;stroke-width:1.0;"/><line style="stroke:#181818;stroke-width:1.0;" x1="240.7896" x2="565.4277" y1="692.8203" y2="692.8203"/><text fill="#000000" font-family="sans-serif" font-size="13" lengthAdjust="spacing" textLength="149.2271" x="247.7896" y="687.7544">Update Booking Status</text><polygon fill="#181818" points="251.7896,717.9531,241.7896,721.9531,251.7896,725.9531,247.7896,721.9531" style="stroke:#181818;stroke-width:1.0;"/><line style="stroke:#181818;stroke-width:1.0;" x1="245.7896" x2="570.4277" y1="721.9531" y2="721.9531"/><text fill="#000000" font-family="sans-serif" font-size="13" lengthAdjust="spacing" textLength="157.479" x="257.7896" y="716.8872">Booking Status Updated</text><rect fill="#EEEEEE" height="3" style="stroke:#EEEEEE;stroke-width:1.0;" width="616.8281" x="0" y="750.5195"/><line style="stroke:#000000;stroke-width:1.0;" x1="0" x2="616.8281" y1="750.5195" y2="750.5195"/><line style="stroke:#000000;stroke-width:1.0;" x1="0" x2="616.8281" y1="753.5195" y2="753.5195"/><rect fill="#EEEEEE" height="23.1328" style="stroke:#000000;stroke-width:2.0;" width="215.9253" x="200.4514" y="739.9531"/><text fill="#000000" font-family="sans-serif" font-size="13" font-weight="bold" lengthAdjust="spacing" textLength="197.3994" x="206.4514" y="756.02">User receives confirmation</text><polygon fill="#181818" points="86.8652,790.2188,76.8652,794.2188,86.8652,798.2188,82.8652,794.2188" style="stroke:#181818;stroke-width:1.0;"/><line style="stroke:#181818;stroke-width:1.0;" x1="80.8652" x2="239.7896" y1="794.2188" y2="794.2188"/><text fill="#000000" font-family="sans-serif" font-size="13" lengthAdjust="spacing" textLength="140.9243" x="92.8652" y="789.1528">Booking Confirmation</text><!--SRC=[RPBDReCm383lUGfhzxt092RHmaxJfhNm06vmrwWqOSGmyVOB8Q54tTMVVpuxGSccXzfIBphiMKdLeMPucYDFW1RgD5wEfDc3CWMLabTQI9MIlBafxK6UWW8PJsZ9is8dH9Pv4-ZfPo3B5jZ0gEWNQ9vg8Sj43S-lKC8B79OSy4BmhYoBScR5pi4tOdbPaElinWWNNWjvw7K2VM7jMA5ir-8Ku5t8KalIPIEmNtCrgLpHqKDO3W3Lr16WRk1hS4igdaGL9-yl9AynBnzHjNXIxPnInbv1Bi2MGhPTccmLGvlFZfNH6rLfz5drDtUx2_rdkrzuhDyPSrNw-ovv8DTbZ8CtDwsx1Zd6uSZ8WzsSDOc7vCPh-VTtRpg_fFMdIHnFYy4iwOVbhjc7ONMUGkNPVT1WZVEo8byF6dQ9Ipp81l1ecu94D_n0IMea6rNzu5MntdJOclq1]--></g></svg>