<svg xmlns="http://www.w3.org/2000/svg" xmlns:xlink="http://www.w3.org/1999/xlink" contentStyleType="text/css" height="1279px" preserveAspectRatio="none" style="width:1072px;height:1279px;background:#FFFFFF;" version="1.1" viewBox="0 0 1072 1279" width="1072px" zoomAndPan="magnify"><defs/><g><!--class User--><g id="elem_User"><rect codeLine="1" fill="#F1F1F1" height="129.4844" id="User" rx="2.5" ry="2.5" style="stroke:#181818;stroke-width:0.5;" width="207.4805" x="376" y="121.08"/><ellipse cx="459.5352" cy="137.08" fill="#ADD1B2" rx="11" ry="11" style="stroke:#181818;stroke-width:1.0;"/><path d="M462.5039,142.7206 Q461.9258,143.0175 461.2852,143.1581 Q460.6445,143.3144 459.9414,143.3144 Q457.4414,143.3144 456.1133,141.6738 Q454.8008,140.0175 454.8008,136.8925 Q454.8008,133.7675 456.1133,132.1113 Q457.4414,130.455 459.9414,130.455 Q460.6445,130.455 461.2852,130.6113 Q461.9414,130.7675 462.5039,131.0644 L462.5039,133.7831 Q461.8789,133.205 461.2852,132.9394 Q460.6914,132.6581 460.0664,132.6581 Q458.7227,132.6581 458.0352,133.7363 Q457.3477,134.7988 457.3477,136.8925 Q457.3477,138.9863 458.0352,140.0644 Q458.7227,141.1269 460.0664,141.1269 Q460.6914,141.1269 461.2852,140.8613 Q461.8789,140.58 462.5039,140.0019 L462.5039,142.7206 Z " fill="#000000"/><text fill="#000000" font-family="sans-serif" font-size="14" lengthAdjust="spacing" textLength="31.9102" x="480.0352" y="141.9267">User</text><line style="stroke:#181818;stroke-width:0.5;" x1="377" x2="582.4805" y1="153.08" y2="153.08"/><ellipse cx="387" cy="166.7284" fill="none" rx="3" ry="3" style="stroke:#038048;stroke-width:1.0;"/><text fill="#000000" font-family="sans-serif" font-size="14" lengthAdjust="spacing" textLength="119.9502" x="396" y="170.0751">email: EmailField</text><ellipse cx="387" cy="183.0253" fill="none" rx="3" ry="3" style="stroke:#038048;stroke-width:1.0;"/><text fill="#000000" font-family="sans-serif" font-size="14" lengthAdjust="spacing" textLength="102.3066" x="396" y="186.372">role: CharField</text><ellipse cx="387" cy="199.3222" fill="none" rx="3" ry="3" style="stroke:#038048;stroke-width:1.0;"/><text fill="#000000" font-family="sans-serif" font-size="14" lengthAdjust="spacing" textLength="181.4805" x="396" y="202.6689">profile_image: ImageField</text><line style="stroke:#181818;stroke-width:0.5;" x1="377" x2="582.4805" y1="209.9706" y2="209.9706"/><ellipse cx="387" cy="223.6191" fill="#84BE84" rx="3" ry="3" style="stroke:#038048;stroke-width:1.0;"/><text fill="#000000" font-family="sans-serif" font-size="14" lengthAdjust="spacing" textLength="133.1436" x="396" y="226.9657">is_publisher(): bool</text><ellipse cx="387" cy="239.9159" fill="#84BE84" rx="3" ry="3" style="stroke:#038048;stroke-width:1.0;"/><text fill="#000000" font-family="sans-serif" font-size="14" lengthAdjust="spacing" textLength="112.0479" x="396" y="243.2626">is_admin(): bool</text></g><!--class PublisherProfile--><g id="elem_PublisherProfile"><rect codeLine="9" fill="#F1F1F1" height="80.5938" id="PublisherProfile" rx="2.5" ry="2.5" style="stroke:#181818;stroke-width:0.5;" width="235.4805" x="7" y="450.09"/><ellipse cx="66.189" cy="466.09" fill="#ADD1B2" rx="11" ry="11" style="stroke:#181818;stroke-width:1.0;"/><path d="M69.1577,471.7306 Q68.5796,472.0275 67.939,472.1681 Q67.2983,472.3244 66.5952,472.3244 Q64.0952,472.3244 62.7671,470.6838 Q61.4546,469.0275 61.4546,465.9025 Q61.4546,462.7775 62.7671,461.1213 Q64.0952,459.465 66.5952,459.465 Q67.2983,459.465 67.939,459.6213 Q68.5952,459.7775 69.1577,460.0744 L69.1577,462.7931 Q68.5327,462.215 67.939,461.9494 Q67.3452,461.6681 66.7202,461.6681 Q65.3765,461.6681 64.689,462.7463 Q64.0015,463.8088 64.0015,465.9025 Q64.0015,467.9963 64.689,469.0744 Q65.3765,470.1369 66.7202,470.1369 Q67.3452,470.1369 67.939,469.8713 Q68.5327,469.59 69.1577,469.0119 L69.1577,471.7306 Z " fill="#000000"/><text fill="#000000" font-family="sans-serif" font-size="14" lengthAdjust="spacing" textLength="108.6025" x="86.689" y="470.9367">PublisherProfile</text><line style="stroke:#181818;stroke-width:0.5;" x1="8" x2="241.4805" y1="482.09" y2="482.09"/><ellipse cx="18" cy="495.7384" fill="none" rx="3" ry="3" style="stroke:#038048;stroke-width:1.0;"/><text fill="#000000" font-family="sans-serif" font-size="14" lengthAdjust="spacing" textLength="71.6133" x="27" y="499.0851">user: User</text><ellipse cx="18" cy="512.0353" fill="none" rx="3" ry="3" style="stroke:#038048;stroke-width:1.0;"/><text fill="#000000" font-family="sans-serif" font-size="14" lengthAdjust="spacing" textLength="209.4805" x="27" y="515.382">organization_name: CharField</text><line style="stroke:#181818;stroke-width:0.5;" x1="8" x2="241.4805" y1="522.6838" y2="522.6838"/></g><!--class SiteAdminProfile--><g id="elem_SiteAdminProfile"><rect codeLine="14" fill="#F1F1F1" height="80.5938" id="SiteAdminProfile" rx="2.5" ry="2.5" style="stroke:#181818;stroke-width:0.5;" width="234.2979" x="277.59" y="450.09"/><ellipse cx="332.5749" cy="466.09" fill="#ADD1B2" rx="11" ry="11" style="stroke:#181818;stroke-width:1.0;"/><path d="M335.5436,471.7306 Q334.9655,472.0275 334.3249,472.1681 Q333.6842,472.3244 332.9811,472.3244 Q330.4811,472.3244 329.153,470.6838 Q327.8405,469.0275 327.8405,465.9025 Q327.8405,462.7775 329.153,461.1213 Q330.4811,459.465 332.9811,459.465 Q333.6842,459.465 334.3249,459.6213 Q334.9811,459.7775 335.5436,460.0744 L335.5436,462.7931 Q334.9186,462.215 334.3249,461.9494 Q333.7311,461.6681 333.1061,461.6681 Q331.7624,461.6681 331.0749,462.7463 Q330.3874,463.8088 330.3874,465.9025 Q330.3874,467.9963 331.0749,469.0744 Q331.7624,470.1369 333.1061,470.1369 Q333.7311,470.1369 334.3249,469.8713 Q334.9186,469.59 335.5436,469.0119 L335.5436,471.7306 Z " fill="#000000"/><text fill="#000000" font-family="sans-serif" font-size="14" lengthAdjust="spacing" textLength="115.8281" x="353.0749" y="470.9367">SiteAdminProfile</text><line style="stroke:#181818;stroke-width:0.5;" x1="278.59" x2="510.8879" y1="482.09" y2="482.09"/><ellipse cx="288.59" cy="495.7384" fill="none" rx="3" ry="3" style="stroke:#038048;stroke-width:1.0;"/><text fill="#000000" font-family="sans-serif" font-size="14" lengthAdjust="spacing" textLength="71.6133" x="297.59" y="499.0851">user: User</text><ellipse cx="288.59" cy="512.0353" fill="none" rx="3" ry="3" style="stroke:#038048;stroke-width:1.0;"/><text fill="#000000" font-family="sans-serif" font-size="14" lengthAdjust="spacing" textLength="208.2979" x="297.59" y="515.382">admin_permissions: TextField</text><line style="stroke:#181818;stroke-width:0.5;" x1="278.59" x2="510.8879" y1="522.6838" y2="522.6838"/></g><!--class Event--><g id="elem_Event"><rect codeLine="19" fill="#F1F1F1" height="178.375" id="Event" rx="2.5" ry="2.5" style="stroke:#181818;stroke-width:0.5;" width="235.6309" x="628.92" y="632.13"/><ellipse cx="722.4322" cy="648.13" fill="#ADD1B2" rx="11" ry="11" style="stroke:#181818;stroke-width:1.0;"/><path d="M725.401,653.7706 Q724.8228,654.0675 724.1822,654.2081 Q723.5416,654.3644 722.8385,654.3644 Q720.3385,654.3644 719.0103,652.7238 Q717.6978,651.0675 717.6978,647.9425 Q717.6978,644.8175 719.0103,643.1613 Q720.3385,641.505 722.8385,641.505 Q723.5416,641.505 724.1822,641.6613 Q724.8385,641.8175 725.401,642.1144 L725.401,644.8331 Q724.776,644.255 724.1822,643.9894 Q723.5885,643.7081 722.9635,643.7081 Q721.6197,643.7081 720.9322,644.7863 Q720.2447,645.8488 720.2447,647.9425 Q720.2447,650.0363 720.9322,651.1144 Q721.6197,652.1769 722.9635,652.1769 Q723.5885,652.1769 724.1822,651.9113 Q724.776,651.63 725.401,651.0519 L725.401,653.7706 Z " fill="#000000"/><text fill="#000000" font-family="sans-serif" font-size="14" lengthAdjust="spacing" textLength="40.1064" x="742.9322" y="652.9767">Event</text><line style="stroke:#181818;stroke-width:0.5;" x1="629.92" x2="863.5509" y1="664.13" y2="664.13"/><ellipse cx="639.92" cy="677.7784" fill="none" rx="3" ry="3" style="stroke:#038048;stroke-width:1.0;"/><text fill="#000000" font-family="sans-serif" font-size="14" lengthAdjust="spacing" textLength="102.8535" x="648.92" y="681.1251">title: CharField</text><ellipse cx="639.92" cy="694.0753" fill="none" rx="3" ry="3" style="stroke:#038048;stroke-width:1.0;"/><text fill="#000000" font-family="sans-serif" font-size="14" lengthAdjust="spacing" textLength="151.2793" x="648.92" y="697.422">description: TextField</text><ellipse cx="639.92" cy="710.3722" fill="none" rx="3" ry="3" style="stroke:#038048;stroke-width:1.0;"/><text fill="#000000" font-family="sans-serif" font-size="14" lengthAdjust="spacing" textLength="129.9512" x="648.92" y="713.7189">image: ImageField</text><ellipse cx="639.92" cy="726.6691" fill="none" rx="3" ry="3" style="stroke:#038048;stroke-width:1.0;"/><text fill="#000000" font-family="sans-serif" font-size="14" lengthAdjust="spacing" textLength="107.5293" x="648.92" y="730.0157">date: DateField</text><ellipse cx="639.92" cy="742.9659" fill="none" rx="3" ry="3" style="stroke:#038048;stroke-width:1.0;"/><text fill="#000000" font-family="sans-serif" font-size="14" lengthAdjust="spacing" textLength="108.8213" x="648.92" y="746.3126">time: TimeField</text><ellipse cx="639.92" cy="759.2628" fill="none" rx="3" ry="3" style="stroke:#038048;stroke-width:1.0;"/><text fill="#000000" font-family="sans-serif" font-size="14" lengthAdjust="spacing" textLength="131.0313" x="648.92" y="762.6095">location: CharField</text><ellipse cx="639.92" cy="775.5597" fill="none" rx="3" ry="3" style="stroke:#038048;stroke-width:1.0;"/><text fill="#000000" font-family="sans-serif" font-size="14" lengthAdjust="spacing" textLength="134.4287" x="648.92" y="778.9064">price: DecimalField</text><ellipse cx="639.92" cy="791.8566" fill="none" rx="3" ry="3" style="stroke:#038048;stroke-width:1.0;"/><text fill="#000000" font-family="sans-serif" font-size="14" lengthAdjust="spacing" textLength="209.6309" x="648.92" y="795.2032">available_tickets: IntegerField</text><line style="stroke:#181818;stroke-width:0.5;" x1="629.92" x2="863.5509" y1="802.505" y2="802.505"/></g><!--class Ticket--><g id="elem_Ticket"><rect codeLine="30" fill="#F1F1F1" height="145.7813" id="Ticket" rx="2.5" ry="2.5" style="stroke:#181818;stroke-width:0.5;" width="239.7939" x="444.84" y="871.5"/><ellipse cx="539.3127" cy="887.5" fill="#ADD1B2" rx="11" ry="11" style="stroke:#181818;stroke-width:1.0;"/><path d="M542.2814,893.1406 Q541.7033,893.4375 541.0627,893.5781 Q540.422,893.7344 539.7189,893.7344 Q537.2189,893.7344 535.8908,892.0938 Q534.5783,890.4375 534.5783,887.3125 Q534.5783,884.1875 535.8908,882.5313 Q537.2189,880.875 539.7189,880.875 Q540.422,880.875 541.0627,881.0313 Q541.7189,881.1875 542.2814,881.4844 L542.2814,884.2031 Q541.6564,883.625 541.0627,883.3594 Q540.4689,883.0781 539.8439,883.0781 Q538.5002,883.0781 537.8127,884.1563 Q537.1252,885.2188 537.1252,887.3125 Q537.1252,889.4063 537.8127,890.4844 Q538.5002,891.5469 539.8439,891.5469 Q540.4689,891.5469 541.0627,891.2813 Q541.6564,891 542.2814,890.4219 L542.2814,893.1406 Z " fill="#000000"/><text fill="#000000" font-family="sans-serif" font-size="14" lengthAdjust="spacing" textLength="42.3486" x="559.8127" y="892.3467">Ticket</text><line style="stroke:#181818;stroke-width:0.5;" x1="445.84" x2="683.6339" y1="903.5" y2="903.5"/><ellipse cx="455.84" cy="917.1484" fill="none" rx="3" ry="3" style="stroke:#038048;stroke-width:1.0;"/><text fill="#000000" font-family="sans-serif" font-size="14" lengthAdjust="spacing" textLength="89.1475" x="464.84" y="920.4951">event: Event</text><ellipse cx="455.84" cy="933.4453" fill="none" rx="3" ry="3" style="stroke:#038048;stroke-width:1.0;"/><text fill="#000000" font-family="sans-serif" font-size="14" lengthAdjust="spacing" textLength="71.6133" x="464.84" y="936.792">user: User</text><ellipse cx="455.84" cy="949.7422" fill="none" rx="3" ry="3" style="stroke:#038048;stroke-width:1.0;"/><text fill="#000000" font-family="sans-serif" font-size="14" lengthAdjust="spacing" textLength="205.6934" x="464.84" y="953.0889">quantity: PositiveIntegerField</text><ellipse cx="455.84" cy="966.0391" fill="none" rx="3" ry="3" style="stroke:#038048;stroke-width:1.0;"/><text fill="#000000" font-family="sans-serif" font-size="14" lengthAdjust="spacing" textLength="213.7939" x="464.84" y="969.3857">purchase_date: DateTimeField</text><ellipse cx="455.84" cy="982.3359" fill="none" rx="3" ry="3" style="stroke:#038048;stroke-width:1.0;"/><text fill="#000000" font-family="sans-serif" font-size="14" lengthAdjust="spacing" textLength="180.8037" x="464.84" y="985.6826">is_refunded: BooleanField</text><line style="stroke:#181818;stroke-width:0.5;" x1="445.84" x2="683.6339" y1="992.9844" y2="992.9844"/><ellipse cx="455.84" cy="1006.6328" fill="#84BE84" rx="3" ry="3" style="stroke:#038048;stroke-width:1.0;"/><text fill="#000000" font-family="sans-serif" font-size="14" lengthAdjust="spacing" textLength="160.5762" x="464.84" y="1009.9795">purchase_ticket(): void</text></g><!--class Payment--><g id="elem_Payment"><rect codeLine="39" fill="#F1F1F1" height="178.375" id="Payment" rx="2.5" ry="2.5" style="stroke:#181818;stroke-width:0.5;" width="261.1016" x="624.19" y="1094.28"/><ellipse cx="719.5308" cy="1110.28" fill="#ADD1B2" rx="11" ry="11" style="stroke:#181818;stroke-width:1.0;"/><path d="M722.4996,1115.9206 Q721.9214,1116.2175 721.2808,1116.3581 Q720.6402,1116.5144 719.9371,1116.5144 Q717.4371,1116.5144 716.1089,1114.8738 Q714.7964,1113.2175 714.7964,1110.0925 Q714.7964,1106.9675 716.1089,1105.3113 Q717.4371,1103.655 719.9371,1103.655 Q720.6402,1103.655 721.2808,1103.8113 Q721.9371,1103.9675 722.4996,1104.2644 L722.4996,1106.9831 Q721.8746,1106.405 721.2808,1106.1394 Q720.6871,1105.8581 720.0621,1105.8581 Q718.7183,1105.8581 718.0308,1106.9363 Q717.3433,1107.9988 717.3433,1110.0925 Q717.3433,1112.1863 718.0308,1113.2644 Q718.7183,1114.3269 720.0621,1114.3269 Q720.6871,1114.3269 721.2808,1114.0613 Q721.8746,1113.78 722.4996,1113.2019 L722.4996,1115.9206 Z " fill="#000000"/><text fill="#000000" font-family="sans-serif" font-size="14" lengthAdjust="spacing" textLength="61.9199" x="740.0308" y="1115.1267">Payment</text><line style="stroke:#181818;stroke-width:0.5;" x1="625.19" x2="884.2916" y1="1126.28" y2="1126.28"/><ellipse cx="635.19" cy="1139.9284" fill="none" rx="3" ry="3" style="stroke:#038048;stroke-width:1.0;"/><text fill="#000000" font-family="sans-serif" font-size="14" lengthAdjust="spacing" textLength="211.5859" x="644.19" y="1143.2751">payment_date: DateTimeField</text><ellipse cx="635.19" cy="1156.2253" fill="none" rx="3" ry="3" style="stroke:#038048;stroke-width:1.0;"/><text fill="#000000" font-family="sans-serif" font-size="14" lengthAdjust="spacing" textLength="153.6035" x="644.19" y="1159.572">amount: DecimalField</text><ellipse cx="635.19" cy="1172.5222" fill="none" rx="3" ry="3" style="stroke:#038048;stroke-width:1.0;"/><text fill="#000000" font-family="sans-serif" font-size="14" lengthAdjust="spacing" textLength="198.9121" x="644.19" y="1175.8689">payment_method: CharField</text><ellipse cx="635.19" cy="1188.8191" fill="none" rx="3" ry="3" style="stroke:#038048;stroke-width:1.0;"/><text fill="#000000" font-family="sans-serif" font-size="14" lengthAdjust="spacing" textLength="187.8652" x="644.19" y="1192.1657">payment_status: CharField</text><ellipse cx="635.19" cy="1205.1159" fill="none" rx="3" ry="3" style="stroke:#038048;stroke-width:1.0;"/><text fill="#000000" font-family="sans-serif" font-size="14" lengthAdjust="spacing" textLength="174.3438" x="644.19" y="1208.4626">transaction_id: CharField</text><ellipse cx="635.19" cy="1221.4128" fill="none" rx="3" ry="3" style="stroke:#038048;stroke-width:1.0;"/><text fill="#000000" font-family="sans-serif" font-size="14" lengthAdjust="spacing" textLength="178.4521" x="644.19" y="1224.7595">total_tickets: IntegerField</text><line style="stroke:#181818;stroke-width:0.5;" x1="625.19" x2="884.2916" y1="1232.0613" y2="1232.0613"/><ellipse cx="635.19" cy="1245.7097" fill="#84BE84" rx="3" ry="3" style="stroke:#038048;stroke-width:1.0;"/><text fill="#000000" font-family="sans-serif" font-size="14" lengthAdjust="spacing" textLength="235.1016" x="644.19" y="1249.0564">tickets: ManyToManyField(Ticket)</text><ellipse cx="635.19" cy="1262.0066" fill="#84BE84" rx="3" ry="3" style="stroke:#038048;stroke-width:1.0;"/><text fill="#000000" font-family="sans-serif" font-size="14" lengthAdjust="spacing" textLength="173.1885" x="644.19" y="1265.3532">process_payment(): void</text></g><!--class RefundRequest--><g id="elem_RefundRequest"><rect codeLine="50" fill="#F1F1F1" height="113.1875" id="RefundRequest" rx="2.5" ry="2.5" style="stroke:#181818;stroke-width:0.5;" width="228.7471" x="360.37" y="1126.88"/><ellipse cx="416.7938" cy="1142.88" fill="#ADD1B2" rx="11" ry="11" style="stroke:#181818;stroke-width:1.0;"/><path d="M419.7626,1148.5206 Q419.1845,1148.8175 418.5438,1148.9581 Q417.9032,1149.1144 417.2001,1149.1144 Q414.7001,1149.1144 413.372,1147.4738 Q412.0595,1145.8175 412.0595,1142.6925 Q412.0595,1139.5675 413.372,1137.9113 Q414.7001,1136.255 417.2001,1136.255 Q417.9032,1136.255 418.5438,1136.4113 Q419.2001,1136.5675 419.7626,1136.8644 L419.7626,1139.5831 Q419.1376,1139.005 418.5438,1138.7394 Q417.9501,1138.4581 417.3251,1138.4581 Q415.9813,1138.4581 415.2938,1139.5363 Q414.6063,1140.5988 414.6063,1142.6925 Q414.6063,1144.7863 415.2938,1145.8644 Q415.9813,1146.9269 417.3251,1146.9269 Q417.9501,1146.9269 418.5438,1146.6613 Q419.1376,1146.38 419.7626,1145.8019 L419.7626,1148.5206 Z " fill="#000000"/><text fill="#000000" font-family="sans-serif" font-size="14" lengthAdjust="spacing" textLength="107.3994" x="437.2938" y="1147.7267">RefundRequest</text><line style="stroke:#181818;stroke-width:0.5;" x1="361.37" x2="588.1171" y1="1158.88" y2="1158.88"/><ellipse cx="371.37" cy="1172.5284" fill="none" rx="3" ry="3" style="stroke:#038048;stroke-width:1.0;"/><text fill="#000000" font-family="sans-serif" font-size="14" lengthAdjust="spacing" textLength="90.8018" x="380.37" y="1175.8751">ticket: Ticket</text><ellipse cx="371.37" cy="1188.8253" fill="none" rx="3" ry="3" style="stroke:#038048;stroke-width:1.0;"/><text fill="#000000" font-family="sans-serif" font-size="14" lengthAdjust="spacing" textLength="202.7471" x="380.37" y="1192.172">request_date: DateTimeField</text><ellipse cx="371.37" cy="1205.1222" fill="none" rx="3" ry="3" style="stroke:#038048;stroke-width:1.0;"/><text fill="#000000" font-family="sans-serif" font-size="14" lengthAdjust="spacing" textLength="118.501" x="380.37" y="1208.4689">status: CharField</text><ellipse cx="371.37" cy="1221.4191" fill="none" rx="3" ry="3" style="stroke:#038048;stroke-width:1.0;"/><text fill="#000000" font-family="sans-serif" font-size="14" lengthAdjust="spacing" textLength="200.9355" x="380.37" y="1224.7657">credit_amount: DecimalField</text><line style="stroke:#181818;stroke-width:0.5;" x1="361.37" x2="588.1171" y1="1232.0675" y2="1232.0675"/></g><!--class Cart--><g id="elem_Cart"><rect codeLine="57" fill="#F1F1F1" height="129.4844" id="Cart" rx="2.5" ry="2.5" style="stroke:#181818;stroke-width:0.5;" width="251.2031" x="618.14" y="425.64"/><ellipse cx="724.6918" cy="441.64" fill="#ADD1B2" rx="11" ry="11" style="stroke:#181818;stroke-width:1.0;"/><path d="M727.6605,447.2806 Q727.0824,447.5775 726.4418,447.7181 Q725.8011,447.8744 725.098,447.8744 Q722.598,447.8744 721.2699,446.2338 Q719.9574,444.5775 719.9574,441.4525 Q719.9574,438.3275 721.2699,436.6713 Q722.598,435.015 725.098,435.015 Q725.8011,435.015 726.4418,435.1713 Q727.098,435.3275 727.6605,435.6244 L727.6605,438.3431 Q727.0355,437.765 726.4418,437.4994 Q725.848,437.2181 725.223,437.2181 Q723.8793,437.2181 723.1918,438.2963 Q722.5043,439.3588 722.5043,441.4525 Q722.5043,443.5463 723.1918,444.6244 Q723.8793,445.6869 725.223,445.6869 Q725.848,445.6869 726.4418,445.4213 Q727.0355,445.14 727.6605,444.5619 L727.6605,447.2806 Z " fill="#000000"/><text fill="#000000" font-family="sans-serif" font-size="14" lengthAdjust="spacing" textLength="29.5996" x="745.1918" y="446.4867">Cart</text><line style="stroke:#181818;stroke-width:0.5;" x1="619.14" x2="868.3431" y1="457.64" y2="457.64"/><ellipse cx="629.14" cy="471.2884" fill="none" rx="3" ry="3" style="stroke:#038048;stroke-width:1.0;"/><text fill="#000000" font-family="sans-serif" font-size="14" lengthAdjust="spacing" textLength="71.6133" x="638.14" y="474.6351">user: User</text><ellipse cx="629.14" cy="487.5853" fill="none" rx="3" ry="3" style="stroke:#038048;stroke-width:1.0;"/><text fill="#000000" font-family="sans-serif" font-size="14" lengthAdjust="spacing" textLength="185.3564" x="638.14" y="490.932">created_at: DateTimeField</text><ellipse cx="629.14" cy="503.8822" fill="none" rx="3" ry="3" style="stroke:#038048;stroke-width:1.0;"/><text fill="#000000" font-family="sans-serif" font-size="14" lengthAdjust="spacing" textLength="189.9365" x="638.14" y="507.2289">updated_at: DateTimeField</text><line style="stroke:#181818;stroke-width:0.5;" x1="619.14" x2="868.3431" y1="514.5306" y2="514.5306"/><ellipse cx="629.14" cy="528.1791" fill="#84BE84" rx="3" ry="3" style="stroke:#038048;stroke-width:1.0;"/><text fill="#000000" font-family="sans-serif" font-size="14" lengthAdjust="spacing" textLength="225.2031" x="638.14" y="531.5257">items: ManyToManyField(Event)</text><ellipse cx="629.14" cy="544.4759" fill="#84BE84" rx="3" ry="3" style="stroke:#038048;stroke-width:1.0;"/><text fill="#000000" font-family="sans-serif" font-size="14" lengthAdjust="spacing" textLength="184.3652" x="638.14" y="547.8226">total_price(): DecimalField</text></g><!--class Views--><g id="elem_Views"><rect codeLine="65" fill="#F1F1F1" height="357.6406" id="Views" rx="2.5" ry="2.5" style="stroke:#181818;stroke-width:0.5;" width="447.0254" x="618.23" y="7"/><ellipse cx="817.0806" cy="23" fill="#ADD1B2" rx="11" ry="11" style="stroke:#181818;stroke-width:1.0;"/><path d="M820.0493,28.6406 Q819.4712,28.9375 818.8306,29.0781 Q818.19,29.2344 817.4868,29.2344 Q814.9868,29.2344 813.6587,27.5938 Q812.3462,25.9375 812.3462,22.8125 Q812.3462,19.6875 813.6587,18.0313 Q814.9868,16.375 817.4868,16.375 Q818.19,16.375 818.8306,16.5313 Q819.4868,16.6875 820.0493,16.9844 L820.0493,19.7031 Q819.4243,19.125 818.8306,18.8594 Q818.2368,18.5781 817.6118,18.5781 Q816.2681,18.5781 815.5806,19.6563 Q814.8931,20.7188 814.8931,22.8125 Q814.8931,24.9063 815.5806,25.9844 Q816.2681,27.0469 817.6118,27.0469 Q818.2368,27.0469 818.8306,26.7813 Q819.4243,26.5 820.0493,25.9219 L820.0493,28.6406 Z " fill="#000000"/><text fill="#000000" font-family="sans-serif" font-size="14" lengthAdjust="spacing" textLength="40.8242" x="837.5806" y="27.8467">Views</text><line style="stroke:#181818;stroke-width:0.5;" x1="619.23" x2="1064.2554" y1="39" y2="39"/><line style="stroke:#181818;stroke-width:0.5;" x1="619.23" x2="1064.2554" y1="47" y2="47"/><ellipse cx="629.23" cy="60.6484" fill="#84BE84" rx="3" ry="3" style="stroke:#038048;stroke-width:1.0;"/><text fill="#000000" font-family="sans-serif" font-size="14" lengthAdjust="spacing" textLength="210.4238" x="638.23" y="63.9951">index(request): HttpResponse</text><ellipse cx="629.23" cy="76.9453" fill="#84BE84" rx="3" ry="3" style="stroke:#038048;stroke-width:1.0;"/><text fill="#000000" font-family="sans-serif" font-size="14" lengthAdjust="spacing" textLength="211.5654" x="638.23" y="80.292">home(request): HttpResponse</text><ellipse cx="629.23" cy="93.2422" fill="#84BE84" rx="3" ry="3" style="stroke:#038048;stroke-width:1.0;"/><text fill="#000000" font-family="sans-serif" font-size="14" lengthAdjust="spacing" textLength="263.498" x="638.23" y="96.5889">create_event(request): HttpResponse</text><ellipse cx="629.23" cy="109.5391" fill="#84BE84" rx="3" ry="3" style="stroke:#038048;stroke-width:1.0;"/><text fill="#000000" font-family="sans-serif" font-size="14" lengthAdjust="spacing" textLength="262.9102" x="638.23" y="112.8857">create_ticket(request): HttpResponse</text><ellipse cx="629.23" cy="125.8359" fill="#84BE84" rx="3" ry="3" style="stroke:#038048;stroke-width:1.0;"/><text fill="#000000" font-family="sans-serif" font-size="14" lengthAdjust="spacing" textLength="333.9424" x="638.23" y="129.1826">event_details(request, event_id): HttpResponse</text><ellipse cx="629.23" cy="142.1328" fill="#84BE84" rx="3" ry="3" style="stroke:#038048;stroke-width:1.0;"/><text fill="#000000" font-family="sans-serif" font-size="14" lengthAdjust="spacing" textLength="330.0801" x="638.23" y="145.4795">create_refund_request(request): HttpResponse</text><ellipse cx="629.23" cy="158.4297" fill="#84BE84" rx="3" ry="3" style="stroke:#038048;stroke-width:1.0;"/><text fill="#000000" font-family="sans-serif" font-size="14" lengthAdjust="spacing" textLength="218.5791" x="638.23" y="161.7764">signup(request): HttpResponse</text><ellipse cx="629.23" cy="174.7266" fill="#84BE84" rx="3" ry="3" style="stroke:#038048;stroke-width:1.0;"/><text fill="#000000" font-family="sans-serif" font-size="14" lengthAdjust="spacing" textLength="245.2188" x="638.23" y="178.0732">login_view(request): HttpResponse</text><ellipse cx="629.23" cy="191.0234" fill="#84BE84" rx="3" ry="3" style="stroke:#038048;stroke-width:1.0;"/><text fill="#000000" font-family="sans-serif" font-size="14" lengthAdjust="spacing" textLength="323.3398" x="638.23" y="194.3701">update_profile_image(request): HttpResponse</text><ellipse cx="629.23" cy="207.3203" fill="#84BE84" rx="3" ry="3" style="stroke:#038048;stroke-width:1.0;"/><text fill="#000000" font-family="sans-serif" font-size="14" lengthAdjust="spacing" textLength="255.3838" x="638.23" y="210.667">logout_view(request): HttpResponse</text><ellipse cx="629.23" cy="223.6172" fill="#84BE84" rx="3" ry="3" style="stroke:#038048;stroke-width:1.0;"/><text fill="#000000" font-family="sans-serif" font-size="14" lengthAdjust="spacing" textLength="285.9883" x="638.23" y="226.9639">create_payment(request): HttpResponse</text><ellipse cx="629.23" cy="239.9141" fill="#84BE84" rx="3" ry="3" style="stroke:#038048;stroke-width:1.0;"/><text fill="#000000" font-family="sans-serif" font-size="14" lengthAdjust="spacing" textLength="351.2168" x="638.23" y="243.2607">checkout_event(request, event_id): HttpResponse</text><ellipse cx="629.23" cy="256.2109" fill="#84BE84" rx="3" ry="3" style="stroke:#038048;stroke-width:1.0;"/><text fill="#000000" font-family="sans-serif" font-size="14" lengthAdjust="spacing" textLength="421.0254" x="638.23" y="259.5576">payment_confirmation(request, payment_id): HttpResponse</text><ellipse cx="629.23" cy="272.5078" fill="#84BE84" rx="3" ry="3" style="stroke:#038048;stroke-width:1.0;"/><text fill="#000000" font-family="sans-serif" font-size="14" lengthAdjust="spacing" textLength="273.7109" x="638.23" y="275.8545">checkout_card(request): HttpResponse</text><ellipse cx="629.23" cy="288.8047" fill="#84BE84" rx="3" ry="3" style="stroke:#038048;stroke-width:1.0;"/><text fill="#000000" font-family="sans-serif" font-size="14" lengthAdjust="spacing" textLength="227.6504" x="638.23" y="292.1514">booking(request): HttpResponse</text><ellipse cx="629.23" cy="305.1016" fill="#84BE84" rx="3" ry="3" style="stroke:#038048;stroke-width:1.0;"/><text fill="#000000" font-family="sans-serif" font-size="14" lengthAdjust="spacing" textLength="322.3555" x="638.23" y="308.4482">add_to_cart(request, event_id): HttpResponse</text><ellipse cx="629.23" cy="321.3984" fill="#84BE84" rx="3" ry="3" style="stroke:#038048;stroke-width:1.0;"/><text fill="#000000" font-family="sans-serif" font-size="14" lengthAdjust="spacing" textLength="358.9414" x="638.23" y="324.7451">delete_from_cart(request, event_id): HttpResponse</text><ellipse cx="629.23" cy="337.6953" fill="#84BE84" rx="3" ry="3" style="stroke:#038048;stroke-width:1.0;"/><text fill="#000000" font-family="sans-serif" font-size="14" lengthAdjust="spacing" textLength="238.6357" x="638.23" y="341.042">view_cart(request): HttpResponse</text><ellipse cx="629.23" cy="353.9922" fill="#84BE84" rx="3" ry="3" style="stroke:#038048;stroke-width:1.0;"/><text fill="#000000" font-family="sans-serif" font-size="14" lengthAdjust="spacing" textLength="331.4063" x="638.23" y="357.3389">delete_event(request, event_id): HttpResponse</text></g><!--link User to PublisherProfile--><g id="link_User_PublisherProfile"><path codeLine="87" d="M404.45,250.99 C333.93,311.1 230.75,399.03 171.42,449.6 " fill="none" id="User-PublisherProfile" style="stroke:#181818;stroke-width:1.0;"/><text fill="#000000" font-family="sans-serif" font-size="13" lengthAdjust="spacing" textLength="8.271" x="388.2872" y="270.5576">1</text><text fill="#000000" font-family="sans-serif" font-size="13" lengthAdjust="spacing" textLength="8.271" x="170.2437" y="438.9818">1</text></g><!--link User to SiteAdminProfile--><g id="link_User_SiteAdminProfile"><path codeLine="88" d="M461.71,250.99 C444.8,311.18 420.05,399.29 405.86,449.82 " fill="none" id="User-SiteAdminProfile" style="stroke:#181818;stroke-width:1.0;"/><text fill="#000000" font-family="sans-serif" font-size="13" lengthAdjust="spacing" textLength="8.271" x="451.4521" y="270.5576">1</text><text fill="#000000" font-family="sans-serif" font-size="13" lengthAdjust="spacing" textLength="8.271" x="399.0619" y="438.9368">1</text></g><!--link User to Ticket--><g id="link_User_Ticket"><path codeLine="89" d="M495.71,251.02 C506.99,298.86 521.51,365.95 529.74,425.64 C551.51,583.61 559.91,770.65 563.02,871.04 " fill="none" id="User-Ticket" style="stroke:#181818;stroke-width:1.0;"/><text fill="#000000" font-family="sans-serif" font-size="13" lengthAdjust="spacing" textLength="8.271" x="488.9584" y="270.5907">1</text><text fill="#000000" font-family="sans-serif" font-size="13" lengthAdjust="spacing" textLength="23.0356" x="538.762" y="860.4071">0..*</text></g><!--link User to Cart--><g id="link_User_Cart"><path codeLine="90" d="M517.77,251.01 C539.96,286.16 569.65,329.58 600.74,364.64 C619.54,385.84 641.85,406.88 663.18,425.46 " fill="none" id="User-Cart" style="stroke:#181818;stroke-width:1.0;"/><text fill="#000000" font-family="sans-serif" font-size="13" lengthAdjust="spacing" textLength="8.271" x="513.2933" y="270.5797">1</text><text fill="#000000" font-family="sans-serif" font-size="13" lengthAdjust="spacing" textLength="8.271" x="645.9459" y="414.613">1</text></g><!--link Event to Ticket--><g id="link_Event_Ticket"><path codeLine="91" d="M673.76,810.96 C657.35,830.9 640.11,851.84 624.32,871.02 " fill="none" id="Event-Ticket" style="stroke:#181818;stroke-width:1.0;"/><text fill="#000000" font-family="sans-serif" font-size="13" lengthAdjust="spacing" textLength="8.271" x="659.8769" y="830.4695">1</text><text fill="#000000" font-family="sans-serif" font-size="13" lengthAdjust="spacing" textLength="23.0356" x="605.9046" y="860.3852">0..*</text></g><!--link Event to Cart--><g id="link_Event_Cart"><path codeLine="92" d="M681.59,631.64 C676.81,622.03 672.7,612.11 669.74,602.13 C664.93,585.95 668.89,569.99 676.99,555.44 " fill="none" id="Event-Cart" style="stroke:#181818;stroke-width:1.0;"/><text fill="#000000" font-family="sans-serif" font-size="13" lengthAdjust="spacing" textLength="36.1436" x="670.74" y="598.1969">items</text><text fill="#000000" font-family="sans-serif" font-size="13" lengthAdjust="spacing" textLength="8.271" x="668.0908" y="620.9684">1</text><text fill="#000000" font-family="sans-serif" font-size="13" lengthAdjust="spacing" textLength="23.0356" x="645.9221" y="574.9963">0..*</text></g><!--link Cart to Event--><g id="link_Cart_Event"><path codeLine="95" d="M744.58,555.46 C744.89,579.14 745.25,606.41 745.58,631.87 " fill="none" id="Cart-Event" style="stroke:#181818;stroke-width:1.0;"/><text fill="#000000" font-family="sans-serif" font-size="13" lengthAdjust="spacing" textLength="36.1436" x="745.74" y="598.1969">items</text><text fill="#000000" font-family="sans-serif" font-size="13" lengthAdjust="spacing" textLength="8.271" x="736.2679" y="575.0183">1</text><text fill="#000000" font-family="sans-serif" font-size="13" lengthAdjust="spacing" textLength="23.0356" x="721.5334" y="620.9139">0..*</text></g><!--link Ticket to Payment--><g id="link_Ticket_Payment"><path codeLine="93" d="M622.52,1017.49 C641.84,1041.6 663.61,1068.76 683.82,1093.98 " fill="none" id="Ticket-Payment" style="stroke:#181818;stroke-width:1.0;"/><text fill="#000000" font-family="sans-serif" font-size="13" lengthAdjust="spacing" textLength="43.2529" x="660.74" y="1060.3469">tickets</text><text fill="#000000" font-family="sans-serif" font-size="13" lengthAdjust="spacing" textLength="8.271" x="619.6591" y="1037.2454">1</text><text fill="#000000" font-family="sans-serif" font-size="13" lengthAdjust="spacing" textLength="23.0356" x="654.2535" y="1083.3235">0..*</text></g><!--link Ticket to RefundRequest--><g id="link_Ticket_RefundRequest"><path codeLine="94" d="M537.37,1017.49 C524.08,1052.5 508.35,1093.93 495.98,1126.52 " fill="none" id="Ticket-RefundRequest" style="stroke:#181818;stroke-width:1.0;"/><text fill="#000000" font-family="sans-serif" font-size="13" lengthAdjust="spacing" textLength="8.271" x="526.3933" y="1037.2454">1</text><text fill="#000000" font-family="sans-serif" font-size="13" lengthAdjust="spacing" textLength="23.0356" x="474.1688" y="1115.7397">0..*</text></g><!--link Event to Payment--><g id="link_Event_Payment"><path codeLine="96" d="M748.28,810.77 C749.69,892.22 751.78,1012.43 753.2,1093.92 " fill="none" id="Event-Payment" style="stroke:#181818;stroke-width:1.0;"/><text fill="#000000" font-family="sans-serif" font-size="13" lengthAdjust="spacing" textLength="43.2529" x="752.74" y="948.9569">tickets</text><text fill="#000000" font-family="sans-serif" font-size="13" lengthAdjust="spacing" textLength="8.271" x="740.0951" y="830.5681">1</text><text fill="#000000" font-family="sans-serif" font-size="13" lengthAdjust="spacing" textLength="23.0356" x="729.1622" y="1083.2587">0..*</text></g><!--SRC=[bLPDRzim3BtdLnWzDTjQR5VVjgx3UXWGPDckXYen2L5RSYKwQpVilq-VJkmeJkQ33OZau-EZA9dNp9ZYXm5T_9aLzdbRGCEmBejxz_c2K8kuhbKDPN6tPVfmjTLgZJLKsB2DDJ-upw4TJTLsZpMQBUZhULayAbNlJKmqAFlblxCPztmMAM8Hq7jkdILQUhfnGUaDa_YR4IfPITOC6FPutv7Weqjr5iyJgbhG3HfZCKrPhE25HdZtEv3KWn1IJXa1Xcji7RD3a5Zx2Ra48xlysRuFLmbTOIlxFboj5MS1_RWfo1qCS9jdq4IsirrbZxPXXFm9oDRt80asC9PivStxJU4gBaFXfxHxxfYqMhoMnK8P9Dp103fIwpJVCWFLlj9nNNPVQ5XtKe0eYqzsOm2JMOXGWji-EuK7t1VijHasA9RwZSdNbN9lZtSTYfmdt10smOmrgdCoP8HDmGtGLebCIwBT4AFE7Dj9CsaOz_iOC_6aYDKdcjPF8WTZnoraEfPbwKLTmdC7PYnE6HkUPZquJKXngWwkGI1LMQLw9dTCq-aPjCFQP9hbzzvydyQI4XMZFBsk5PFs8AUV4oTKdkPFX5-cvubsGxvSHsLip5UYTWccjOS4H9UjQc3Q8_2k_3XTv1dt-AIhHwi4a9rjarpVnMKKa_XXqgeOD9t7u4PsxRHFhJRs0DrPvQRzGeEgmVLn5bbrT05qh2pDmRJl5lYJWnrqv9nsQPYvaclKZJ-5zx79UbBvb9CpBQRfsMln2ULcsea9KP5oQ1SN8A06Az5Qg-Q_ufpuWu19-0irjVFcVq2kFbmLDpV-C_u1E78Ot-X3X_Utjs-kqeas3dM7popSu5d_dCaVM6KucMRnQXnwf3kdJBTDtcrm1iyyxD0XP4-fSboEClq3]--></g></svg>