<svg xmlns="http://www.w3.org/2000/svg" xmlns:xlink="http://www.w3.org/1999/xlink" contentStyleType="text/css" height="1502px" preserveAspectRatio="none" style="width:1501px;height:1502px;background:#FFFFFF;" version="1.1" viewBox="0 0 1501 1502" width="1501px" zoomAndPan="magnify"><defs/><g><!--class User--><g id="elem_User"><rect codeLine="1" fill="#F1F1F1" height="129.4844" id="User" rx="2.5" ry="2.5" style="stroke:#181818;stroke-width:0.5;" width="207.4805" x="728.26" y="441.64"/><ellipse cx="811.7952" cy="457.64" fill="#ADD1B2" rx="11" ry="11" style="stroke:#181818;stroke-width:1.0;"/><path d="M814.7639,463.2806 Q814.1858,463.5775 813.5452,463.7181 Q812.9045,463.8744 812.2014,463.8744 Q809.7014,463.8744 808.3733,462.2338 Q807.0608,460.5775 807.0608,457.4525 Q807.0608,454.3275 808.3733,452.6713 Q809.7014,451.015 812.2014,451.015 Q812.9045,451.015 813.5452,451.1713 Q814.2014,451.3275 814.7639,451.6244 L814.7639,454.3431 Q814.1389,453.765 813.5452,453.4994 Q812.9514,453.2181 812.3264,453.2181 Q810.9827,453.2181 810.2952,454.2963 Q809.6077,455.3588 809.6077,457.4525 Q809.6077,459.5463 810.2952,460.6244 Q810.9827,461.6869 812.3264,461.6869 Q812.9514,461.6869 813.5452,461.4213 Q814.1389,461.14 814.7639,460.5619 L814.7639,463.2806 Z " fill="#000000"/><text fill="#000000" font-family="sans-serif" font-size="14" lengthAdjust="spacing" textLength="31.9102" x="832.2952" y="462.4867">User</text><line style="stroke:#181818;stroke-width:0.5;" x1="729.26" x2="934.7405" y1="473.64" y2="473.64"/><ellipse cx="739.26" cy="487.2884" fill="none" rx="3" ry="3" style="stroke:#038048;stroke-width:1.0;"/><text fill="#000000" font-family="sans-serif" font-size="14" lengthAdjust="spacing" textLength="119.9502" x="748.26" y="490.6351">email: EmailField</text><ellipse cx="739.26" cy="503.5853" fill="none" rx="3" ry="3" style="stroke:#038048;stroke-width:1.0;"/><text fill="#000000" font-family="sans-serif" font-size="14" lengthAdjust="spacing" textLength="102.3066" x="748.26" y="506.932">role: CharField</text><ellipse cx="739.26" cy="519.8822" fill="none" rx="3" ry="3" style="stroke:#038048;stroke-width:1.0;"/><text fill="#000000" font-family="sans-serif" font-size="14" lengthAdjust="spacing" textLength="181.4805" x="748.26" y="523.2289">profile_image: ImageField</text><line style="stroke:#181818;stroke-width:0.5;" x1="729.26" x2="934.7405" y1="530.5306" y2="530.5306"/><ellipse cx="739.26" cy="544.1791" fill="#84BE84" rx="3" ry="3" style="stroke:#038048;stroke-width:1.0;"/><text fill="#000000" font-family="sans-serif" font-size="14" lengthAdjust="spacing" textLength="133.1436" x="748.26" y="547.5257">is_publisher(): bool</text><ellipse cx="739.26" cy="560.4759" fill="#84BE84" rx="3" ry="3" style="stroke:#038048;stroke-width:1.0;"/><text fill="#000000" font-family="sans-serif" font-size="14" lengthAdjust="spacing" textLength="112.0479" x="748.26" y="563.8226">is_admin(): bool</text></g><!--class PublisherProfile--><g id="elem_PublisherProfile"><rect codeLine="9" fill="#F1F1F1" height="80.5938" id="PublisherProfile" rx="2.5" ry="2.5" style="stroke:#181818;stroke-width:0.5;" width="235.4805" x="770.26" y="672.57"/><ellipse cx="829.449" cy="688.57" fill="#ADD1B2" rx="11" ry="11" style="stroke:#181818;stroke-width:1.0;"/><path d="M832.4177,694.2106 Q831.8396,694.5075 831.199,694.6481 Q830.5583,694.8044 829.8552,694.8044 Q827.3552,694.8044 826.0271,693.1638 Q824.7146,691.5075 824.7146,688.3825 Q824.7146,685.2575 826.0271,683.6013 Q827.3552,681.945 829.8552,681.945 Q830.5583,681.945 831.199,682.1013 Q831.8552,682.2575 832.4177,682.5544 L832.4177,685.2731 Q831.7927,684.695 831.199,684.4294 Q830.6052,684.1481 829.9802,684.1481 Q828.6365,684.1481 827.949,685.2263 Q827.2615,686.2888 827.2615,688.3825 Q827.2615,690.4763 827.949,691.5544 Q828.6365,692.6169 829.9802,692.6169 Q830.6052,692.6169 831.199,692.3513 Q831.7927,692.07 832.4177,691.4919 L832.4177,694.2106 Z " fill="#000000"/><text fill="#000000" font-family="sans-serif" font-size="14" lengthAdjust="spacing" textLength="108.6025" x="849.949" y="693.4167">PublisherProfile</text><line style="stroke:#181818;stroke-width:0.5;" x1="771.26" x2="1004.7405" y1="704.57" y2="704.57"/><ellipse cx="781.26" cy="718.2184" fill="none" rx="3" ry="3" style="stroke:#038048;stroke-width:1.0;"/><text fill="#000000" font-family="sans-serif" font-size="14" lengthAdjust="spacing" textLength="71.6133" x="790.26" y="721.5651">user: User</text><ellipse cx="781.26" cy="734.5153" fill="none" rx="3" ry="3" style="stroke:#038048;stroke-width:1.0;"/><text fill="#000000" font-family="sans-serif" font-size="14" lengthAdjust="spacing" textLength="209.4805" x="790.26" y="737.862">organization_name: CharField</text><line style="stroke:#181818;stroke-width:0.5;" x1="771.26" x2="1004.7405" y1="745.1638" y2="745.1638"/></g><!--class SiteAdminProfile--><g id="elem_SiteAdminProfile"><rect codeLine="14" fill="#F1F1F1" height="80.5938" id="SiteAdminProfile" rx="2.5" ry="2.5" style="stroke:#181818;stroke-width:0.5;" width="234.2979" x="500.85" y="672.57"/><ellipse cx="555.8349" cy="688.57" fill="#ADD1B2" rx="11" ry="11" style="stroke:#181818;stroke-width:1.0;"/><path d="M558.8036,694.2106 Q558.2255,694.5075 557.5849,694.6481 Q556.9442,694.8044 556.2411,694.8044 Q553.7411,694.8044 552.413,693.1638 Q551.1005,691.5075 551.1005,688.3825 Q551.1005,685.2575 552.413,683.6013 Q553.7411,681.945 556.2411,681.945 Q556.9442,681.945 557.5849,682.1013 Q558.2411,682.2575 558.8036,682.5544 L558.8036,685.2731 Q558.1786,684.695 557.5849,684.4294 Q556.9911,684.1481 556.3661,684.1481 Q555.0224,684.1481 554.3349,685.2263 Q553.6474,686.2888 553.6474,688.3825 Q553.6474,690.4763 554.3349,691.5544 Q555.0224,692.6169 556.3661,692.6169 Q556.9911,692.6169 557.5849,692.3513 Q558.1786,692.07 558.8036,691.4919 L558.8036,694.2106 Z " fill="#000000"/><text fill="#000000" font-family="sans-serif" font-size="14" lengthAdjust="spacing" textLength="115.8281" x="576.3349" y="693.4167">SiteAdminProfile</text><line style="stroke:#181818;stroke-width:0.5;" x1="501.85" x2="734.1479" y1="704.57" y2="704.57"/><ellipse cx="511.85" cy="718.2184" fill="none" rx="3" ry="3" style="stroke:#038048;stroke-width:1.0;"/><text fill="#000000" font-family="sans-serif" font-size="14" lengthAdjust="spacing" textLength="71.6133" x="520.85" y="721.5651">user: User</text><ellipse cx="511.85" cy="734.5153" fill="none" rx="3" ry="3" style="stroke:#038048;stroke-width:1.0;"/><text fill="#000000" font-family="sans-serif" font-size="14" lengthAdjust="spacing" textLength="208.2979" x="520.85" y="737.862">admin_permissions: TextField</text><line style="stroke:#181818;stroke-width:0.5;" x1="501.85" x2="734.1479" y1="745.1638" y2="745.1638"/></g><!--class Event--><g id="elem_Event"><rect codeLine="19" fill="#F1F1F1" height="178.375" id="Event" rx="2.5" ry="2.5" style="stroke:#181818;stroke-width:0.5;" width="235.6309" x="300.18" y="854.61"/><ellipse cx="393.6922" cy="870.61" fill="#ADD1B2" rx="11" ry="11" style="stroke:#181818;stroke-width:1.0;"/><path d="M396.661,876.2506 Q396.0828,876.5475 395.4422,876.6881 Q394.8016,876.8444 394.0985,876.8444 Q391.5985,876.8444 390.2703,875.2038 Q388.9578,873.5475 388.9578,870.4225 Q388.9578,867.2975 390.2703,865.6413 Q391.5985,863.985 394.0985,863.985 Q394.8016,863.985 395.4422,864.1413 Q396.0985,864.2975 396.661,864.5944 L396.661,867.3131 Q396.036,866.735 395.4422,866.4694 Q394.8485,866.1881 394.2235,866.1881 Q392.8797,866.1881 392.1922,867.2663 Q391.5047,868.3288 391.5047,870.4225 Q391.5047,872.5163 392.1922,873.5944 Q392.8797,874.6569 394.2235,874.6569 Q394.8485,874.6569 395.4422,874.3913 Q396.036,874.11 396.661,873.5319 L396.661,876.2506 Z " fill="#000000"/><text fill="#000000" font-family="sans-serif" font-size="14" lengthAdjust="spacing" textLength="40.1064" x="414.1922" y="875.4567">Event</text><line style="stroke:#181818;stroke-width:0.5;" x1="301.18" x2="534.8109" y1="886.61" y2="886.61"/><ellipse cx="311.18" cy="900.2584" fill="none" rx="3" ry="3" style="stroke:#038048;stroke-width:1.0;"/><text fill="#000000" font-family="sans-serif" font-size="14" lengthAdjust="spacing" textLength="102.8535" x="320.18" y="903.6051">title: CharField</text><ellipse cx="311.18" cy="916.5553" fill="none" rx="3" ry="3" style="stroke:#038048;stroke-width:1.0;"/><text fill="#000000" font-family="sans-serif" font-size="14" lengthAdjust="spacing" textLength="151.2793" x="320.18" y="919.902">description: TextField</text><ellipse cx="311.18" cy="932.8522" fill="none" rx="3" ry="3" style="stroke:#038048;stroke-width:1.0;"/><text fill="#000000" font-family="sans-serif" font-size="14" lengthAdjust="spacing" textLength="129.9512" x="320.18" y="936.1989">image: ImageField</text><ellipse cx="311.18" cy="949.1491" fill="none" rx="3" ry="3" style="stroke:#038048;stroke-width:1.0;"/><text fill="#000000" font-family="sans-serif" font-size="14" lengthAdjust="spacing" textLength="107.5293" x="320.18" y="952.4957">date: DateField</text><ellipse cx="311.18" cy="965.4459" fill="none" rx="3" ry="3" style="stroke:#038048;stroke-width:1.0;"/><text fill="#000000" font-family="sans-serif" font-size="14" lengthAdjust="spacing" textLength="108.8213" x="320.18" y="968.7926">time: TimeField</text><ellipse cx="311.18" cy="981.7428" fill="none" rx="3" ry="3" style="stroke:#038048;stroke-width:1.0;"/><text fill="#000000" font-family="sans-serif" font-size="14" lengthAdjust="spacing" textLength="131.0313" x="320.18" y="985.0895">location: CharField</text><ellipse cx="311.18" cy="998.0397" fill="none" rx="3" ry="3" style="stroke:#038048;stroke-width:1.0;"/><text fill="#000000" font-family="sans-serif" font-size="14" lengthAdjust="spacing" textLength="134.4287" x="320.18" y="1001.3864">price: DecimalField</text><ellipse cx="311.18" cy="1014.3366" fill="none" rx="3" ry="3" style="stroke:#038048;stroke-width:1.0;"/><text fill="#000000" font-family="sans-serif" font-size="14" lengthAdjust="spacing" textLength="209.6309" x="320.18" y="1017.6832">available_tickets: IntegerField</text><line style="stroke:#181818;stroke-width:0.5;" x1="301.18" x2="534.8109" y1="1024.985" y2="1024.985"/></g><!--class Ticket--><g id="elem_Ticket"><rect codeLine="30" fill="#F1F1F1" height="145.7813" id="Ticket" rx="2.5" ry="2.5" style="stroke:#181818;stroke-width:0.5;" width="239.7939" x="939.1" y="1093.98"/><ellipse cx="1033.5727" cy="1109.98" fill="#ADD1B2" rx="11" ry="11" style="stroke:#181818;stroke-width:1.0;"/><path d="M1036.5414,1115.6206 Q1035.9633,1115.9175 1035.3227,1116.0581 Q1034.682,1116.2144 1033.9789,1116.2144 Q1031.4789,1116.2144 1030.1508,1114.5738 Q1028.8383,1112.9175 1028.8383,1109.7925 Q1028.8383,1106.6675 1030.1508,1105.0113 Q1031.4789,1103.355 1033.9789,1103.355 Q1034.682,1103.355 1035.3227,1103.5113 Q1035.9789,1103.6675 1036.5414,1103.9644 L1036.5414,1106.6831 Q1035.9164,1106.105 1035.3227,1105.8394 Q1034.7289,1105.5581 1034.1039,1105.5581 Q1032.7602,1105.5581 1032.0727,1106.6363 Q1031.3852,1107.6988 1031.3852,1109.7925 Q1031.3852,1111.8863 1032.0727,1112.9644 Q1032.7602,1114.0269 1034.1039,1114.0269 Q1034.7289,1114.0269 1035.3227,1113.7613 Q1035.9164,1113.48 1036.5414,1112.9019 L1036.5414,1115.6206 Z " fill="#000000"/><text fill="#000000" font-family="sans-serif" font-size="14" lengthAdjust="spacing" textLength="42.3486" x="1054.0727" y="1114.8267">Ticket</text><line style="stroke:#181818;stroke-width:0.5;" x1="940.1" x2="1177.8939" y1="1125.98" y2="1125.98"/><ellipse cx="950.1" cy="1139.6284" fill="none" rx="3" ry="3" style="stroke:#038048;stroke-width:1.0;"/><text fill="#000000" font-family="sans-serif" font-size="14" lengthAdjust="spacing" textLength="89.1475" x="959.1" y="1142.9751">event: Event</text><ellipse cx="950.1" cy="1155.9253" fill="none" rx="3" ry="3" style="stroke:#038048;stroke-width:1.0;"/><text fill="#000000" font-family="sans-serif" font-size="14" lengthAdjust="spacing" textLength="71.6133" x="959.1" y="1159.272">user: User</text><ellipse cx="950.1" cy="1172.2222" fill="none" rx="3" ry="3" style="stroke:#038048;stroke-width:1.0;"/><text fill="#000000" font-family="sans-serif" font-size="14" lengthAdjust="spacing" textLength="205.6934" x="959.1" y="1175.5689">quantity: PositiveIntegerField</text><ellipse cx="950.1" cy="1188.5191" fill="none" rx="3" ry="3" style="stroke:#038048;stroke-width:1.0;"/><text fill="#000000" font-family="sans-serif" font-size="14" lengthAdjust="spacing" textLength="213.7939" x="959.1" y="1191.8657">purchase_date: DateTimeField</text><ellipse cx="950.1" cy="1204.8159" fill="none" rx="3" ry="3" style="stroke:#038048;stroke-width:1.0;"/><text fill="#000000" font-family="sans-serif" font-size="14" lengthAdjust="spacing" textLength="180.8037" x="959.1" y="1208.1626">is_refunded: BooleanField</text><line style="stroke:#181818;stroke-width:0.5;" x1="940.1" x2="1177.8939" y1="1215.4644" y2="1215.4644"/><ellipse cx="950.1" cy="1229.1128" fill="#84BE84" rx="3" ry="3" style="stroke:#038048;stroke-width:1.0;"/><text fill="#000000" font-family="sans-serif" font-size="14" lengthAdjust="spacing" textLength="160.5762" x="959.1" y="1232.4595">purchase_ticket(): void</text></g><!--class Payment--><g id="elem_Payment"><rect codeLine="39" fill="#F1F1F1" height="178.375" id="Payment" rx="2.5" ry="2.5" style="stroke:#181818;stroke-width:0.5;" width="261.1016" x="287.45" y="1316.76"/><ellipse cx="382.7908" cy="1332.76" fill="#ADD1B2" rx="11" ry="11" style="stroke:#181818;stroke-width:1.0;"/><path d="M385.7596,1338.4006 Q385.1814,1338.6975 384.5408,1338.8381 Q383.9002,1338.9944 383.1971,1338.9944 Q380.6971,1338.9944 379.3689,1337.3538 Q378.0564,1335.6975 378.0564,1332.5725 Q378.0564,1329.4475 379.3689,1327.7913 Q380.6971,1326.135 383.1971,1326.135 Q383.9002,1326.135 384.5408,1326.2913 Q385.1971,1326.4475 385.7596,1326.7444 L385.7596,1329.4631 Q385.1346,1328.885 384.5408,1328.6194 Q383.9471,1328.3381 383.3221,1328.3381 Q381.9783,1328.3381 381.2908,1329.4163 Q380.6033,1330.4788 380.6033,1332.5725 Q380.6033,1334.6663 381.2908,1335.7444 Q381.9783,1336.8069 383.3221,1336.8069 Q383.9471,1336.8069 384.5408,1336.5413 Q385.1346,1336.26 385.7596,1335.6819 L385.7596,1338.4006 Z " fill="#000000"/><text fill="#000000" font-family="sans-serif" font-size="14" lengthAdjust="spacing" textLength="61.9199" x="403.2908" y="1337.6067">Payment</text><line style="stroke:#181818;stroke-width:0.5;" x1="288.45" x2="547.5516" y1="1348.76" y2="1348.76"/><ellipse cx="298.45" cy="1362.4084" fill="none" rx="3" ry="3" style="stroke:#038048;stroke-width:1.0;"/><text fill="#000000" font-family="sans-serif" font-size="14" lengthAdjust="spacing" textLength="211.5859" x="307.45" y="1365.7551">payment_date: DateTimeField</text><ellipse cx="298.45" cy="1378.7053" fill="none" rx="3" ry="3" style="stroke:#038048;stroke-width:1.0;"/><text fill="#000000" font-family="sans-serif" font-size="14" lengthAdjust="spacing" textLength="153.6035" x="307.45" y="1382.052">amount: DecimalField</text><ellipse cx="298.45" cy="1395.0022" fill="none" rx="3" ry="3" style="stroke:#038048;stroke-width:1.0;"/><text fill="#000000" font-family="sans-serif" font-size="14" lengthAdjust="spacing" textLength="198.9121" x="307.45" y="1398.3489">payment_method: CharField</text><ellipse cx="298.45" cy="1411.2991" fill="none" rx="3" ry="3" style="stroke:#038048;stroke-width:1.0;"/><text fill="#000000" font-family="sans-serif" font-size="14" lengthAdjust="spacing" textLength="187.8652" x="307.45" y="1414.6457">payment_status: CharField</text><ellipse cx="298.45" cy="1427.5959" fill="none" rx="3" ry="3" style="stroke:#038048;stroke-width:1.0;"/><text fill="#000000" font-family="sans-serif" font-size="14" lengthAdjust="spacing" textLength="174.3438" x="307.45" y="1430.9426">transaction_id: CharField</text><ellipse cx="298.45" cy="1443.8928" fill="none" rx="3" ry="3" style="stroke:#038048;stroke-width:1.0;"/><text fill="#000000" font-family="sans-serif" font-size="14" lengthAdjust="spacing" textLength="178.4521" x="307.45" y="1447.2395">total_tickets: IntegerField</text><line style="stroke:#181818;stroke-width:0.5;" x1="288.45" x2="547.5516" y1="1454.5413" y2="1454.5413"/><ellipse cx="298.45" cy="1468.1897" fill="#84BE84" rx="3" ry="3" style="stroke:#038048;stroke-width:1.0;"/><text fill="#000000" font-family="sans-serif" font-size="14" lengthAdjust="spacing" textLength="235.1016" x="307.45" y="1471.5364">tickets: ManyToManyField(Ticket)</text><ellipse cx="298.45" cy="1484.4866" fill="#84BE84" rx="3" ry="3" style="stroke:#038048;stroke-width:1.0;"/><text fill="#000000" font-family="sans-serif" font-size="14" lengthAdjust="spacing" textLength="173.1885" x="307.45" y="1487.8332">process_payment(): void</text></g><!--class RefundRequest--><g id="elem_RefundRequest"><rect codeLine="50" fill="#F1F1F1" height="113.1875" id="RefundRequest" rx="2.5" ry="2.5" style="stroke:#181818;stroke-width:0.5;" width="228.7471" x="1149.63" y="1349.36"/><ellipse cx="1206.0538" cy="1365.36" fill="#ADD1B2" rx="11" ry="11" style="stroke:#181818;stroke-width:1.0;"/><path d="M1209.0226,1371.0006 Q1208.4445,1371.2975 1207.8038,1371.4381 Q1207.1632,1371.5944 1206.4601,1371.5944 Q1203.9601,1371.5944 1202.632,1369.9538 Q1201.3195,1368.2975 1201.3195,1365.1725 Q1201.3195,1362.0475 1202.632,1360.3913 Q1203.9601,1358.735 1206.4601,1358.735 Q1207.1632,1358.735 1207.8038,1358.8913 Q1208.4601,1359.0475 1209.0226,1359.3444 L1209.0226,1362.0631 Q1208.3976,1361.485 1207.8038,1361.2194 Q1207.2101,1360.9381 1206.5851,1360.9381 Q1205.2413,1360.9381 1204.5538,1362.0163 Q1203.8663,1363.0788 1203.8663,1365.1725 Q1203.8663,1367.2663 1204.5538,1368.3444 Q1205.2413,1369.4069 1206.5851,1369.4069 Q1207.2101,1369.4069 1207.8038,1369.1413 Q1208.3976,1368.86 1209.0226,1368.2819 L1209.0226,1371.0006 Z " fill="#000000"/><text fill="#000000" font-family="sans-serif" font-size="14" lengthAdjust="spacing" textLength="107.3994" x="1226.5538" y="1370.2067">RefundRequest</text><line style="stroke:#181818;stroke-width:0.5;" x1="1150.63" x2="1377.3771" y1="1381.36" y2="1381.36"/><ellipse cx="1160.63" cy="1395.0084" fill="none" rx="3" ry="3" style="stroke:#038048;stroke-width:1.0;"/><text fill="#000000" font-family="sans-serif" font-size="14" lengthAdjust="spacing" textLength="90.8018" x="1169.63" y="1398.3551">ticket: Ticket</text><ellipse cx="1160.63" cy="1411.3053" fill="none" rx="3" ry="3" style="stroke:#038048;stroke-width:1.0;"/><text fill="#000000" font-family="sans-serif" font-size="14" lengthAdjust="spacing" textLength="202.7471" x="1169.63" y="1414.652">request_date: DateTimeField</text><ellipse cx="1160.63" cy="1427.6022" fill="none" rx="3" ry="3" style="stroke:#038048;stroke-width:1.0;"/><text fill="#000000" font-family="sans-serif" font-size="14" lengthAdjust="spacing" textLength="118.501" x="1169.63" y="1430.9489">status: CharField</text><ellipse cx="1160.63" cy="1443.8991" fill="none" rx="3" ry="3" style="stroke:#038048;stroke-width:1.0;"/><text fill="#000000" font-family="sans-serif" font-size="14" lengthAdjust="spacing" textLength="200.9355" x="1169.63" y="1447.2457">credit_amount: DecimalField</text><line style="stroke:#181818;stroke-width:0.5;" x1="1150.63" x2="1377.3771" y1="1454.5475" y2="1454.5475"/></g><!--class Cart--><g id="elem_Cart"><rect codeLine="57" fill="#F1F1F1" height="129.4844" id="Cart" rx="2.5" ry="2.5" style="stroke:#181818;stroke-width:0.5;" width="251.2031" x="143.4" y="648.12"/><ellipse cx="249.9518" cy="664.12" fill="#ADD1B2" rx="11" ry="11" style="stroke:#181818;stroke-width:1.0;"/><path d="M252.9205,669.7606 Q252.3424,670.0575 251.7018,670.1981 Q251.0611,670.3544 250.358,670.3544 Q247.858,670.3544 246.5299,668.7138 Q245.2174,667.0575 245.2174,663.9325 Q245.2174,660.8075 246.5299,659.1513 Q247.858,657.495 250.358,657.495 Q251.0611,657.495 251.7018,657.6513 Q252.358,657.8075 252.9205,658.1044 L252.9205,660.8231 Q252.2955,660.245 251.7018,659.9794 Q251.108,659.6981 250.483,659.6981 Q249.1393,659.6981 248.4518,660.7763 Q247.7643,661.8388 247.7643,663.9325 Q247.7643,666.0263 248.4518,667.1044 Q249.1393,668.1669 250.483,668.1669 Q251.108,668.1669 251.7018,667.9013 Q252.2955,667.62 252.9205,667.0419 L252.9205,669.7606 Z " fill="#000000"/><text fill="#000000" font-family="sans-serif" font-size="14" lengthAdjust="spacing" textLength="29.5996" x="270.4518" y="668.9667">Cart</text><line style="stroke:#181818;stroke-width:0.5;" x1="144.4" x2="393.6031" y1="680.12" y2="680.12"/><ellipse cx="154.4" cy="693.7684" fill="none" rx="3" ry="3" style="stroke:#038048;stroke-width:1.0;"/><text fill="#000000" font-family="sans-serif" font-size="14" lengthAdjust="spacing" textLength="71.6133" x="163.4" y="697.1151">user: User</text><ellipse cx="154.4" cy="710.0653" fill="none" rx="3" ry="3" style="stroke:#038048;stroke-width:1.0;"/><text fill="#000000" font-family="sans-serif" font-size="14" lengthAdjust="spacing" textLength="185.3564" x="163.4" y="713.412">created_at: DateTimeField</text><ellipse cx="154.4" cy="726.3622" fill="none" rx="3" ry="3" style="stroke:#038048;stroke-width:1.0;"/><text fill="#000000" font-family="sans-serif" font-size="14" lengthAdjust="spacing" textLength="189.9365" x="163.4" y="729.7089">updated_at: DateTimeField</text><line style="stroke:#181818;stroke-width:0.5;" x1="144.4" x2="393.6031" y1="737.0106" y2="737.0106"/><ellipse cx="154.4" cy="750.6591" fill="#84BE84" rx="3" ry="3" style="stroke:#038048;stroke-width:1.0;"/><text fill="#000000" font-family="sans-serif" font-size="14" lengthAdjust="spacing" textLength="225.2031" x="163.4" y="754.0057">items: ManyToManyField(Event)</text><ellipse cx="154.4" cy="766.9559" fill="#84BE84" rx="3" ry="3" style="stroke:#038048;stroke-width:1.0;"/><text fill="#000000" font-family="sans-serif" font-size="14" lengthAdjust="spacing" textLength="184.3652" x="163.4" y="770.3026">total_price(): DecimalField</text></g><!--class Views--><g id="elem_Views"><rect codeLine="65" fill="#F1F1F1" height="357.6406" id="Views" rx="2.5" ry="2.5" style="stroke:#181818;stroke-width:0.5;" width="447.0254" x="418.49" y="7"/><ellipse cx="617.3406" cy="23" fill="#ADD1B2" rx="11" ry="11" style="stroke:#181818;stroke-width:1.0;"/><path d="M620.3093,28.6406 Q619.7312,28.9375 619.0906,29.0781 Q618.45,29.2344 617.7468,29.2344 Q615.2468,29.2344 613.9187,27.5938 Q612.6062,25.9375 612.6062,22.8125 Q612.6062,19.6875 613.9187,18.0313 Q615.2468,16.375 617.7468,16.375 Q618.45,16.375 619.0906,16.5313 Q619.7468,16.6875 620.3093,16.9844 L620.3093,19.7031 Q619.6843,19.125 619.0906,18.8594 Q618.4968,18.5781 617.8718,18.5781 Q616.5281,18.5781 615.8406,19.6563 Q615.1531,20.7188 615.1531,22.8125 Q615.1531,24.9063 615.8406,25.9844 Q616.5281,27.0469 617.8718,27.0469 Q618.4968,27.0469 619.0906,26.7813 Q619.6843,26.5 620.3093,25.9219 L620.3093,28.6406 Z " fill="#000000"/><text fill="#000000" font-family="sans-serif" font-size="14" lengthAdjust="spacing" textLength="40.8242" x="637.8406" y="27.8467">Views</text><line style="stroke:#181818;stroke-width:0.5;" x1="419.49" x2="864.5154" y1="39" y2="39"/><line style="stroke:#181818;stroke-width:0.5;" x1="419.49" x2="864.5154" y1="47" y2="47"/><ellipse cx="429.49" cy="60.6484" fill="#84BE84" rx="3" ry="3" style="stroke:#038048;stroke-width:1.0;"/><text fill="#000000" font-family="sans-serif" font-size="14" lengthAdjust="spacing" textLength="210.4238" x="438.49" y="63.9951">index(request): HttpResponse</text><ellipse cx="429.49" cy="76.9453" fill="#84BE84" rx="3" ry="3" style="stroke:#038048;stroke-width:1.0;"/><text fill="#000000" font-family="sans-serif" font-size="14" lengthAdjust="spacing" textLength="211.5654" x="438.49" y="80.292">home(request): HttpResponse</text><ellipse cx="429.49" cy="93.2422" fill="#84BE84" rx="3" ry="3" style="stroke:#038048;stroke-width:1.0;"/><text fill="#000000" font-family="sans-serif" font-size="14" lengthAdjust="spacing" textLength="263.498" x="438.49" y="96.5889">create_event(request): HttpResponse</text><ellipse cx="429.49" cy="109.5391" fill="#84BE84" rx="3" ry="3" style="stroke:#038048;stroke-width:1.0;"/><text fill="#000000" font-family="sans-serif" font-size="14" lengthAdjust="spacing" textLength="262.9102" x="438.49" y="112.8857">create_ticket(request): HttpResponse</text><ellipse cx="429.49" cy="125.8359" fill="#84BE84" rx="3" ry="3" style="stroke:#038048;stroke-width:1.0;"/><text fill="#000000" font-family="sans-serif" font-size="14" lengthAdjust="spacing" textLength="333.9424" x="438.49" y="129.1826">event_details(request, event_id): HttpResponse</text><ellipse cx="429.49" cy="142.1328" fill="#84BE84" rx="3" ry="3" style="stroke:#038048;stroke-width:1.0;"/><text fill="#000000" font-family="sans-serif" font-size="14" lengthAdjust="spacing" textLength="330.0801" x="438.49" y="145.4795">create_refund_request(request): HttpResponse</text><ellipse cx="429.49" cy="158.4297" fill="#84BE84" rx="3" ry="3" style="stroke:#038048;stroke-width:1.0;"/><text fill="#000000" font-family="sans-serif" font-size="14" lengthAdjust="spacing" textLength="218.5791" x="438.49" y="161.7764">signup(request): HttpResponse</text><ellipse cx="429.49" cy="174.7266" fill="#84BE84" rx="3" ry="3" style="stroke:#038048;stroke-width:1.0;"/><text fill="#000000" font-family="sans-serif" font-size="14" lengthAdjust="spacing" textLength="245.2188" x="438.49" y="178.0732">login_view(request): HttpResponse</text><ellipse cx="429.49" cy="191.0234" fill="#84BE84" rx="3" ry="3" style="stroke:#038048;stroke-width:1.0;"/><text fill="#000000" font-family="sans-serif" font-size="14" lengthAdjust="spacing" textLength="323.3398" x="438.49" y="194.3701">update_profile_image(request): HttpResponse</text><ellipse cx="429.49" cy="207.3203" fill="#84BE84" rx="3" ry="3" style="stroke:#038048;stroke-width:1.0;"/><text fill="#000000" font-family="sans-serif" font-size="14" lengthAdjust="spacing" textLength="255.3838" x="438.49" y="210.667">logout_view(request): HttpResponse</text><ellipse cx="429.49" cy="223.6172" fill="#84BE84" rx="3" ry="3" style="stroke:#038048;stroke-width:1.0;"/><text fill="#000000" font-family="sans-serif" font-size="14" lengthAdjust="spacing" textLength="285.9883" x="438.49" y="226.9639">create_payment(request): HttpResponse</text><ellipse cx="429.49" cy="239.9141" fill="#84BE84" rx="3" ry="3" style="stroke:#038048;stroke-width:1.0;"/><text fill="#000000" font-family="sans-serif" font-size="14" lengthAdjust="spacing" textLength="351.2168" x="438.49" y="243.2607">checkout_event(request, event_id): HttpResponse</text><ellipse cx="429.49" cy="256.2109" fill="#84BE84" rx="3" ry="3" style="stroke:#038048;stroke-width:1.0;"/><text fill="#000000" font-family="sans-serif" font-size="14" lengthAdjust="spacing" textLength="421.0254" x="438.49" y="259.5576">payment_confirmation(request, payment_id): HttpResponse</text><ellipse cx="429.49" cy="272.5078" fill="#84BE84" rx="3" ry="3" style="stroke:#038048;stroke-width:1.0;"/><text fill="#000000" font-family="sans-serif" font-size="14" lengthAdjust="spacing" textLength="273.7109" x="438.49" y="275.8545">checkout_card(request): HttpResponse</text><ellipse cx="429.49" cy="288.8047" fill="#84BE84" rx="3" ry="3" style="stroke:#038048;stroke-width:1.0;"/><text fill="#000000" font-family="sans-serif" font-size="14" lengthAdjust="spacing" textLength="227.6504" x="438.49" y="292.1514">booking(request): HttpResponse</text><ellipse cx="429.49" cy="305.1016" fill="#84BE84" rx="3" ry="3" style="stroke:#038048;stroke-width:1.0;"/><text fill="#000000" font-family="sans-serif" font-size="14" lengthAdjust="spacing" textLength="322.3555" x="438.49" y="308.4482">add_to_cart(request, event_id): HttpResponse</text><ellipse cx="429.49" cy="321.3984" fill="#84BE84" rx="3" ry="3" style="stroke:#038048;stroke-width:1.0;"/><text fill="#000000" font-family="sans-serif" font-size="14" lengthAdjust="spacing" textLength="358.9414" x="438.49" y="324.7451">delete_from_cart(request, event_id): HttpResponse</text><ellipse cx="429.49" cy="337.6953" fill="#84BE84" rx="3" ry="3" style="stroke:#038048;stroke-width:1.0;"/><text fill="#000000" font-family="sans-serif" font-size="14" lengthAdjust="spacing" textLength="238.6357" x="438.49" y="341.042">view_cart(request): HttpResponse</text><ellipse cx="429.49" cy="353.9922" fill="#84BE84" rx="3" ry="3" style="stroke:#038048;stroke-width:1.0;"/><text fill="#000000" font-family="sans-serif" font-size="14" lengthAdjust="spacing" textLength="331.4063" x="438.49" y="357.3389">delete_event(request, event_id): HttpResponse</text></g><!--link User to PublisherProfile--><g id="link_User_PublisherProfile"><path codeLine="87" d="M849.81,571.41 C852.56,581.35 855.37,591.51 858,601.12 C864.45,624.66 871.6,651.03 877.3,672.13 " fill="none" id="User-PublisherProfile" style="stroke:#181818;stroke-width:1.0;"/><text fill="#000000" font-family="sans-serif" font-size="13" lengthAdjust="spacing" textLength="8.271" x="843.3353" y="591.4169">1</text><text fill="#000000" font-family="sans-serif" font-size="13" lengthAdjust="spacing" textLength="8.271" x="866.9787" y="661.5197">1</text></g><!--link User to SiteAdminProfile--><g id="link_User_SiteAdminProfile"><path codeLine="88" d="M829.39,571.36 C826.15,587.89 820.29,604.77 810,618.12 C808.05,620.66 752.41,647.7 701.53,672.09 " fill="none" id="User-SiteAdminProfile" style="stroke:#181818;stroke-width:1.0;"/><text fill="#000000" font-family="sans-serif" font-size="13" lengthAdjust="spacing" textLength="8.271" x="820.6818" y="591.3614">1</text><text fill="#000000" font-family="sans-serif" font-size="13" lengthAdjust="spacing" textLength="8.271" x="706.2269" y="661.4734">1</text></g><!--link User to Ticket--><g id="link_User_Ticket"><path codeLine="89" d="M936.23,560.26 C969.67,582.66 1003.16,612.03 1023,648.12 C1101.12,790.26 1087.18,988.48 1072.02,1093.65 " fill="none" id="User-Ticket" style="stroke:#181818;stroke-width:1.0;"/><text fill="#000000" font-family="sans-serif" font-size="13" lengthAdjust="spacing" textLength="8.271" x="943.8494" y="560.5925">1</text><text fill="#000000" font-family="sans-serif" font-size="13" lengthAdjust="spacing" textLength="23.0356" x="1049.1669" y="1083.0295">0..*</text></g><!--link User to Cart--><g id="link_User_Cart"><path codeLine="90" d="M808.69,571.5 C799.1,589.36 786.13,606.93 769,618.12 C715.51,653.09 545.67,635.62 483,648.12 C454.2,653.87 423.71,661.8 395.05,670.11 " fill="none" id="User-Cart" style="stroke:#181818;stroke-width:1.0;"/><text fill="#000000" font-family="sans-serif" font-size="13" lengthAdjust="spacing" textLength="8.271" x="797.8876" y="591.0625">1</text><text fill="#000000" font-family="sans-serif" font-size="13" lengthAdjust="spacing" textLength="8.271" x="402.5763" y="664.2755">1</text></g><!--link Event to Ticket--><g id="link_Event_Ticket"><path codeLine="91" d="M535.94,985.47 C650.48,1024.98 823.49,1084.65 938.78,1124.41 " fill="none" id="Event-Ticket" style="stroke:#181818;stroke-width:1.0;"/><text fill="#000000" font-family="sans-serif" font-size="13" lengthAdjust="spacing" textLength="8.271" x="543.7608" y="984.7303">1</text><text fill="#000000" font-family="sans-serif" font-size="13" lengthAdjust="spacing" textLength="23.0356" x="908.1661" y="1118.5924">0..*</text></g><!--link Event to Cart--><g id="link_Event_Cart"><path codeLine="92" d="M375.77,854.26 C367.18,838.37 357.76,822.22 348,807.61 C341.38,797.7 333.87,787.64 326.19,777.97 " fill="none" id="Event-Cart" style="stroke:#181818;stroke-width:1.0;"/><text fill="#000000" font-family="sans-serif" font-size="13" lengthAdjust="spacing" textLength="36.1436" x="358" y="820.6769">items</text><text fill="#000000" font-family="sans-serif" font-size="13" lengthAdjust="spacing" textLength="8.271" x="364.0972" y="843.5995">1</text><text fill="#000000" font-family="sans-serif" font-size="13" lengthAdjust="spacing" textLength="23.0356" x="307.9035" y="797.5314">0..*</text></g><!--link Cart to Event--><g id="link_Cart_Event"><path codeLine="95" d="M282.34,777.87 C287.18,793.78 293.59,810.35 302,824.61 C307.99,834.76 315.03,844.7 322.64,854.22 " fill="none" id="Cart-Event" style="stroke:#181818;stroke-width:1.0;"/><text fill="#000000" font-family="sans-serif" font-size="13" lengthAdjust="spacing" textLength="36.1436" x="303" y="820.6769">items</text><text fill="#000000" font-family="sans-serif" font-size="13" lengthAdjust="spacing" textLength="8.271" x="275.3762" y="797.8747">1</text><text fill="#000000" font-family="sans-serif" font-size="13" lengthAdjust="spacing" textLength="23.0356" x="291.1264" y="843.5563">0..*</text></g><!--link Ticket to Payment--><g id="link_Ticket_Payment"><path codeLine="93" d="M938.81,1212.33 C827.79,1253.39 663.25,1314.25 548.93,1356.53 " fill="none" id="Ticket-Payment" style="stroke:#181818;stroke-width:1.0;"/><text fill="#000000" font-family="sans-serif" font-size="13" lengthAdjust="spacing" textLength="43.2529" x="778" y="1282.8269">tickets</text><text fill="#000000" font-family="sans-serif" font-size="13" lengthAdjust="spacing" textLength="8.271" x="922.863" y="1211.8329">1</text><text fill="#000000" font-family="sans-serif" font-size="13" lengthAdjust="spacing" textLength="23.0356" x="556.7201" y="1350.4879">0..*</text></g><!--link Ticket to RefundRequest--><g id="link_Ticket_RefundRequest"><path codeLine="94" d="M1121.34,1239.97 C1151.62,1274.98 1187.44,1316.41 1215.62,1349 " fill="none" id="Ticket-RefundRequest" style="stroke:#181818;stroke-width:1.0;"/><text fill="#000000" font-family="sans-serif" font-size="13" lengthAdjust="spacing" textLength="8.271" x="1118.9137" y="1259.7254">1</text><text fill="#000000" font-family="sans-serif" font-size="13" lengthAdjust="spacing" textLength="23.0356" x="1185.3239" y="1338.2197">0..*</text></g><!--link Event to Payment--><g id="link_Event_Payment"><path codeLine="96" d="M418,1033.25 C418,1114.7 418,1234.91 418,1316.4 " fill="none" id="Event-Payment" style="stroke:#181818;stroke-width:1.0;"/><text fill="#000000" font-family="sans-serif" font-size="13" lengthAdjust="spacing" textLength="43.2529" x="419" y="1171.4369">tickets</text><text fill="#000000" font-family="sans-serif" font-size="13" lengthAdjust="spacing" textLength="8.271" x="409.6924" y="1053.0481">1</text><text fill="#000000" font-family="sans-serif" font-size="13" lengthAdjust="spacing" textLength="23.0356" x="394.085" y="1305.7387">0..*</text></g><!--link Views to User--><g id="link_Views_User"><path codeLine="98" d="M736.9,365 C746.15,380.91 755.6,396.66 765,411.64 C771.12,421.38 774.4406,426.5497 781.2306,436.3397 " fill="none" id="Views-to-User" style="stroke:#181818;stroke-width:1.0;"/><polygon fill="#181818" points="784.65,441.27,782.8077,431.595,781.8005,437.1615,776.234,436.1543,784.65,441.27" style="stroke:#181818;stroke-width:1.0;"/><text fill="#000000" font-family="sans-serif" font-size="13" lengthAdjust="spacing" textLength="354.4531" x="766" y="407.7069">signup, login_view, logout_view, update_profile_image</text></g><!--link Views to Event--><g id="link_Views_Event"><path codeLine="99" d="M573.95,364.94 C548.99,429.91 520.39,503.91 494,571.12 C488.75,584.49 486.01,587.33 482,601.12 C457.45,685.59 440.9945,778.6956 430.6145,848.3356 " fill="none" id="Views-to-Event" style="stroke:#181818;stroke-width:1.0;"/><polygon fill="#181818" points="429.73,854.27,435.0131,845.958,430.4671,849.3246,427.1005,844.7786,429.73,854.27" style="stroke:#181818;stroke-width:1.0;"/><text fill="#000000" font-family="sans-serif" font-size="13" lengthAdjust="spacing" textLength="318.043" x="483" y="614.1869">home, create_event, event_details, delete_event</text></g><!--link Views to Ticket--><g id="link_Views_Ticket"><path codeLine="100" d="M865.95,234.15 C959.08,264.89 1060.33,314.71 1125,394.64 C1156.56,433.65 1147,455.2 1147,505.38 C1147,505.38 1147,505.38 1147,944.8 C1147,997.05 1128.2754,1046.3253 1106.5354,1088.1853 " fill="none" id="Views-to-Ticket" style="stroke:#181818;stroke-width:1.0;"/><polygon fill="#181818" points="1103.77,1093.51,1111.4679,1087.3665,1106.0745,1089.0727,1104.3683,1083.6793,1103.77,1093.51" style="stroke:#181818;stroke-width:1.0;"/><text fill="#000000" font-family="sans-serif" font-size="13" lengthAdjust="spacing" textLength="144.5869" x="1148" y="717.4369">create_ticket, booking</text></g><!--link Views to Payment--><g id="link_Views_Payment"><path codeLine="101" d="M418.22,207.89 C235.03,238.93 6,315.67 6,505.38 C6,505.38 6,505.38 6,1167.87 C6,1299.71 160.5666,1358.0571 281.2066,1384.2471 " fill="none" id="Views-to-Payment" style="stroke:#181818;stroke-width:1.0;"/><polygon fill="#181818" points="287.07,1385.52,279.1235,1379.7017,282.1838,1384.4592,277.4263,1387.5196,287.07,1385.52" style="stroke:#181818;stroke-width:1.0;"/><text fill="#000000" font-family="sans-serif" font-size="13" lengthAdjust="spacing" textLength="261.041" x="7" y="820.6769">create_payment, payment_confirmation</text></g><!--link Views to RefundRequest--><g id="link_Views_RefundRequest"><path codeLine="102" d="M865.72,197.17 C1071.86,220.18 1346,291.07 1346,505.38 C1346,505.38 1346,505.38 1346,1167.87 C1346,1232.55 1321.0689,1296.5913 1297.8889,1343.4813 " fill="none" id="Views-to-RefundRequest" style="stroke:#181818;stroke-width:1.0;"/><polygon fill="#181818" points="1295.23,1348.86,1302.8042,1342.5646,1297.4458,1344.3778,1295.6326,1339.0194,1295.23,1348.86" style="stroke:#181818;stroke-width:1.0;"/><text fill="#000000" font-family="sans-serif" font-size="13" lengthAdjust="spacing" textLength="146.9038" x="1347" y="820.6769">create_refund_request</text></g><!--link Views to Cart--><g id="link_Views_Cart"><path codeLine="103" d="M418,237.07 C308.41,274.16 186.31,337 121,441.64 C90.53,490.46 98.31,518.24 121,571.12 C133.51,600.29 150.9597,622.1811 174.0997,643.6311 " fill="none" id="Views-to-Cart" style="stroke:#181818;stroke-width:1.0;"/><polygon fill="#181818" points="178.5,647.71,174.6189,638.6581,174.8331,644.3109,169.1803,644.5252,178.5,647.71" style="stroke:#181818;stroke-width:1.0;"/><text fill="#000000" font-family="sans-serif" font-size="13" lengthAdjust="spacing" textLength="367.4722" x="122" y="510.9469">add_to_cart, delete_from_cart, view_cart, checkout_card</text></g><!--SRC=[bLPDRzGm4BtdLqGzjP2ju9e34fGYUa1QbOLhvDgpkrOJExMTfGNnt_5dOcUzwP938japppDlves3MoHb-KE2AFyKfNxUbj0XsjRbhVbyeT0Ilovu2tLviqSYNkq5tz8M6jgXdTw-Cvzudygc7nvQAlSWBg_gye7pTjf2fADiNFvR5DZ6imuUQuS-nZReG6iRhb_WOeSO_OqKvQnXg4iY7F6-KmKVpL6lujc0cXv4HwNKcB8kD_2iPdYt1s1g155KvPWX8B6WlOai1l6vdw2B8AMNF-jtlAgeIMoZt_5gop5owCT5eTZ00DRd94L41rrLzA0BfYX-1ANpksCATZ2dR6EtfwOm6TSkyLFSFGs8QIvUwdBD9LNq00cq3sqGU8yaD5EcyxnqNmZO3em0gSjFkZ40iIo4Iy6qpu7JAFOrUkdI0lbKlo7sik7cRV4kNP9N0TUvBKI6EZuO6ZB41kSEr9wJJ4dylbH83V9uNmd49CAsZsd6Nt65sXD56vM8GMgvkPEEQRctfDx3qm1oJaxj2nwqxemMg3YL1nP0g6goJ8sHt22XJcjGYxNB5ClstjLqZ0wAD4ZbmnjwihZlwBGwCKJbm_n9uPSSuwIw8PylFJFQvwjI_Jt8NWy9y2Pxti6oXOkxiN8wozBt-AAfHMi8AArj6Kmhlqp98hvJMkETbi-HTCU6VjccvJizG0-QkMKxLw0ckJvUHUQ3EWFQPnPqi6ox1_neO9EAlCPT43FcR4j5PwVmv1jsJp8VpiH8aENmzBNuIDbksGWHqYXkqCvEW40BcgAjuDr_-Hdo4uT5-3CvrNgpFo0Nxo_ArSf-vZy0HmRp6pqrU7Tz_UOYJBIvgna-XRl1i_QvBJkmQZUP2dyrfXRXpgd3RPCtIsPmOM5J0tTwE2eNo_59XHjKgzK7zoTNUwLMaHghM3zLLduHJ8Z23BGg6LfLEcsgfDOHWi- -JkTO5JewifpoIOLRPMKMEQRtMPsVQ96zBs8ab-f82DNKubKgr7y0]--></g></svg>