<svg xmlns="http://www.w3.org/2000/svg" xmlns:xlink="http://www.w3.org/1999/xlink" contentStyleType="text/css" height="620px" preserveAspectRatio="none" style="width:1084px;height:620px;background:#FFFFFF;" version="1.1" viewBox="0 0 1084 620" width="1084px" zoomAndPan="magnify"><defs/><g><!--class User--><g id="elem_User"><rect codeLine="4" fill="#F1F1F1" height="129.4844" id="User" rx="2.5" ry="2.5" style="stroke:#181818;stroke-width:0.5;" width="205.2109" x="289" y="7"/><ellipse cx="371.4004" cy="23" fill="#ADD1B2" rx="11" ry="11" style="stroke:#181818;stroke-width:1.0;"/><path d="M374.3691,28.6406 Q373.791,28.9375 373.1504,29.0781 Q372.5098,29.2344 371.8066,29.2344 Q369.3066,29.2344 367.9785,27.5938 Q366.666,25.9375 366.666,22.8125 Q366.666,19.6875 367.9785,18.0313 Q369.3066,16.375 371.8066,16.375 Q372.5098,16.375 373.1504,16.5313 Q373.8066,16.6875 374.3691,16.9844 L374.3691,19.7031 Q373.7441,19.125 373.1504,18.8594 Q372.5566,18.5781 371.9316,18.5781 Q370.5879,18.5781 369.9004,19.6563 Q369.2129,20.7188 369.2129,22.8125 Q369.2129,24.9063 369.9004,25.9844 Q370.5879,27.0469 371.9316,27.0469 Q372.5566,27.0469 373.1504,26.7813 Q373.7441,26.5 374.3691,25.9219 L374.3691,28.6406 Z " fill="#000000"/><text fill="#000000" font-family="sans-serif" font-size="14" lengthAdjust="spacing" textLength="31.9102" x="391.9004" y="27.8467">User</text><line style="stroke:#181818;stroke-width:0.5;" x1="290" x2="493.2109" y1="39" y2="39"/><text fill="#000000" font-family="sans-serif" font-size="14" lengthAdjust="spacing" textLength="131.6807" x="295" y="55.9951">+email: EmailField</text><text fill="#000000" font-family="sans-serif" font-size="14" lengthAdjust="spacing" textLength="114.0371" x="295" y="72.292">+role: CharField</text><text fill="#000000" font-family="sans-serif" font-size="14" lengthAdjust="spacing" textLength="193.2109" x="295" y="88.5889">+profile_image: ImageField</text><line style="stroke:#181818;stroke-width:0.5;" x1="290" x2="493.2109" y1="95.8906" y2="95.8906"/><text fill="#000000" font-family="sans-serif" font-size="14" lengthAdjust="spacing" textLength="171.6572" x="295" y="112.8857">+is_publisher(): Boolean</text><text fill="#000000" font-family="sans-serif" font-size="14" lengthAdjust="spacing" textLength="150.5615" x="295" y="129.1826">+is_admin(): Boolean</text></g><!--class PublisherProfile--><g id="elem_PublisherProfile"><rect codeLine="12" fill="#F1F1F1" height="64.2969" id="PublisherProfile" rx="2.5" ry="2.5" style="stroke:#181818;stroke-width:0.5;" width="233.2109" x="7" y="245.37"/><ellipse cx="65.0542" cy="261.37" fill="#ADD1B2" rx="11" ry="11" style="stroke:#181818;stroke-width:1.0;"/><path d="M68.0229,267.0106 Q67.4448,267.3075 66.8042,267.4481 Q66.1636,267.6044 65.4604,267.6044 Q62.9604,267.6044 61.6323,265.9638 Q60.3198,264.3075 60.3198,261.1825 Q60.3198,258.0575 61.6323,256.4013 Q62.9604,254.745 65.4604,254.745 Q66.1636,254.745 66.8042,254.9013 Q67.4604,255.0575 68.0229,255.3544 L68.0229,258.0731 Q67.3979,257.495 66.8042,257.2294 Q66.2104,256.9481 65.5854,256.9481 Q64.2417,256.9481 63.5542,258.0263 Q62.8667,259.0888 62.8667,261.1825 Q62.8667,263.2763 63.5542,264.3544 Q64.2417,265.4169 65.5854,265.4169 Q66.2104,265.4169 66.8042,265.1513 Q67.3979,264.87 68.0229,264.2919 L68.0229,267.0106 Z " fill="#000000"/><text fill="#000000" font-family="sans-serif" font-size="14" lengthAdjust="spacing" textLength="108.6025" x="85.5542" y="266.2167">PublisherProfile</text><line style="stroke:#181818;stroke-width:0.5;" x1="8" x2="239.2109" y1="277.37" y2="277.37"/><text fill="#000000" font-family="sans-serif" font-size="14" lengthAdjust="spacing" textLength="221.2109" x="13" y="294.3651">+organization_name: CharField</text><line style="stroke:#181818;stroke-width:0.5;" x1="8" x2="239.2109" y1="301.6669" y2="301.6669"/></g><!--class SiteAdminProfile--><g id="elem_SiteAdminProfile"><rect codeLine="16" fill="#F1F1F1" height="64.2969" id="SiteAdminProfile" rx="2.5" ry="2.5" style="stroke:#181818;stroke-width:0.5;" width="232.0283" x="275.59" y="245.37"/><ellipse cx="329.4401" cy="261.37" fill="#ADD1B2" rx="11" ry="11" style="stroke:#181818;stroke-width:1.0;"/><path d="M332.4088,267.0106 Q331.8307,267.3075 331.1901,267.4481 Q330.5495,267.6044 329.8463,267.6044 Q327.3463,267.6044 326.0182,265.9638 Q324.7057,264.3075 324.7057,261.1825 Q324.7057,258.0575 326.0182,256.4013 Q327.3463,254.745 329.8463,254.745 Q330.5495,254.745 331.1901,254.9013 Q331.8463,255.0575 332.4088,255.3544 L332.4088,258.0731 Q331.7838,257.495 331.1901,257.2294 Q330.5963,256.9481 329.9713,256.9481 Q328.6276,256.9481 327.9401,258.0263 Q327.2526,259.0888 327.2526,261.1825 Q327.2526,263.2763 327.9401,264.3544 Q328.6276,265.4169 329.9713,265.4169 Q330.5963,265.4169 331.1901,265.1513 Q331.7838,264.87 332.4088,264.2919 L332.4088,267.0106 Z " fill="#000000"/><text fill="#000000" font-family="sans-serif" font-size="14" lengthAdjust="spacing" textLength="115.8281" x="349.9401" y="266.2167">SiteAdminProfile</text><line style="stroke:#181818;stroke-width:0.5;" x1="276.59" x2="506.6183" y1="277.37" y2="277.37"/><text fill="#000000" font-family="sans-serif" font-size="14" lengthAdjust="spacing" textLength="220.0283" x="281.59" y="294.3651">+admin_permissions: TextField</text><line style="stroke:#181818;stroke-width:0.5;" x1="276.59" x2="506.6183" y1="301.6669" y2="301.6669"/></g><!--class Event--><g id="elem_Event"><rect codeLine="20" fill="#F1F1F1" height="194.6719" id="Event" rx="2.5" ry="2.5" style="stroke:#181818;stroke-width:0.5;" width="233.3613" x="549.92" y="418.56"/><ellipse cx="642.2974" cy="434.56" fill="#ADD1B2" rx="11" ry="11" style="stroke:#181818;stroke-width:1.0;"/><path d="M645.2662,440.2006 Q644.6881,440.4975 644.0474,440.6381 Q643.4068,440.7944 642.7037,440.7944 Q640.2037,440.7944 638.8756,439.1538 Q637.5631,437.4975 637.5631,434.3725 Q637.5631,431.2475 638.8756,429.5913 Q640.2037,427.935 642.7037,427.935 Q643.4068,427.935 644.0474,428.0913 Q644.7037,428.2475 645.2662,428.5444 L645.2662,431.2631 Q644.6412,430.685 644.0474,430.4194 Q643.4537,430.1381 642.8287,430.1381 Q641.4849,430.1381 640.7974,431.2163 Q640.1099,432.2788 640.1099,434.3725 Q640.1099,436.4663 640.7974,437.5444 Q641.4849,438.6069 642.8287,438.6069 Q643.4537,438.6069 644.0474,438.3413 Q644.6412,438.06 645.2662,437.4819 L645.2662,440.2006 Z " fill="#000000"/><text fill="#000000" font-family="sans-serif" font-size="14" lengthAdjust="spacing" textLength="40.1064" x="662.7974" y="439.4067">Event</text><line style="stroke:#181818;stroke-width:0.5;" x1="550.92" x2="782.2813" y1="450.56" y2="450.56"/><text fill="#000000" font-family="sans-serif" font-size="14" lengthAdjust="spacing" textLength="114.584" x="555.92" y="467.5551">+title: CharField</text><text fill="#000000" font-family="sans-serif" font-size="14" lengthAdjust="spacing" textLength="163.0098" x="555.92" y="483.852">+description: TextField</text><text fill="#000000" font-family="sans-serif" font-size="14" lengthAdjust="spacing" textLength="141.6816" x="555.92" y="500.1489">+image: ImageField</text><text fill="#000000" font-family="sans-serif" font-size="14" lengthAdjust="spacing" textLength="119.2598" x="555.92" y="516.4457">+date: DateField</text><text fill="#000000" font-family="sans-serif" font-size="14" lengthAdjust="spacing" textLength="120.5518" x="555.92" y="532.7426">+time: TimeField</text><text fill="#000000" font-family="sans-serif" font-size="14" lengthAdjust="spacing" textLength="142.7617" x="555.92" y="549.0395">+location: CharField</text><text fill="#000000" font-family="sans-serif" font-size="14" lengthAdjust="spacing" textLength="146.1592" x="555.92" y="565.3364">+price: DecimalField</text><text fill="#000000" font-family="sans-serif" font-size="14" lengthAdjust="spacing" textLength="221.3613" x="555.92" y="581.6332">+available_tickets: IntegerField</text><line style="stroke:#181818;stroke-width:0.5;" x1="550.92" x2="782.2813" y1="588.935" y2="588.935"/><text fill="#000000" font-family="sans-serif" font-size="14" lengthAdjust="spacing" textLength="120.1416" x="555.92" y="605.9301">+__str__(): String</text></g><!--class Ticket--><g id="elem_Ticket"><rect codeLine="32" fill="#F1F1F1" height="162.0781" id="Ticket" rx="2.5" ry="2.5" style="stroke:#181818;stroke-width:0.5;" width="237.5244" x="825.84" y="196.48"/><ellipse cx="919.1779" cy="212.48" fill="#ADD1B2" rx="11" ry="11" style="stroke:#181818;stroke-width:1.0;"/><path d="M922.1466,218.1206 Q921.5685,218.4175 920.9279,218.5581 Q920.2873,218.7144 919.5841,218.7144 Q917.0841,218.7144 915.756,217.0738 Q914.4435,215.4175 914.4435,212.2925 Q914.4435,209.1675 915.756,207.5113 Q917.0841,205.855 919.5841,205.855 Q920.2873,205.855 920.9279,206.0113 Q921.5841,206.1675 922.1466,206.4644 L922.1466,209.1831 Q921.5216,208.605 920.9279,208.3394 Q920.3341,208.0581 919.7091,208.0581 Q918.3654,208.0581 917.6779,209.1363 Q916.9904,210.1988 916.9904,212.2925 Q916.9904,214.3863 917.6779,215.4644 Q918.3654,216.5269 919.7091,216.5269 Q920.3341,216.5269 920.9279,216.2613 Q921.5216,215.98 922.1466,215.4019 L922.1466,218.1206 Z " fill="#000000"/><text fill="#000000" font-family="sans-serif" font-size="14" lengthAdjust="spacing" textLength="42.3486" x="939.6779" y="217.3267">Ticket</text><line style="stroke:#181818;stroke-width:0.5;" x1="826.84" x2="1062.3644" y1="228.48" y2="228.48"/><text fill="#000000" font-family="sans-serif" font-size="14" lengthAdjust="spacing" textLength="217.4238" x="831.84" y="245.4751">+quantity: PositiveIntegerField</text><text fill="#000000" font-family="sans-serif" font-size="14" lengthAdjust="spacing" textLength="225.5244" x="831.84" y="261.772">+purchase_date: DateTimeField</text><text fill="#000000" font-family="sans-serif" font-size="14" lengthAdjust="spacing" textLength="159.2021" x="831.84" y="278.0689">+is_refunded: Boolean</text><line style="stroke:#181818;stroke-width:0.5;" x1="826.84" x2="1062.3644" y1="285.3706" y2="285.3706"/><text fill="#000000" font-family="sans-serif" font-size="14" lengthAdjust="spacing" textLength="190.5176" x="831.84" y="302.3657">+event: ForeignKey(Event)</text><text fill="#000000" font-family="sans-serif" font-size="14" lengthAdjust="spacing" textLength="172.9834" x="831.84" y="318.6626">+user: ForeignKey(User)</text><text fill="#000000" font-family="sans-serif" font-size="14" lengthAdjust="spacing" textLength="172.3066" x="831.84" y="334.9595">+purchase_ticket(): void</text><text fill="#000000" font-family="sans-serif" font-size="14" lengthAdjust="spacing" textLength="120.1416" x="831.84" y="351.2564">+__str__(): String</text></g><!--class Payment--><g id="elem_Payment"><rect codeLine="42" fill="#F1F1F1" height="194.6719" id="Payment" rx="2.5" ry="2.5" style="stroke:#181818;stroke-width:0.5;" width="258.832" x="818.19" y="418.56"/><ellipse cx="912.3961" cy="434.56" fill="#ADD1B2" rx="11" ry="11" style="stroke:#181818;stroke-width:1.0;"/><path d="M915.3648,440.2006 Q914.7867,440.4975 914.1461,440.6381 Q913.5054,440.7944 912.8023,440.7944 Q910.3023,440.7944 908.9742,439.1538 Q907.6617,437.4975 907.6617,434.3725 Q907.6617,431.2475 908.9742,429.5913 Q910.3023,427.935 912.8023,427.935 Q913.5054,427.935 914.1461,428.0913 Q914.8023,428.2475 915.3648,428.5444 L915.3648,431.2631 Q914.7398,430.685 914.1461,430.4194 Q913.5523,430.1381 912.9273,430.1381 Q911.5836,430.1381 910.8961,431.2163 Q910.2086,432.2788 910.2086,434.3725 Q910.2086,436.4663 910.8961,437.5444 Q911.5836,438.6069 912.9273,438.6069 Q913.5523,438.6069 914.1461,438.3413 Q914.7398,438.06 915.3648,437.4819 L915.3648,440.2006 Z " fill="#000000"/><text fill="#000000" font-family="sans-serif" font-size="14" lengthAdjust="spacing" textLength="61.9199" x="932.8961" y="439.4067">Payment</text><line style="stroke:#181818;stroke-width:0.5;" x1="819.19" x2="1076.022" y1="450.56" y2="450.56"/><text fill="#000000" font-family="sans-serif" font-size="14" lengthAdjust="spacing" textLength="223.3164" x="824.19" y="467.5551">+payment_date: DateTimeField</text><text fill="#000000" font-family="sans-serif" font-size="14" lengthAdjust="spacing" textLength="165.334" x="824.19" y="483.852">+amount: DecimalField</text><text fill="#000000" font-family="sans-serif" font-size="14" lengthAdjust="spacing" textLength="210.6426" x="824.19" y="500.1489">+payment_method: CharField</text><text fill="#000000" font-family="sans-serif" font-size="14" lengthAdjust="spacing" textLength="199.5957" x="824.19" y="516.4457">+payment_status: CharField</text><text fill="#000000" font-family="sans-serif" font-size="14" lengthAdjust="spacing" textLength="186.0742" x="824.19" y="532.7426">+transaction_id: CharField</text><text fill="#000000" font-family="sans-serif" font-size="14" lengthAdjust="spacing" textLength="190.1826" x="824.19" y="549.0395">+total_tickets: IntegerField</text><line style="stroke:#181818;stroke-width:0.5;" x1="819.19" x2="1076.022" y1="556.3413" y2="556.3413"/><text fill="#000000" font-family="sans-serif" font-size="14" lengthAdjust="spacing" textLength="246.832" x="824.19" y="573.3364">+tickets: ManyToManyField(Ticket)</text><text fill="#000000" font-family="sans-serif" font-size="14" lengthAdjust="spacing" textLength="184.9189" x="824.19" y="589.6332">+process_payment(): void</text><text fill="#000000" font-family="sans-serif" font-size="14" lengthAdjust="spacing" textLength="120.1416" x="824.19" y="605.9301">+__str__(): String</text></g><!--class RefundRequest--><g id="elem_RefundRequest"><rect codeLine="54" fill="#F1F1F1" height="129.4844" id="RefundRequest" rx="2.5" ry="2.5" style="stroke:#181818;stroke-width:0.5;" width="226.4775" x="831.37" y="7"/><ellipse cx="886.6591" cy="23" fill="#ADD1B2" rx="11" ry="11" style="stroke:#181818;stroke-width:1.0;"/><path d="M889.6278,28.6406 Q889.0497,28.9375 888.4091,29.0781 Q887.7684,29.2344 887.0653,29.2344 Q884.5653,29.2344 883.2372,27.5938 Q881.9247,25.9375 881.9247,22.8125 Q881.9247,19.6875 883.2372,18.0313 Q884.5653,16.375 887.0653,16.375 Q887.7684,16.375 888.4091,16.5313 Q889.0653,16.6875 889.6278,16.9844 L889.6278,19.7031 Q889.0028,19.125 888.4091,18.8594 Q887.8153,18.5781 887.1903,18.5781 Q885.8466,18.5781 885.1591,19.6563 Q884.4716,20.7188 884.4716,22.8125 Q884.4716,24.9063 885.1591,25.9844 Q885.8466,27.0469 887.1903,27.0469 Q887.8153,27.0469 888.4091,26.7813 Q889.0028,26.5 889.6278,25.9219 L889.6278,28.6406 Z " fill="#000000"/><text fill="#000000" font-family="sans-serif" font-size="14" lengthAdjust="spacing" textLength="107.3994" x="907.1591" y="27.8467">RefundRequest</text><line style="stroke:#181818;stroke-width:0.5;" x1="832.37" x2="1056.8475" y1="39" y2="39"/><text fill="#000000" font-family="sans-serif" font-size="14" lengthAdjust="spacing" textLength="214.4775" x="837.37" y="55.9951">+request_date: DateTimeField</text><text fill="#000000" font-family="sans-serif" font-size="14" lengthAdjust="spacing" textLength="130.2314" x="837.37" y="72.292">+status: CharField</text><text fill="#000000" font-family="sans-serif" font-size="14" lengthAdjust="spacing" textLength="212.666" x="837.37" y="88.5889">+credit_amount: DecimalField</text><line style="stroke:#181818;stroke-width:0.5;" x1="832.37" x2="1056.8475" y1="95.8906" y2="95.8906"/><text fill="#000000" font-family="sans-serif" font-size="14" lengthAdjust="spacing" textLength="192.1719" x="837.37" y="112.8857">+ticket: ForeignKey(Ticket)</text><text fill="#000000" font-family="sans-serif" font-size="14" lengthAdjust="spacing" textLength="120.1416" x="837.37" y="129.1826">+__str__(): String</text></g><!--class Cart--><g id="elem_Cart"><rect codeLine="62" fill="#F1F1F1" height="145.7813" id="Cart" rx="2.5" ry="2.5" style="stroke:#181818;stroke-width:0.5;" width="248.9336" x="542.14" y="204.63"/><ellipse cx="647.557" cy="220.63" fill="#ADD1B2" rx="11" ry="11" style="stroke:#181818;stroke-width:1.0;"/><path d="M650.5257,226.2706 Q649.9476,226.5675 649.307,226.7081 Q648.6664,226.8644 647.9632,226.8644 Q645.4632,226.8644 644.1351,225.2238 Q642.8226,223.5675 642.8226,220.4425 Q642.8226,217.3175 644.1351,215.6613 Q645.4632,214.005 647.9632,214.005 Q648.6664,214.005 649.307,214.1613 Q649.9632,214.3175 650.5257,214.6144 L650.5257,217.3331 Q649.9007,216.755 649.307,216.4894 Q648.7132,216.2081 648.0882,216.2081 Q646.7445,216.2081 646.057,217.2863 Q645.3695,218.3488 645.3695,220.4425 Q645.3695,222.5363 646.057,223.6144 Q646.7445,224.6769 648.0882,224.6769 Q648.7132,224.6769 649.307,224.4113 Q649.9007,224.13 650.5257,223.5519 L650.5257,226.2706 Z " fill="#000000"/><text fill="#000000" font-family="sans-serif" font-size="14" lengthAdjust="spacing" textLength="29.5996" x="668.057" y="225.4767">Cart</text><line style="stroke:#181818;stroke-width:0.5;" x1="543.14" x2="790.0736" y1="236.63" y2="236.63"/><text fill="#000000" font-family="sans-serif" font-size="14" lengthAdjust="spacing" textLength="197.0869" x="548.14" y="253.6251">+created_at: DateTimeField</text><text fill="#000000" font-family="sans-serif" font-size="14" lengthAdjust="spacing" textLength="201.667" x="548.14" y="269.922">+updated_at: DateTimeField</text><line style="stroke:#181818;stroke-width:0.5;" x1="543.14" x2="790.0736" y1="277.2238" y2="277.2238"/><text fill="#000000" font-family="sans-serif" font-size="14" lengthAdjust="spacing" textLength="172.9834" x="548.14" y="294.2189">+user: ForeignKey(User)</text><text fill="#000000" font-family="sans-serif" font-size="14" lengthAdjust="spacing" textLength="236.9336" x="548.14" y="310.5157">+items: ManyToManyField(Event)</text><text fill="#000000" font-family="sans-serif" font-size="14" lengthAdjust="spacing" textLength="162.7637" x="548.14" y="326.8126">+total_price(): Decimal</text><text fill="#000000" font-family="sans-serif" font-size="14" lengthAdjust="spacing" textLength="120.1416" x="548.14" y="343.1095">+__str__(): String</text></g><!--link User to PublisherProfile--><g id="link_User_PublisherProfile"><path codeLine="71" d="M295.24,136.94 C246.21,172.99 189.97,216.36 155.42,245.09 " fill="none" id="User-PublisherProfile" style="stroke:#181818;stroke-width:1.0;"/><text fill="#000000" font-family="sans-serif" font-size="13" lengthAdjust="spacing" textLength="8.271" x="276.9038" y="156.5107">1</text><text fill="#000000" font-family="sans-serif" font-size="13" lengthAdjust="spacing" textLength="8.271" x="152.9227" y="234.3091">1</text></g><!--link PublisherProfile to User--><g id="link_PublisherProfile_User"><path codeLine="75" d="M175.01,245.09 C216.22,216.36 274.12,172.99 319.82,136.94 " fill="none" id="PublisherProfile-User" style="stroke:#181818;stroke-width:1.0;"/><text fill="#000000" font-family="sans-serif" font-size="13" lengthAdjust="spacing" textLength="8.271" x="176.3694" y="234.3091">1</text><text fill="#000000" font-family="sans-serif" font-size="13" lengthAdjust="spacing" textLength="8.271" x="304.0186" y="156.5107">1</text></g><!--link User to SiteAdminProfile--><g id="link_User_SiteAdminProfile"><path codeLine="72" d="M379.66,136.94 C378.05,172.99 378.85,216.36 382.09,245.09 " fill="none" id="User-SiteAdminProfile" style="stroke:#181818;stroke-width:1.0;"/><text fill="#000000" font-family="sans-serif" font-size="13" lengthAdjust="spacing" textLength="8.271" x="370.0296" y="156.5107">1</text><text fill="#000000" font-family="sans-serif" font-size="13" lengthAdjust="spacing" textLength="8.271" x="371.4561" y="234.3091">1</text></g><!--link SiteAdminProfile to User--><g id="link_SiteAdminProfile_User"><path codeLine="76" d="M401.68,245.09 C405.11,216.36 405.96,172.99 404.25,136.94 " fill="none" id="SiteAdminProfile-User" style="stroke:#181818;stroke-width:1.0;"/><text fill="#000000" font-family="sans-serif" font-size="13" lengthAdjust="spacing" textLength="8.271" x="394.9029" y="234.3091">1</text><text fill="#000000" font-family="sans-serif" font-size="13" lengthAdjust="spacing" textLength="8.271" x="397.1554" y="156.5107">1</text></g><!--link User to Ticket--><g id="link_User_Ticket"><path codeLine="73" d="M494.31,95.79 C580.25,116.82 705.07,151.46 808.61,196.48 C814.26,198.94 819.97,201.58 825.68,204.36 " fill="none" id="User-Ticket" style="stroke:#181818;stroke-width:1.0;"/><text fill="#000000" font-family="sans-serif" font-size="13" lengthAdjust="spacing" textLength="8.271" x="502.1561" y="94.077">1</text><text fill="#000000" font-family="sans-serif" font-size="13" lengthAdjust="spacing" textLength="6.5" x="811.5051" y="196.0121">*</text></g><!--link User to Cart--><g id="link_User_Cart"><path codeLine="74" d="M478.24,136.94 C507.05,158.29 539.33,182.21 568.92,204.13 " fill="none" id="User-Cart" style="stroke:#181818;stroke-width:1.0;"/><text fill="#000000" font-family="sans-serif" font-size="13" lengthAdjust="spacing" textLength="8.271" x="478.7757" y="156.5107">1</text><text fill="#000000" font-family="sans-serif" font-size="13" lengthAdjust="spacing" textLength="8.271" x="551.2409" y="193.4933">1</text></g><!--link Ticket to Event--><g id="link_Ticket_Event"><path codeLine="77" d="M850.1,358.87 C827.59,378.01 803.34,398.63 780.08,418.41 " fill="none" id="Ticket-Event" style="stroke:#181818;stroke-width:1.0;"/><text fill="#000000" font-family="sans-serif" font-size="13" lengthAdjust="spacing" textLength="6.5" x="835.7424" y="378.5782">*</text><text fill="#000000" font-family="sans-serif" font-size="13" lengthAdjust="spacing" textLength="8.271" x="780.4724" y="407.444">1</text></g><!--link Ticket to Payment--><g id="link_Ticket_Payment"><path codeLine="78" d="M945.63,358.87 C945.87,378.01 946.13,398.63 946.38,418.41 " fill="none" id="Ticket-Payment" style="stroke:#181818;stroke-width:1.0;"/><text fill="#000000" font-family="sans-serif" font-size="13" lengthAdjust="spacing" textLength="6.5" x="939.482" y="378.5782">*</text><text fill="#000000" font-family="sans-serif" font-size="13" lengthAdjust="spacing" textLength="6.5" x="940.0756" y="407.444">*</text></g><!--link RefundRequest to Ticket--><g id="link_RefundRequest_Ticket"><path codeLine="79" d="M944.61,136.94 C944.61,155.72 944.61,176.49 944.61,196.14 " fill="none" id="RefundRequest-Ticket" style="stroke:#181818;stroke-width:1.0;"/><text fill="#000000" font-family="sans-serif" font-size="13" lengthAdjust="spacing" textLength="8.271" x="936.2116" y="156.5107">1</text><text fill="#000000" font-family="sans-serif" font-size="13" lengthAdjust="spacing" textLength="8.271" x="936.2665" y="185.297">1</text></g><!--link Cart to Event--><g id="link_Cart_Event"><path codeLine="80" d="M666.61,350.72 C666.61,372.04 666.61,395.72 666.61,418.31 " fill="none" id="Cart-Event" style="stroke:#181818;stroke-width:1.0;"/><text fill="#000000" font-family="sans-serif" font-size="13" lengthAdjust="spacing" textLength="6.5" x="660.3482" y="370.4849">*</text><text fill="#000000" font-family="sans-serif" font-size="13" lengthAdjust="spacing" textLength="6.5" x="660.4002" y="407.3363">*</text></g><!--SRC=[ZLJ1Rjim3BtxAxISqWq5jcjkRPe2mL0qQBApmCXCGjIMN8aEbWxxzqcoayfsaiu72n3rgFSUANx9SKCQnSEzd3u_BPwNyzLCA5DMnX5Zvbv9Ls2X5Ae0v-wOBQrhnhaoUadlABvdMOo8Nmwj-9C9_tt34gYOY5bO7WcBlDcsfi29cEx09fkLDHigK589Mn-TXoK9avDLlIx8xT2ERoRYtlWae4z1o4lIQU3laT3Y25iqDnp96Ri5JU_0PBJKK7OedT1Bh_ukvEwXutsoGbkISpw3cuWL_kOUUhP7pKS84v_HdQDJbgh08atHw3hlHGxiTn_yFzba2WfM_fzi5aP1atdWDgcG0vM_8wqDx7sjOEqBmQHUaRskkMRSOegMqh6LCjYzz8sWjn-ALn5rQe2WVo8UZKNQwfzu64T7RffexLkb4mozqyRUQj3UiCD4B487qXw7DAhQgXqub1-6zFJxnh2ugNMEUQzbJjX6Pf2oD_IvlWKSoavDMvEUG1zM9lpZzUF6XrPCrO0kyuJIrC6eOJsEq19vP_9X7TkmO-3Q3S9iGJjGiSLfY6R3K5mhj7-K2fr_Uiqr_-tIIpJz1TzgT3slEWNlk6IRuvTTkY1IMSo9vMKFhn2TWZtnkzQEVWgKPwgSThEduIdd4lWi-RhAhuMRKiHd6NYs8gxmZtDsz6CaRc_ZqXzpWmFzITOzy7NKFjq1BbYK3OPeSY00ii6Sx1ze1qEugDsEvlNt_T8-iQpRH4c-bcYiNOAB-Vu1]--></g></svg>