<svg xmlns="http://www.w3.org/2000/svg" xmlns:xlink="http://www.w3.org/1999/xlink" contentStyleType="text/css" height="637px" preserveAspectRatio="none" style="width:1318px;height:637px;background:#FFFFFF;" version="1.1" viewBox="0 0 1318 637" width="1318px" zoomAndPan="magnify"><defs/><g><!--class User--><g id="elem_User"><rect codeLine="3" fill="#F1F1F1" height="113.1875" id="User" rx="2.5" ry="2.5" style="stroke:#181818;stroke-width:0.5;" width="198.792" x="660.44" y="47.74"/><ellipse cx="739.6309" cy="63.74" fill="#ADD1B2" rx="11" ry="11" style="stroke:#181818;stroke-width:1.0;"/><path d="M743.7403,69.74 L736.0215,69.74 L736.0215,57.3494 L743.7403,57.3494 L743.7403,59.5056 L738.4747,59.5056 L738.4747,62.1775 L743.2403,62.1775 L743.2403,64.3338 L738.4747,64.3338 L738.4747,67.5838 L743.7403,67.5838 L743.7403,69.74 Z " fill="#000000"/><text fill="#000000" font-family="sans-serif" font-size="14" lengthAdjust="spacing" textLength="31.9102" x="760.1309" y="68.5867">User</text><line style="stroke:#181818;stroke-width:0.5;" x1="661.44" x2="858.232" y1="79.74" y2="79.74"/><ellipse cx="671.44" cy="93.3884" fill="none" rx="3" ry="3" style="stroke:#038048;stroke-width:1.0;"/><text fill="#000000" font-family="sans-serif" font-size="14" lengthAdjust="spacing" textLength="77.1025" x="680.44" y="96.7351">user_id: PK</text><ellipse cx="671.44" cy="109.6853" fill="none" rx="3" ry="3" style="stroke:#038048;stroke-width:1.0;"/><text fill="#000000" font-family="sans-serif" font-size="14" lengthAdjust="spacing" textLength="116.2656" x="680.44" y="113.032">email: VARCHAR</text><ellipse cx="671.44" cy="125.9822" fill="none" rx="3" ry="3" style="stroke:#038048;stroke-width:1.0;"/><text fill="#000000" font-family="sans-serif" font-size="14" lengthAdjust="spacing" textLength="75.5986" x="680.44" y="129.3289">role: CHAR</text><ellipse cx="671.44" cy="142.2791" fill="none" rx="3" ry="3" style="stroke:#038048;stroke-width:1.0;"/><text fill="#000000" font-family="sans-serif" font-size="14" lengthAdjust="spacing" textLength="172.792" x="680.44" y="145.6257">profile_image: VARCHAR</text><line style="stroke:#181818;stroke-width:0.5;" x1="661.44" x2="858.232" y1="152.9275" y2="152.9275"/></g><!--class PublisherProfile--><g id="elem_PublisherProfile"><rect codeLine="10" fill="#F1F1F1" height="96.8906" id="PublisherProfile" rx="2.5" ry="2.5" style="stroke:#181818;stroke-width:0.5;" width="237.6543" x="612.01" y="303.12"/><ellipse cx="672.2859" cy="319.12" fill="#ADD1B2" rx="11" ry="11" style="stroke:#181818;stroke-width:1.0;"/><path d="M676.3953,325.12 L668.6765,325.12 L668.6765,312.7294 L676.3953,312.7294 L676.3953,314.8856 L671.1296,314.8856 L671.1296,317.5575 L675.8953,317.5575 L675.8953,319.7138 L671.1296,319.7138 L671.1296,322.9638 L676.3953,322.9638 L676.3953,325.12 Z " fill="#000000"/><text fill="#000000" font-family="sans-serif" font-size="14" lengthAdjust="spacing" textLength="108.6025" x="692.7859" y="323.9667">PublisherProfile</text><line style="stroke:#181818;stroke-width:0.5;" x1="613.01" x2="848.6643" y1="335.12" y2="335.12"/><ellipse cx="623.01" cy="348.7684" fill="none" rx="3" ry="3" style="stroke:#038048;stroke-width:1.0;"/><text fill="#000000" font-family="sans-serif" font-size="14" lengthAdjust="spacing" textLength="111.5283" x="632.01" y="352.1151">publisher_id: PK</text><ellipse cx="623.01" cy="365.0653" fill="none" rx="3" ry="3" style="stroke:#038048;stroke-width:1.0;"/><text fill="#000000" font-family="sans-serif" font-size="14" lengthAdjust="spacing" textLength="76.7129" x="632.01" y="368.412">user_id: FK</text><ellipse cx="623.01" cy="381.3622" fill="none" rx="3" ry="3" style="stroke:#038048;stroke-width:1.0;"/><text fill="#000000" font-family="sans-serif" font-size="14" lengthAdjust="spacing" textLength="211.6543" x="632.01" y="384.7089">organization_name: VARCHAR</text><line style="stroke:#181818;stroke-width:0.5;" x1="613.01" x2="848.6643" y1="392.0106" y2="392.0106"/></g><!--class SiteAdminProfile--><g id="elem_SiteAdminProfile"><rect codeLine="16" fill="#F1F1F1" height="96.8906" id="SiteAdminProfile" rx="2.5" ry="2.5" style="stroke:#181818;stroke-width:0.5;" width="205.5664" x="885.05" y="303.12"/><ellipse cx="926.0322" cy="319.12" fill="#ADD1B2" rx="11" ry="11" style="stroke:#181818;stroke-width:1.0;"/><path d="M930.1416,325.12 L922.4229,325.12 L922.4229,312.7294 L930.1416,312.7294 L930.1416,314.8856 L924.876,314.8856 L924.876,317.5575 L929.6416,317.5575 L929.6416,319.7138 L924.876,319.7138 L924.876,322.9638 L930.1416,322.9638 L930.1416,325.12 Z " fill="#000000"/><text fill="#000000" font-family="sans-serif" font-size="14" lengthAdjust="spacing" textLength="115.8281" x="945.8061" y="323.9667">SiteAdminProfile</text><line style="stroke:#181818;stroke-width:0.5;" x1="886.05" x2="1089.6164" y1="335.12" y2="335.12"/><ellipse cx="896.05" cy="348.7684" fill="none" rx="3" ry="3" style="stroke:#038048;stroke-width:1.0;"/><text fill="#000000" font-family="sans-serif" font-size="14" lengthAdjust="spacing" textLength="90.4326" x="905.05" y="352.1151">admin_id: PK</text><ellipse cx="896.05" cy="365.0653" fill="none" rx="3" ry="3" style="stroke:#038048;stroke-width:1.0;"/><text fill="#000000" font-family="sans-serif" font-size="14" lengthAdjust="spacing" textLength="76.7129" x="905.05" y="368.412">user_id: FK</text><ellipse cx="896.05" cy="381.3622" fill="none" rx="3" ry="3" style="stroke:#038048;stroke-width:1.0;"/><text fill="#000000" font-family="sans-serif" font-size="14" lengthAdjust="spacing" textLength="179.5664" x="905.05" y="384.7089">admin_permissions: TEXT</text><line style="stroke:#181818;stroke-width:0.5;" x1="886.05" x2="1089.6164" y1="392.0106" y2="392.0106"/></g><!--class Event--><g id="elem_Event"><rect codeLine="22" fill="#F1F1F1" height="194.6719" id="Event" rx="2.5" ry="2.5" style="stroke:#181818;stroke-width:0.5;" width="213.3594" x="299.15" y="7"/><ellipse cx="381.5265" cy="23" fill="#ADD1B2" rx="11" ry="11" style="stroke:#181818;stroke-width:1.0;"/><path d="M385.6358,29 L377.9171,29 L377.9171,16.6094 L385.6358,16.6094 L385.6358,18.7656 L380.3702,18.7656 L380.3702,21.4375 L385.1358,21.4375 L385.1358,23.5938 L380.3702,23.5938 L380.3702,26.8438 L385.6358,26.8438 L385.6358,29 Z " fill="#000000"/><text fill="#000000" font-family="sans-serif" font-size="14" lengthAdjust="spacing" textLength="40.1064" x="402.0265" y="27.8467">Event</text><line style="stroke:#181818;stroke-width:0.5;" x1="300.15" x2="511.5094" y1="39" y2="39"/><ellipse cx="310.15" cy="52.6484" fill="none" rx="3" ry="3" style="stroke:#038048;stroke-width:1.0;"/><text fill="#000000" font-family="sans-serif" font-size="14" lengthAdjust="spacing" textLength="86.4404" x="319.15" y="55.9951">event_id: PK</text><ellipse cx="310.15" cy="68.9453" fill="none" rx="3" ry="3" style="stroke:#038048;stroke-width:1.0;"/><text fill="#000000" font-family="sans-serif" font-size="14" lengthAdjust="spacing" textLength="105.0273" x="319.15" y="72.292">title: VARCHAR</text><ellipse cx="310.15" cy="85.2422" fill="none" rx="3" ry="3" style="stroke:#038048;stroke-width:1.0;"/><text fill="#000000" font-family="sans-serif" font-size="14" lengthAdjust="spacing" textLength="122.5479" x="319.15" y="88.5889">description: TEXT</text><ellipse cx="310.15" cy="101.5391" fill="none" rx="3" ry="3" style="stroke:#038048;stroke-width:1.0;"/><text fill="#000000" font-family="sans-serif" font-size="14" lengthAdjust="spacing" textLength="121.2627" x="319.15" y="104.8857">image: VARCHAR</text><ellipse cx="310.15" cy="117.8359" fill="none" rx="3" ry="3" style="stroke:#038048;stroke-width:1.0;"/><text fill="#000000" font-family="sans-serif" font-size="14" lengthAdjust="spacing" textLength="78.4902" x="319.15" y="121.1826">date: DATE</text><ellipse cx="310.15" cy="134.1328" fill="none" rx="3" ry="3" style="stroke:#038048;stroke-width:1.0;"/><text fill="#000000" font-family="sans-serif" font-size="14" lengthAdjust="spacing" textLength="74.4023" x="319.15" y="137.4795">time: TIME</text><ellipse cx="310.15" cy="150.4297" fill="none" rx="3" ry="3" style="stroke:#038048;stroke-width:1.0;"/><text fill="#000000" font-family="sans-serif" font-size="14" lengthAdjust="spacing" textLength="133.2051" x="319.15" y="153.7764">location: VARCHAR</text><ellipse cx="310.15" cy="166.7266" fill="none" rx="3" ry="3" style="stroke:#038048;stroke-width:1.0;"/><text fill="#000000" font-family="sans-serif" font-size="14" lengthAdjust="spacing" textLength="106.9961" x="319.15" y="170.0732">price: DECIMAL</text><ellipse cx="310.15" cy="183.0234" fill="none" rx="3" ry="3" style="stroke:#038048;stroke-width:1.0;"/><text fill="#000000" font-family="sans-serif" font-size="14" lengthAdjust="spacing" textLength="187.3594" x="319.15" y="186.3701">available_tickets: INTEGER</text><line style="stroke:#181818;stroke-width:0.5;" x1="300.15" x2="511.5094" y1="193.6719" y2="193.6719"/></g><!--class Ticket--><g id="elem_Ticket"><rect codeLine="34" fill="#F1F1F1" height="145.7813" id="Ticket" rx="2.5" ry="2.5" style="stroke:#181818;stroke-width:0.5;" width="209.668" x="7" y="278.67"/><ellipse cx="86.4097" cy="294.67" fill="#ADD1B2" rx="11" ry="11" style="stroke:#181818;stroke-width:1.0;"/><path d="M90.519,300.67 L82.8003,300.67 L82.8003,288.2794 L90.519,288.2794 L90.519,290.4356 L85.2534,290.4356 L85.2534,293.1075 L90.019,293.1075 L90.019,295.2638 L85.2534,295.2638 L85.2534,298.5138 L90.519,298.5138 L90.519,300.67 Z " fill="#000000"/><text fill="#000000" font-family="sans-serif" font-size="14" lengthAdjust="spacing" textLength="42.3486" x="106.9097" y="299.5167">Ticket</text><line style="stroke:#181818;stroke-width:0.5;" x1="8" x2="215.668" y1="310.67" y2="310.67"/><ellipse cx="18" cy="324.3184" fill="none" rx="3" ry="3" style="stroke:#038048;stroke-width:1.0;"/><text fill="#000000" font-family="sans-serif" font-size="14" lengthAdjust="spacing" textLength="85.8525" x="27" y="327.6651">ticket_id: PK</text><ellipse cx="18" cy="340.6153" fill="none" rx="3" ry="3" style="stroke:#038048;stroke-width:1.0;"/><text fill="#000000" font-family="sans-serif" font-size="14" lengthAdjust="spacing" textLength="86.0508" x="27" y="343.962">event_id: FK</text><ellipse cx="18" cy="356.9122" fill="none" rx="3" ry="3" style="stroke:#038048;stroke-width:1.0;"/><text fill="#000000" font-family="sans-serif" font-size="14" lengthAdjust="spacing" textLength="76.7129" x="27" y="360.2589">user_id: FK</text><ellipse cx="18" cy="373.2091" fill="none" rx="3" ry="3" style="stroke:#038048;stroke-width:1.0;"/><text fill="#000000" font-family="sans-serif" font-size="14" lengthAdjust="spacing" textLength="128.9531" x="27" y="376.5557">quantity: INTEGER</text><ellipse cx="18" cy="389.5059" fill="none" rx="3" ry="3" style="stroke:#038048;stroke-width:1.0;"/><text fill="#000000" font-family="sans-serif" font-size="14" lengthAdjust="spacing" textLength="183.668" x="27" y="392.8526">purchase_date: DATETIME</text><ellipse cx="18" cy="405.8028" fill="none" rx="3" ry="3" style="stroke:#038048;stroke-width:1.0;"/><text fill="#000000" font-family="sans-serif" font-size="14" lengthAdjust="spacing" textLength="159.1201" x="27" y="409.1495">is_refunded: BOOLEAN</text><line style="stroke:#181818;stroke-width:0.5;" x1="8" x2="215.668" y1="416.4513" y2="416.4513"/></g><!--class Payment--><g id="elem_Payment"><rect codeLine="43" fill="#F1F1F1" height="145.7813" id="Payment" rx="2.5" ry="2.5" style="stroke:#181818;stroke-width:0.5;" width="227.0859" x="251.29" y="278.67"/><ellipse cx="329.623" cy="294.67" fill="#ADD1B2" rx="11" ry="11" style="stroke:#181818;stroke-width:1.0;"/><path d="M333.7324,300.67 L326.0136,300.67 L326.0136,288.2794 L333.7324,288.2794 L333.7324,290.4356 L328.4668,290.4356 L328.4668,293.1075 L333.2324,293.1075 L333.2324,295.2638 L328.4668,295.2638 L328.4668,298.5138 L333.7324,298.5138 L333.7324,300.67 Z " fill="#000000"/><text fill="#000000" font-family="sans-serif" font-size="14" lengthAdjust="spacing" textLength="61.9199" x="350.123" y="299.5167">Payment</text><line style="stroke:#181818;stroke-width:0.5;" x1="252.29" x2="477.3759" y1="310.67" y2="310.67"/><ellipse cx="262.29" cy="324.3184" fill="none" rx="3" ry="3" style="stroke:#038048;stroke-width:1.0;"/><text fill="#000000" font-family="sans-serif" font-size="14" lengthAdjust="spacing" textLength="108.9307" x="271.29" y="327.6651">payment_id: PK</text><ellipse cx="262.29" cy="340.6153" fill="none" rx="3" ry="3" style="stroke:#038048;stroke-width:1.0;"/><text fill="#000000" font-family="sans-serif" font-size="14" lengthAdjust="spacing" textLength="181.46" x="271.29" y="343.962">payment_date: DATETIME</text><ellipse cx="262.29" cy="356.9122" fill="none" rx="3" ry="3" style="stroke:#038048;stroke-width:1.0;"/><text fill="#000000" font-family="sans-serif" font-size="14" lengthAdjust="spacing" textLength="126.1709" x="271.29" y="360.2589">amount: DECIMAL</text><ellipse cx="262.29" cy="373.2091" fill="none" rx="3" ry="3" style="stroke:#038048;stroke-width:1.0;"/><text fill="#000000" font-family="sans-serif" font-size="14" lengthAdjust="spacing" textLength="201.0859" x="271.29" y="376.5557">payment_method: VARCHAR</text><ellipse cx="262.29" cy="389.5059" fill="none" rx="3" ry="3" style="stroke:#038048;stroke-width:1.0;"/><text fill="#000000" font-family="sans-serif" font-size="14" lengthAdjust="spacing" textLength="190.0391" x="271.29" y="392.8526">payment_status: VARCHAR</text><ellipse cx="262.29" cy="405.8028" fill="none" rx="3" ry="3" style="stroke:#038048;stroke-width:1.0;"/><text fill="#000000" font-family="sans-serif" font-size="14" lengthAdjust="spacing" textLength="176.5176" x="271.29" y="409.1495">transaction_id: VARCHAR</text><line style="stroke:#181818;stroke-width:0.5;" x1="252.29" x2="477.3759" y1="416.4513" y2="416.4513"/></g><!--class PaymentTickets--><g id="elem_PaymentTickets"><rect codeLine="52" fill="#F1F1F1" height="80.5938" id="PaymentTickets" rx="2.5" ry="2.5" style="stroke:#181818;stroke-width:0.5;" width="143.5625" x="270.05" y="525.9"/><ellipse cx="285.05" cy="541.9" fill="#ADD1B2" rx="11" ry="11" style="stroke:#181818;stroke-width:1.0;"/><path d="M289.1594,547.9 L281.4406,547.9 L281.4406,535.5094 L289.1594,535.5094 L289.1594,537.6656 L283.8938,537.6656 L283.8938,540.3375 L288.6594,540.3375 L288.6594,542.4938 L283.8938,542.4938 L283.8938,545.7438 L289.1594,545.7438 L289.1594,547.9 Z " fill="#000000"/><text fill="#000000" font-family="sans-serif" font-size="14" lengthAdjust="spacing" textLength="111.5625" x="299.05" y="546.7467">PaymentTickets</text><line style="stroke:#181818;stroke-width:0.5;" x1="271.05" x2="412.6125" y1="557.9" y2="557.9"/><ellipse cx="281.05" cy="571.5484" fill="none" rx="3" ry="3" style="stroke:#038048;stroke-width:1.0;"/><text fill="#000000" font-family="sans-serif" font-size="14" lengthAdjust="spacing" textLength="108.541" x="290.05" y="574.8951">payment_id: FK</text><ellipse cx="281.05" cy="587.8453" fill="none" rx="3" ry="3" style="stroke:#038048;stroke-width:1.0;"/><text fill="#000000" font-family="sans-serif" font-size="14" lengthAdjust="spacing" textLength="85.4629" x="290.05" y="591.192">ticket_id: FK</text><line style="stroke:#181818;stroke-width:0.5;" x1="271.05" x2="412.6125" y1="598.4938" y2="598.4938"/></g><!--class RefundRequest--><g id="elem_RefundRequest"><rect codeLine="57" fill="#F1F1F1" height="129.4844" id="RefundRequest" rx="2.5" ry="2.5" style="stroke:#181818;stroke-width:0.5;" width="199.5029" x="12.08" y="501.46"/><ellipse cx="54.1266" cy="517.46" fill="#ADD1B2" rx="11" ry="11" style="stroke:#181818;stroke-width:1.0;"/><path d="M58.236,523.46 L50.5172,523.46 L50.5172,511.0694 L58.236,511.0694 L58.236,513.2256 L52.9703,513.2256 L52.9703,515.8975 L57.736,515.8975 L57.736,518.0538 L52.9703,518.0538 L52.9703,521.3038 L58.236,521.3038 L58.236,523.46 Z " fill="#000000"/><text fill="#000000" font-family="sans-serif" font-size="14" lengthAdjust="spacing" textLength="107.3994" x="74.1369" y="522.3067">RefundRequest</text><line style="stroke:#181818;stroke-width:0.5;" x1="13.08" x2="210.5829" y1="533.46" y2="533.46"/><ellipse cx="23.08" cy="547.1084" fill="none" rx="3" ry="3" style="stroke:#038048;stroke-width:1.0;"/><text fill="#000000" font-family="sans-serif" font-size="14" lengthAdjust="spacing" textLength="92.4971" x="32.08" y="550.4551">refund_id: PK</text><ellipse cx="23.08" cy="563.4053" fill="none" rx="3" ry="3" style="stroke:#038048;stroke-width:1.0;"/><text fill="#000000" font-family="sans-serif" font-size="14" lengthAdjust="spacing" textLength="85.4629" x="32.08" y="566.752">ticket_id: FK</text><ellipse cx="23.08" cy="579.7022" fill="none" rx="3" ry="3" style="stroke:#038048;stroke-width:1.0;"/><text fill="#000000" font-family="sans-serif" font-size="14" lengthAdjust="spacing" textLength="172.6211" x="32.08" y="583.0489">request_date: DATETIME</text><ellipse cx="23.08" cy="595.9991" fill="none" rx="3" ry="3" style="stroke:#038048;stroke-width:1.0;"/><text fill="#000000" font-family="sans-serif" font-size="14" lengthAdjust="spacing" textLength="91.793" x="32.08" y="599.3457">status: CHAR</text><ellipse cx="23.08" cy="612.2959" fill="none" rx="3" ry="3" style="stroke:#038048;stroke-width:1.0;"/><text fill="#000000" font-family="sans-serif" font-size="14" lengthAdjust="spacing" textLength="173.5029" x="32.08" y="615.6426">credit_amount: DECIMAL</text><line style="stroke:#181818;stroke-width:0.5;" x1="13.08" x2="210.5829" y1="622.9444" y2="622.9444"/></g><!--class Cart--><g id="elem_Cart"><rect codeLine="65" fill="#F1F1F1" height="113.1875" id="Cart" rx="2.5" ry="2.5" style="stroke:#181818;stroke-width:0.5;" width="185.8105" x="1125.93" y="294.97"/><ellipse cx="1199.7855" cy="310.97" fill="#ADD1B2" rx="11" ry="11" style="stroke:#181818;stroke-width:1.0;"/><path d="M1203.8948,316.97 L1196.1761,316.97 L1196.1761,304.5794 L1203.8948,304.5794 L1203.8948,306.7356 L1198.6292,306.7356 L1198.6292,309.4075 L1203.3948,309.4075 L1203.3948,311.5638 L1198.6292,311.5638 L1198.6292,314.8138 L1203.8948,314.8138 L1203.8948,316.97 Z " fill="#000000"/><text fill="#000000" font-family="sans-serif" font-size="14" lengthAdjust="spacing" textLength="29.5996" x="1220.2855" y="315.8167">Cart</text><line style="stroke:#181818;stroke-width:0.5;" x1="1126.93" x2="1310.7405" y1="326.97" y2="326.97"/><ellipse cx="1136.93" cy="340.6184" fill="none" rx="3" ry="3" style="stroke:#038048;stroke-width:1.0;"/><text fill="#000000" font-family="sans-serif" font-size="14" lengthAdjust="spacing" textLength="74.0879" x="1145.93" y="343.9651">cart_id: PK</text><ellipse cx="1136.93" cy="356.9153" fill="none" rx="3" ry="3" style="stroke:#038048;stroke-width:1.0;"/><text fill="#000000" font-family="sans-serif" font-size="14" lengthAdjust="spacing" textLength="76.7129" x="1145.93" y="360.262">user_id: FK</text><ellipse cx="1136.93" cy="373.2122" fill="none" rx="3" ry="3" style="stroke:#038048;stroke-width:1.0;"/><text fill="#000000" font-family="sans-serif" font-size="14" lengthAdjust="spacing" textLength="155.2305" x="1145.93" y="376.5589">created_at: DATETIME</text><ellipse cx="1136.93" cy="389.5091" fill="none" rx="3" ry="3" style="stroke:#038048;stroke-width:1.0;"/><text fill="#000000" font-family="sans-serif" font-size="14" lengthAdjust="spacing" textLength="159.8105" x="1145.93" y="392.8557">updated_at: DATETIME</text><line style="stroke:#181818;stroke-width:0.5;" x1="1126.93" x2="1310.7405" y1="400.1575" y2="400.1575"/></g><!--class CartItems--><g id="elem_CartItems"><rect codeLine="72" fill="#F1F1F1" height="80.5938" id="CartItems" rx="2.5" ry="2.5" style="stroke:#181818;stroke-width:0.5;" width="112.0508" x="674.81" y="525.9"/><ellipse cx="694.8896" cy="541.9" fill="#ADD1B2" rx="11" ry="11" style="stroke:#181818;stroke-width:1.0;"/><path d="M698.999,547.9 L691.2803,547.9 L691.2803,535.5094 L698.999,535.5094 L698.999,537.6656 L693.7334,537.6656 L693.7334,540.3375 L698.499,540.3375 L698.499,542.4938 L693.7334,542.4938 L693.7334,545.7438 L698.999,545.7438 L698.999,547.9 Z " fill="#000000"/><text fill="#000000" font-family="sans-serif" font-size="14" lengthAdjust="spacing" textLength="68.7627" x="710.0184" y="546.7467">CartItems</text><line style="stroke:#181818;stroke-width:0.5;" x1="675.81" x2="785.8608" y1="557.9" y2="557.9"/><ellipse cx="685.81" cy="571.5484" fill="none" rx="3" ry="3" style="stroke:#038048;stroke-width:1.0;"/><text fill="#000000" font-family="sans-serif" font-size="14" lengthAdjust="spacing" textLength="73.6982" x="694.81" y="574.8951">cart_id: FK</text><ellipse cx="685.81" cy="587.8453" fill="none" rx="3" ry="3" style="stroke:#038048;stroke-width:1.0;"/><text fill="#000000" font-family="sans-serif" font-size="14" lengthAdjust="spacing" textLength="86.0508" x="694.81" y="591.192">event_id: FK</text><line style="stroke:#181818;stroke-width:0.5;" x1="675.81" x2="785.8608" y1="598.4938" y2="598.4938"/></g><!--link User to PublisherProfile--><g id="link_User_PublisherProfile"><path codeLine="77" d="M752.2802,169.2346 C747.2302,211.9246 743.4059,244.2848 738.6059,284.8348 " fill="none" id="User-PublisherProfile" style="stroke:#181818;stroke-width:1.0;"/><line style="stroke:#181818;stroke-width:1.0;" x1="748.7778" x2="756.7224" y1="164.7924" y2="165.7322"/><line style="stroke:#181818;stroke-width:1.0;" x1="748.4254" x2="756.37" y1="167.7716" y2="168.7114"/><line style="stroke:#181818;stroke-width:1.0;" x1="752.2802" x2="753.22" y1="169.2346" y2="161.29"/><line style="stroke:#181818;stroke-width:1.0;" x1="737.4304" x2="742.4484" y1="294.7655" y2="303.4153"/><line style="stroke:#181818;stroke-width:1.0;" x1="737.4304" x2="730.5316" y1="294.7655" y2="302.0047"/><line style="stroke:#181818;stroke-width:1.0;" x1="737.4304" x2="736.49" y1="294.7655" y2="302.71"/><ellipse cx="738.1357" cy="288.8071" fill="none" rx="4" ry="4" style="stroke:#181818;stroke-width:1.0;"/><text fill="#000000" font-family="sans-serif" font-size="13" lengthAdjust="spacing" textLength="22.9785" x="745.83" y="244.7369">has</text></g><!--link User to SiteAdminProfile--><g id="link_User_SiteAdminProfile"><path codeLine="78" d="M817.3072,167.149 C856.9972,209.839 893.3838,248.9772 931.0838,289.5272 " fill="none" id="User-SiteAdminProfile" style="stroke:#181818;stroke-width:1.0;"/><line style="stroke:#181818;stroke-width:1.0;" x1="811.6541" x2="817.5131" y1="166.9431" y2="161.4959"/><line style="stroke:#181818;stroke-width:1.0;" x1="813.6968" x2="819.5558" y1="169.1402" y2="163.693"/><line style="stroke:#181818;stroke-width:1.0;" x1="817.3072" x2="811.86" y1="167.149" y2="161.29"/><line style="stroke:#181818;stroke-width:1.0;" x1="937.8928" x2="947.7343" y1="296.851" y2="298.6246"/><line style="stroke:#181818;stroke-width:1.0;" x1="937.8928" x2="938.9457" y1="296.851" y2="306.7954"/><line style="stroke:#181818;stroke-width:1.0;" x1="937.8928" x2="943.34" y1="296.851" y2="302.71"/><ellipse cx="933.8074" cy="292.4567" fill="none" rx="4" ry="4" style="stroke:#181818;stroke-width:1.0;"/><text fill="#000000" font-family="sans-serif" font-size="13" lengthAdjust="spacing" textLength="22.9785" x="888.83" y="244.7369">has</text></g><!--link User to Ticket--><g id="link_User_Ticket"><path codeLine="79" d="M652.6339,153.9778 C612.6539,171.2178 573.21,187.03 529.83,201.67 C401.04,245.15 359.38,226.56 233.83,278.67 C228.27,280.98 238.9018,275.751 233.2918,278.431 " fill="none" id="User-Ticket" style="stroke:#181818;stroke-width:1.0;"/><line style="stroke:#181818;stroke-width:1.0;" x1="654.7231" x2="657.8908" y1="148.7208" y2="156.0669"/><line style="stroke:#181818;stroke-width:1.0;" x1="651.9683" x2="655.136" y1="149.9087" y2="157.2548"/><line style="stroke:#181818;stroke-width:1.0;" x1="652.6339" x2="659.98" y1="153.9778" y2="150.81"/><line style="stroke:#181818;stroke-width:1.0;" x1="224.2686" x2="219.6363" y1="282.7415" y2="291.6039"/><line style="stroke:#181818;stroke-width:1.0;" x1="224.2686" x2="214.4637" y1="282.7415" y2="280.7761"/><line style="stroke:#181818;stroke-width:1.0;" x1="224.2686" x2="217.05" y1="282.7415" y2="286.19"/><ellipse cx="229.6825" cy="280.1552" fill="none" rx="4" ry="4" style="stroke:#181818;stroke-width:1.0;"/><text fill="#000000" font-family="sans-serif" font-size="13" lengthAdjust="spacing" textLength="30.9575" x="407.83" y="244.7369">buys</text></g><!--link User to Cart--><g id="link_User_Cart"><path codeLine="80" d="M866.8694,154.7958 C937.2894,188.1658 1026.05,232.02 1107.83,278.67 C1116.61,283.68 1110.3296,279.641 1119.2796,285.161 " fill="none" id="User-Cart" style="stroke:#181818;stroke-width:1.0;"/><line style="stroke:#181818;stroke-width:1.0;" x1="861.5418" x2="864.9676" y1="156.6976" y2="149.4682"/><line style="stroke:#181818;stroke-width:1.0;" x1="864.2528" x2="867.6786" y1="157.9823" y2="150.7529"/><line style="stroke:#181818;stroke-width:1.0;" x1="866.8694" x2="859.64" y1="154.7958" y2="151.37"/><line style="stroke:#181818;stroke-width:1.0;" x1="1127.7909" x2="1137.7497" y1="290.4104" y2="289.5032"/><line style="stroke:#181818;stroke-width:1.0;" x1="1127.7909" x2="1131.4503" y1="290.4104" y2="299.7168"/><line style="stroke:#181818;stroke-width:1.0;" x1="1127.7909" x2="1134.6" y1="290.4104" y2="294.61"/><ellipse cx="1122.6841" cy="287.2608" fill="none" rx="4" ry="4" style="stroke:#181818;stroke-width:1.0;"/><text fill="#000000" font-family="sans-serif" font-size="13" lengthAdjust="spacing" textLength="22.9785" x="1053.83" y="244.7369">has</text></g><!--link Event to Ticket--><g id="link_Event_Ticket"><path codeLine="81" d="M292.717,199.6848 C259.717,227.2148 243.7751,240.5232 212.3151,266.7532 " fill="none" id="Event-Ticket" style="stroke:#181818;stroke-width:1.0;"/><line style="stroke:#181818;stroke-width:1.0;" x1="293.2261" x2="298.3509" y1="194.0509" y2="200.1939"/><line style="stroke:#181818;stroke-width:1.0;" x1="290.9225" x2="296.0472" y1="195.9727" y2="202.1157"/><line style="stroke:#181818;stroke-width:1.0;" x1="292.717" x2="298.86" y1="199.6848" y2="194.56"/><line style="stroke:#181818;stroke-width:1.0;" x1="204.6345" x2="202.3323" y1="273.157" y2="282.8884"/><line style="stroke:#181818;stroke-width:1.0;" x1="204.6345" x2="194.6477" y1="273.157" y2="273.6716"/><line style="stroke:#181818;stroke-width:1.0;" x1="204.6345" x2="198.49" y1="273.157" y2="278.28"/><ellipse cx="209.2429" cy="269.3147" fill="none" rx="4" ry="4" style="stroke:#181818;stroke-width:1.0;"/><text fill="#000000" font-family="sans-serif" font-size="13" lengthAdjust="spacing" textLength="53.8726" x="251.83" y="244.7369">includes</text></g><!--link Ticket to PaymentTickets--><g id="link_Ticket_PaymentTickets"><path codeLine="82" d="M195.8948,430.2802 C232.3648,463.9902 255.2545,485.1491 285.8145,513.4091 " fill="none" id="Ticket-PaymentTickets" style="stroke:#181818;stroke-width:1.0;"/><line style="stroke:#181818;stroke-width:1.0;" x1="190.2423" x2="195.6725" y1="430.5025" y2="424.6277"/><line style="stroke:#181818;stroke-width:1.0;" x1="192.4453" x2="197.8755" y1="432.5388" y2="426.664"/><line style="stroke:#181818;stroke-width:1.0;" x1="195.8948" x2="190.02" y1="430.2802" y2="424.85"/><line style="stroke:#181818;stroke-width:1.0;" x1="293.1564" x2="303.1036" y1="520.1985" y2="521.2248"/><line style="stroke:#181818;stroke-width:1.0;" x1="293.1564" x2="294.9564" y1="520.1985" y2="530.0352"/><line style="stroke:#181818;stroke-width:1.0;" x1="293.1564" x2="299.03" y1="520.1985" y2="525.63"/><ellipse cx="288.7513" cy="516.1249" fill="none" rx="4" ry="4" style="stroke:#181818;stroke-width:1.0;"/><text fill="#000000" font-family="sans-serif" font-size="13" lengthAdjust="spacing" textLength="26.3682" x="234.83" y="467.5269">is in</text></g><!--link Payment to PaymentTickets--><g id="link_Payment_PaymentTickets"><path codeLine="83" d="M356.1588,432.8035 C352.5088,466.5135 351.1077,479.4746 348.0477,507.7346 " fill="none" id="Payment-PaymentTickets" style="stroke:#181818;stroke-width:1.0;"/><line style="stroke:#181818;stroke-width:1.0;" x1="352.6127" x2="360.5662" y1="428.3962" y2="429.2573"/><line style="stroke:#181818;stroke-width:1.0;" x1="352.2897" x2="360.2432" y1="431.3787" y2="432.2399"/><line style="stroke:#181818;stroke-width:1.0;" x1="356.1588" x2="357.02" y1="432.8035" y2="424.85"/><line style="stroke:#181818;stroke-width:1.0;" x1="346.9712" x2="352.0751" y1="517.6765" y2="526.2759"/><line style="stroke:#181818;stroke-width:1.0;" x1="346.9712" x2="340.1449" y1="517.6765" y2="524.9841"/><line style="stroke:#181818;stroke-width:1.0;" x1="346.9712" x2="346.11" y1="517.6765" y2="525.63"/><ellipse cx="347.6171" cy="511.7114" fill="none" rx="4" ry="4" style="stroke:#181818;stroke-width:1.0;"/><text fill="#000000" font-family="sans-serif" font-size="13" lengthAdjust="spacing" textLength="53.8726" x="354.83" y="467.5269">includes</text></g><!--link Ticket to RefundRequest--><g id="link_Ticket_RefundRequest"><path codeLine="84" d="M111.83,432.85 C111.83,457.65 111.83,459.21 111.83,483.3 " fill="none" id="Ticket-RefundRequest" style="stroke:#181818;stroke-width:1.0;"/><line style="stroke:#181818;stroke-width:1.0;" x1="107.83" x2="115.83" y1="428.85" y2="428.85"/><line style="stroke:#181818;stroke-width:1.0;" x1="107.83" x2="115.83" y1="431.85" y2="431.85"/><line style="stroke:#181818;stroke-width:1.0;" x1="111.83" x2="111.83" y1="432.85" y2="424.85"/><line style="stroke:#181818;stroke-width:1.0;" x1="111.83" x2="117.83" y1="493.3" y2="501.3"/><line style="stroke:#181818;stroke-width:1.0;" x1="111.83" x2="105.83" y1="493.3" y2="501.3"/><line style="stroke:#181818;stroke-width:1.0;" x1="111.83" x2="111.83" y1="493.3" y2="501.3"/><ellipse cx="111.83" cy="487.3" fill="none" rx="4" ry="4" style="stroke:#181818;stroke-width:1.0;"/><text fill="#000000" font-family="sans-serif" font-size="13" lengthAdjust="spacing" textLength="59.3823" x="112.83" y="467.5269">can have</text></g><!--link Cart to CartItems--><g id="link_Cart_CartItems"><path codeLine="85" d="M1129.7729,412.6473 C1120.2329,418.3173 1117.37,419.66 1107.83,424.46 C998.45,479.47 879.3403,519.7821 804.2403,543.1021 " fill="none" id="Cart-CartItems" style="stroke:#181818;stroke-width:1.0;"/><line style="stroke:#181818;stroke-width:1.0;" x1="1131.1678" x2="1135.2551" y1="407.1651" y2="414.0422"/><line style="stroke:#181818;stroke-width:1.0;" x1="1128.5889" x2="1132.6762" y1="408.6979" y2="415.5749"/><line style="stroke:#181818;stroke-width:1.0;" x1="1129.7729" x2="1136.65" y1="412.6473" y2="408.56"/><line style="stroke:#181818;stroke-width:1.0;" x1="794.6901" x2="788.8293" y1="546.0676" y2="554.1701"/><line style="stroke:#181818;stroke-width:1.0;" x1="794.6901" x2="785.2707" y1="546.0676" y2="542.7099"/><line style="stroke:#181818;stroke-width:1.0;" x1="794.6901" x2="787.05" y1="546.0676" y2="548.44"/><ellipse cx="800.4202" cy="544.2883" fill="none" rx="4" ry="4" style="stroke:#181818;stroke-width:1.0;"/><text fill="#000000" font-family="sans-serif" font-size="13" lengthAdjust="spacing" textLength="55.0278" x="1039.83" y="467.5269">contains</text></g><!--link Event to CartItems--><g id="link_Event_CartItems"><path codeLine="86" d="M460.1843,208.9411 C473.1343,233.9011 483.26,253.68 495.83,278.67 C528.22,343.06 522.8,367.41 566.83,424.46 C597.21,463.81 625.7127,489.2865 660.0027,515.1665 " fill="none" id="Event-CartItems" style="stroke:#181818;stroke-width:1.0;"/><line style="stroke:#181818;stroke-width:1.0;" x1="454.7916" x2="461.8927" y1="207.2327" y2="203.5484"/><line style="stroke:#181818;stroke-width:1.0;" x1="456.1732" x2="463.2743" y1="209.8956" y2="206.2113"/><line style="stroke:#181818;stroke-width:1.0;" x1="460.1843" x2="456.5" y1="208.9411" y2="201.84"/><line style="stroke:#181818;stroke-width:1.0;" x1="667.9846" x2="677.9845" y1="521.1907" y2="521.2209"/><line style="stroke:#181818;stroke-width:1.0;" x1="667.9846" x2="670.7555" y1="521.1907" y2="530.7991"/><line style="stroke:#181818;stroke-width:1.0;" x1="667.9846" x2="674.37" y1="521.1907" y2="526.01"/><ellipse cx="663.1955" cy="517.5761" fill="none" rx="4" ry="4" style="stroke:#181818;stroke-width:1.0;"/><text fill="#000000" font-family="sans-serif" font-size="13" lengthAdjust="spacing" textLength="26.3682" x="567.83" y="356.1269">is in</text></g><!--SRC=[VLJ1Sfim4Btp5IhNJdw06t5mooIEFGxjzCR8qZhM12GY2S-uIV-z2mA308UJj7hxTj_JecySZa82URZFLzlDRlkIPWbXggoK4HQ20AGLza9-6T3a8o3uVQzndGiUaTsZ2q19HH6Ht_5-zJFUkvXM1KHas5TQ7KK1kIZfAmpOVzSAk_fG27C2lNF8lbhLnxsIrnxMNK3fLoh5Nsg5ahcavMAD5vGKyrB8IGtQnBxcTv0AT2cCmHec8bdo9nkH9sTSz8pGR3n6n1GmCOc3OLfKJSyTNHkUUEIWr6Be8SwIdgwHcAMRRbyeHXsFbrPfmPgyP9LkugTEoXclYnxmCgnWRs1HIlgS9J-IiLLPUzJBSK3_qgyArxSyUwzfIpRmTpUgsOaQo0TDWmvXSWt7Md90elljzYc9dyTJGY_boERARRt6-jWIEorLBUt4ZpwX17jIV6fWTsWijRMP75fDfQ6idJd15wVQfJitpLBRwyUPnHWQ6FQj6tjuhy5STJkB9lCrpkzGRTAY4xsUGGpJm8NDfnODdQoelZR0SFtr3uDqM9Rdr4vBrnMVd_XbKWkbcTLQBuqU9hQFq-VdtPtwc3yZ4S5Pyo2pLs0EwQO_8k6XlfZGEsjjm1FC2GFtqy-oX6H5ZNzt67InlZj_71ga8KA6GJ_Njt4t6FtnG22Z4kMS8GpQHaTDErCRY9AM2ZbjtyEullu3]--></g></svg>