<svg xmlns="http://www.w3.org/2000/svg" xmlns:xlink="http://www.w3.org/1999/xlink" contentStyleType="text/css" height="560px" preserveAspectRatio="none" style="width:750px;height:560px;background:#FFFFFF;" version="1.1" viewBox="0 0 750 560" width="750px" zoomAndPan="magnify"><defs/><g><line style="stroke:#181818;stroke-width:0.5;stroke-dasharray:5.0,5.0;" x1="23" x2="23" y1="81.2969" y2="480.0234"/><line style="stroke:#181818;stroke-width:0.5;stroke-dasharray:5.0,5.0;" x1="239.7207" x2="239.7207" y1="81.2969" y2="480.0234"/><line style="stroke:#181818;stroke-width:0.5;stroke-dasharray:5.0,5.0;" x1="472.8472" x2="472.8472" y1="81.2969" y2="480.0234"/><line style="stroke:#181818;stroke-width:0.5;stroke-dasharray:5.0,5.0;" x1="572.9878" x2="572.9878" y1="81.2969" y2="480.0234"/><line style="stroke:#181818;stroke-width:0.5;stroke-dasharray:5.0,5.0;" x1="684.6216" x2="684.6216" y1="81.2969" y2="480.0234"/><text fill="#000000" font-family="sans-serif" font-size="14" lengthAdjust="spacing" textLength="31.9102" x="5" y="77.9951">User</text><ellipse cx="23.9551" cy="13.5" fill="#E2E2F0" rx="8" ry="8" style="stroke:#181818;stroke-width:0.5;"/><path d="M23.9551,21.5 L23.9551,48.5 M10.9551,29.5 L36.9551,29.5 M23.9551,48.5 L10.9551,63.5 M23.9551,48.5 L36.9551,63.5 " fill="none" style="stroke:#181818;stroke-width:0.5;"/><text fill="#000000" font-family="sans-serif" font-size="14" lengthAdjust="spacing" textLength="31.9102" x="5" y="492.0186">User</text><ellipse cx="23.9551" cy="503.8203" fill="#E2E2F0" rx="8" ry="8" style="stroke:#181818;stroke-width:0.5;"/><path d="M23.9551,511.8203 L23.9551,538.8203 M10.9551,519.8203 L36.9551,519.8203 M23.9551,538.8203 L10.9551,553.8203 M23.9551,538.8203 L36.9551,553.8203 " fill="none" style="stroke:#181818;stroke-width:0.5;"/><rect fill="#E2E2F0" height="30.2969" rx="2.5" ry="2.5" style="stroke:#181818;stroke-width:0.5;" width="47.5303" x="216.7207" y="50"/><text fill="#000000" font-family="sans-serif" font-size="14" lengthAdjust="spacing" textLength="33.5303" x="223.7207" y="69.9951">View</text><rect fill="#E2E2F0" height="30.2969" rx="2.5" ry="2.5" style="stroke:#181818;stroke-width:0.5;" width="47.5303" x="216.7207" y="479.0234"/><text fill="#000000" font-family="sans-serif" font-size="14" lengthAdjust="spacing" textLength="33.5303" x="223.7207" y="499.0186">View</text><rect fill="#E2E2F0" height="30.2969" rx="2.5" ry="2.5" style="stroke:#181818;stroke-width:0.5;" width="96.1406" x="424.8472" y="50"/><text fill="#000000" font-family="sans-serif" font-size="14" lengthAdjust="spacing" textLength="82.1406" x="431.8472" y="69.9951">EventModel</text><rect fill="#E2E2F0" height="30.2969" rx="2.5" ry="2.5" style="stroke:#181818;stroke-width:0.5;" width="96.1406" x="424.8472" y="479.0234"/><text fill="#000000" font-family="sans-serif" font-size="14" lengthAdjust="spacing" textLength="82.1406" x="431.8472" y="499.0186">EventModel</text><rect fill="#E2E2F0" height="30.2969" rx="2.5" ry="2.5" style="stroke:#181818;stroke-width:0.5;" width="85.6338" x="530.9878" y="50"/><text fill="#000000" font-family="sans-serif" font-size="14" lengthAdjust="spacing" textLength="71.6338" x="537.9878" y="69.9951">CartModel</text><rect fill="#E2E2F0" height="30.2969" rx="2.5" ry="2.5" style="stroke:#181818;stroke-width:0.5;" width="85.6338" x="530.9878" y="479.0234"/><text fill="#000000" font-family="sans-serif" font-size="14" lengthAdjust="spacing" textLength="71.6338" x="537.9878" y="499.0186">CartModel</text><rect fill="#E2E2F0" height="30.2969" rx="2.5" ry="2.5" style="stroke:#181818;stroke-width:0.5;" width="117.9541" x="626.6216" y="50"/><text fill="#000000" font-family="sans-serif" font-size="14" lengthAdjust="spacing" textLength="103.9541" x="633.6216" y="69.9951">PaymentModel</text><rect fill="#E2E2F0" height="30.2969" rx="2.5" ry="2.5" style="stroke:#181818;stroke-width:0.5;" width="117.9541" x="626.6216" y="479.0234"/><text fill="#000000" font-family="sans-serif" font-size="14" lengthAdjust="spacing" textLength="103.9541" x="633.6216" y="499.0186">PaymentModel</text><polygon fill="#181818" points="228.4858,108.4297,238.4858,112.4297,228.4858,116.4297,232.4858,112.4297" style="stroke:#181818;stroke-width:1.0;"/><line style="stroke:#181818;stroke-width:1.0;" x1="23.9551" x2="234.4858" y1="112.4297" y2="112.4297"/><text fill="#000000" font-family="sans-serif" font-size="13" lengthAdjust="spacing" textLength="192.5308" x="30.9551" y="107.3638">Sends request to view events</text><polygon fill="#181818" points="460.9175,137.5625,470.9175,141.5625,460.9175,145.5625,464.9175,141.5625" style="stroke:#181818;stroke-width:1.0;"/><line style="stroke:#181818;stroke-width:1.0;" x1="240.4858" x2="466.9175" y1="141.5625" y2="141.5625"/><text fill="#000000" font-family="sans-serif" font-size="13" lengthAdjust="spacing" textLength="208.4316" x="247.4858" y="136.4966">Fetch events from the database</text><polygon fill="#181818" points="251.4858,166.6953,241.4858,170.6953,251.4858,174.6953,247.4858,170.6953" style="stroke:#181818;stroke-width:1.0;"/><line style="stroke:#181818;stroke-width:1.0;" x1="245.4858" x2="471.9175" y1="170.6953" y2="170.6953"/><text fill="#000000" font-family="sans-serif" font-size="13" lengthAdjust="spacing" textLength="118.5234" x="257.4858" y="165.6294">Return event data</text><polygon fill="#181818" points="34.9551,195.8281,24.9551,199.8281,34.9551,203.8281,30.9551,199.8281" style="stroke:#181818;stroke-width:1.0;"/><line style="stroke:#181818;stroke-width:1.0;" x1="28.9551" x2="239.4858" y1="199.8281" y2="199.8281"/><text fill="#000000" font-family="sans-serif" font-size="13" lengthAdjust="spacing" textLength="175.0049" x="40.9551" y="194.7622">Display events with details</text><polygon fill="#181818" points="228.4858,224.9609,238.4858,228.9609,228.4858,232.9609,232.4858,228.9609" style="stroke:#181818;stroke-width:1.0;"/><line style="stroke:#181818;stroke-width:1.0;" x1="23.9551" x2="234.4858" y1="228.9609" y2="228.9609"/><text fill="#000000" font-family="sans-serif" font-size="13" lengthAdjust="spacing" textLength="113.4263" x="30.9551" y="223.895">Add event to cart</text><polygon fill="#181818" points="561.8047,254.0938,571.8047,258.0938,561.8047,262.0938,565.8047,258.0938" style="stroke:#181818;stroke-width:1.0;"/><line style="stroke:#181818;stroke-width:1.0;" x1="240.4858" x2="567.8047" y1="258.0938" y2="258.0938"/><text fill="#000000" font-family="sans-serif" font-size="13" lengthAdjust="spacing" textLength="156.2603" x="247.4858" y="253.0278">Add event to user's cart</text><polygon fill="#181818" points="251.4858,283.2266,241.4858,287.2266,251.4858,291.2266,247.4858,287.2266" style="stroke:#181818;stroke-width:1.0;"/><line style="stroke:#181818;stroke-width:1.0;" x1="245.4858" x2="572.8047" y1="287.2266" y2="287.2266"/><text fill="#000000" font-family="sans-serif" font-size="13" lengthAdjust="spacing" textLength="131.8281" x="257.4858" y="282.1606">Return updated cart</text><polygon fill="#181818" points="34.9551,312.3594,24.9551,316.3594,34.9551,320.3594,30.9551,316.3594" style="stroke:#181818;stroke-width:1.0;"/><line style="stroke:#181818;stroke-width:1.0;" x1="28.9551" x2="239.4858" y1="316.3594" y2="316.3594"/><text fill="#000000" font-family="sans-serif" font-size="13" lengthAdjust="spacing" textLength="77.6064" x="40.9551" y="311.2935">Display cart</text><polygon fill="#181818" points="228.4858,341.4922,238.4858,345.4922,228.4858,349.4922,232.4858,345.4922" style="stroke:#181818;stroke-width:1.0;"/><line style="stroke:#181818;stroke-width:1.0;" x1="23.9551" x2="234.4858" y1="345.4922" y2="345.4922"/><text fill="#000000" font-family="sans-serif" font-size="13" lengthAdjust="spacing" textLength="150.1602" x="30.9551" y="340.4263">Initiate ticket purchase</text><polygon fill="#181818" points="561.8047,370.625,571.8047,374.625,561.8047,378.625,565.8047,374.625" style="stroke:#181818;stroke-width:1.0;"/><line style="stroke:#181818;stroke-width:1.0;" x1="240.4858" x2="567.8047" y1="374.625" y2="374.625"/><text fill="#000000" font-family="sans-serif" font-size="13" lengthAdjust="spacing" textLength="116.2256" x="247.4858" y="369.5591">Get tickets in cart</text><polygon fill="#181818" points="673.5986,399.7578,683.5986,403.7578,673.5986,407.7578,677.5986,403.7578" style="stroke:#181818;stroke-width:1.0;"/><line style="stroke:#181818;stroke-width:1.0;" x1="240.4858" x2="679.5986" y1="403.7578" y2="403.7578"/><text fill="#000000" font-family="sans-serif" font-size="13" lengthAdjust="spacing" textLength="111.8711" x="247.4858" y="398.6919">Process payment</text><polygon fill="#181818" points="251.4858,428.8906,241.4858,432.8906,251.4858,436.8906,247.4858,432.8906" style="stroke:#181818;stroke-width:1.0;"/><line style="stroke:#181818;stroke-width:1.0;" x1="245.4858" x2="684.5986" y1="432.8906" y2="432.8906"/><text fill="#000000" font-family="sans-serif" font-size="13" lengthAdjust="spacing" textLength="112.4805" x="257.4858" y="427.8247">Payment success</text><polygon fill="#181818" points="34.9551,458.0234,24.9551,462.0234,34.9551,466.0234,30.9551,462.0234" style="stroke:#181818;stroke-width:1.0;"/><line style="stroke:#181818;stroke-width:1.0;" x1="28.9551" x2="239.4858" y1="462.0234" y2="462.0234"/><text fill="#000000" font-family="sans-serif" font-size="13" lengthAdjust="spacing" textLength="156.1714" x="40.9551" y="456.9575">Confirm ticket purchase</text><!--SRC=[PP7BJWCn34Nt-GhlMF43NI2XyX0BfAe8zY5nDH4pIOYTLlrxyfgMfBknxx7lzKGgTW4-2OFmCh1HnalBy6Nmr3MUZsZvtMcSGLAjEdsRlYzoBZfr9y_B__bM2v6DuVwX-C46Fj1gWe2_4Oc17Hnp7xCRYS8ajfWd-0LPJKs4Gt0By8IW9SjlIIWgTjszHux1LhvGbuKbn0QU3FbPdjUD9yCJQ6HfPhe9-gXrsvH2gdpkkYpVFW8n3TzHvOf-aohwb0Xrlsh8LRGno9irRD8ef7_zWmm-1ZNbyuSyhqch286nlKzxZKJjWbD81BwzpwfS_TOEHPN9CUlMsOC9ovZc3m00]--></g></svg>